Crimson-Bold.ufo
<glyph name="quotedbl" format="1">
  <advance width="331"/>
  <unicode hex="0022"/>
  <outline>
    <contour>
      <point x="258" y="700" type="curve" smooth="yes"/>
      <point x="272" y="700"/>
      <point x="280" y="696"/>
      <point x="289" y="684" type="curve"/>
      <point x="289" y="650"/>
      <point x="279" y="516"/>
      <point x="272" y="454" type="curve"/>
      <point x="268" y="447"/>
      <point x="257" y="436"/>
      <point x="248" y="431" type="curve"/>
      <point x="244" y="431"/>
      <point x="240" y="434"/>
      <point x="238" y="439" type="curve"/>
      <point x="213" y="524"/>
      <point x="196" y="584"/>
      <point x="196" y="617" type="curve" smooth="yes"/>
      <point x="196" y="650"/>
      <point x="220" y="700"/>
    </contour>
    <contour>
      <point x="98" y="700" type="curve" smooth="yes"/>
      <point x="112" y="700"/>
      <point x="120" y="696"/>
      <point x="129" y="684" type="curve"/>
      <point x="129" y="650"/>
      <point x="119" y="516"/>
      <point x="112" y="454" type="curve"/>
      <point x="108" y="447"/>
      <point x="97" y="436"/>
      <point x="88" y="431" type="curve"/>
      <point x="84" y="431"/>
      <point x="80" y="434"/>
      <point x="78" y="439" type="curve"/>
      <point x="53" y="524"/>
      <point x="36" y="584"/>
      <point x="36" y="617" type="curve" smooth="yes"/>
      <point x="36" y="650"/>
      <point x="60" y="700"/>
    </contour>
  </outline>
</glyph>
<glyph name="numbersign" format="1">
  <advance width="475"/>
  <unicode hex="0023"/>
  <outline>
    <contour>
      <point x="408" y="339" type="curve"/>
      <point x="249" y="339"/>
      <point x="249" y="339"/>
      <point x="79" y="339" type="curve"/>
      <point x="67" y="339"/>
      <point x="82" y="402"/>
      <point x="95" y="406" type="curve"/>
      <point x="421" y="406" type="line"/>
      <point x="435" y="406"/>
      <point x="421" y="345"/>
    </contour>
    <contour>
      <point x="380" y="148" type="curve"/>
      <point x="221" y="148"/>
      <point x="221" y="148"/>
      <point x="51" y="148" type="curve"/>
      <point x="39" y="148"/>
      <point x="55" y="211"/>
      <point x="68" y="215" type="curve"/>
      <point x="394" y="215" type="line"/>
      <point x="408" y="215"/>
      <point x="393" y="154"/>
    </contour>
    <contour>
      <point x="379" y="528" type="curve"/>
      <point x="300" y="36" type="line" smooth="yes"/>
      <point x="299" y="32"/>
      <point x="284" y="23"/>
      <point x="269" y="23" type="curve" smooth="yes"/>
      <point x="259" y="23"/>
      <point x="258" y="27"/>
      <point x="258" y="27" type="curve"/>
      <point x="337" y="518" type="line"/>
      <point x="340" y="527"/>
      <point x="347" y="531"/>
      <point x="366" y="531" type="curve" smooth="yes"/>
      <point x="375" y="531"/>
      <point x="376" y="530"/>
    </contour>
    <contour>
      <point x="218" y="528" type="curve"/>
      <point x="138" y="36" type="line" smooth="yes"/>
      <point x="137" y="32"/>
      <point x="123" y="23"/>
      <point x="108" y="23" type="curve" smooth="yes"/>
      <point x="98" y="23"/>
      <point x="97" y="27"/>
      <point x="97" y="27" type="curve"/>
      <point x="176" y="518" type="line"/>
      <point x="179" y="527"/>
      <point x="186" y="531"/>
      <point x="205" y="531" type="curve" smooth="yes"/>
      <point x="214" y="531"/>
      <point x="215" y="530"/>
    </contour>
  </outline>
</glyph>
<glyph name="dollar" format="1">
  <advance width="518"/>
  <unicode hex="0024"/>
  <outline>
    <contour>
      <point x="265" y="641" type="curve" smooth="yes"/>
      <point x="321" y="641"/>
      <point x="368" y="626"/>
      <point x="426" y="614" type="curve"/>
      <point x="431" y="563"/>
      <point x="433" y="513"/>
      <point x="436" y="455" type="curve"/>
      <point x="433" y="451"/>
      <point x="430" y="450"/>
      <point x="426" y="450" type="curve" smooth="yes"/>
      <point x="423" y="450"/>
      <point x="399" y="448"/>
      <point x="397" y="456" type="curve" smooth="yes"/>
      <point x="389" y="510"/>
      <point x="344" y="601"/>
      <point x="270" y="601" type="curve" smooth="yes"/>
      <point x="233" y="601"/>
      <point x="188" y="582"/>
      <point x="188" y="518" type="curve" smooth="yes"/>
      <point x="188" y="459"/>
      <point x="264" y="401"/>
      <point x="327" y="361" type="curve" smooth="yes"/>
      <point x="391" y="320"/>
      <point x="468" y="294"/>
      <point x="468" y="167" type="curve" smooth="yes"/>
      <point x="468" y="62"/>
      <point x="364" y="-10"/>
      <point x="259" y="-10" type="curve" smooth="yes"/>
      <point x="203" y="-10"/>
      <point x="134" y="2"/>
      <point x="77" y="15" type="curve"/>
      <point x="67" y="57"/>
      <point x="56" y="151"/>
      <point x="54" y="178" type="curve"/>
      <point x="58" y="184"/>
      <point x="77" y="191"/>
      <point x="82" y="191" type="curve" smooth="yes"/>
      <point x="89" y="191"/>
      <point x="93" y="189"/>
      <point x="94" y="183" type="curve" smooth="yes"/>
      <point x="103" y="131"/>
      <point x="163" y="30"/>
      <point x="249" y="30" type="curve" smooth="yes"/>
      <point x="285" y="30"/>
      <point x="342" y="47"/>
      <point x="342" y="124" type="curve" smooth="yes"/>
      <point x="342" y="199"/>
      <point x="249" y="249"/>
      <point x="201" y="282" type="curve" smooth="yes"/>
      <point x="131" y="329"/>
      <point x="61" y="368"/>
      <point x="61" y="468" type="curve" smooth="yes"/>
      <point x="61" y="567"/>
      <point x="166" y="641"/>
    </contour>
    <contour>
      <point x="288" y="668" type="line"/>
      <point x="296" y="668"/>
      <point x="327" y="667"/>
      <point x="327" y="660" type="curve"/>
      <point x="213" y="-40" type="line"/>
      <point x="204" y="-40"/>
      <point x="174" y="-38"/>
      <point x="174" y="-31" type="curve"/>
    </contour>
  </outline>
</glyph>
<glyph name="quotesingle" format="1">
  <advance width="181"/>
  <unicode hex="0027"/>
  <outline>
    <contour>
      <point x="106" y="711" type="curve" smooth="yes"/>
      <point x="122" y="711"/>
      <point x="137" y="704"/>
      <point x="144" y="689" type="curve"/>
      <point x="139" y="626"/>
      <point x="133" y="539"/>
      <point x="121" y="470" type="curve"/>
      <point x="117" y="464"/>
      <point x="106" y="455"/>
      <point x="95" y="451" type="curve"/>
      <point x="91" y="451"/>
      <point x="86" y="453"/>
      <point x="83" y="457" type="curve"/>
      <point x="61" y="515"/>
      <point x="33" y="580"/>
      <point x="33" y="627" type="curve" smooth="yes"/>
      <point x="33" y="671"/>
      <point x="64" y="711"/>
    </contour>
  </outline>
</glyph>
<glyph name="parenleft" format="1">
  <advance width="291"/>
  <unicode hex="0028"/>
  <outline>
    <contour>
      <point x="144" y="305" type="curve" smooth="yes"/>
      <point x="144" y="74"/>
      <point x="242" y="-76"/>
      <point x="281" y="-110" type="curve"/>
      <point x="282" y="-113"/>
      <point x="277" y="-134"/>
      <point x="272" y="-137" type="curve"/>
      <point x="197" y="-103"/>
      <point x="33" y="36"/>
      <point x="33" y="305" type="curve" smooth="yes"/>
      <point x="33" y="574"/>
      <point x="197" y="713"/>
      <point x="272" y="747" type="curve"/>
      <point x="277" y="744"/>
      <point x="282" y="723"/>
      <point x="281" y="720" type="curve"/>
      <point x="242" y="686"/>
      <point x="144" y="536"/>
    </contour>
  </outline>
</glyph>
<glyph name="parenright" format="1">
  <advance width="291"/>
  <unicode hex="0029"/>
  <outline>
    <contour>
      <point x="258" y="305" type="curve" smooth="yes"/>
      <point x="258" y="36"/>
      <point x="94" y="-103"/>
      <point x="19" y="-137" type="curve"/>
      <point x="14" y="-134"/>
      <point x="9" y="-113"/>
      <point x="10" y="-110" type="curve"/>
      <point x="49" y="-76"/>
      <point x="147" y="74"/>
      <point x="147" y="305" type="curve" smooth="yes"/>
      <point x="147" y="536"/>
      <point x="49" y="686"/>
      <point x="10" y="720" type="curve"/>
      <point x="9" y="723"/>
      <point x="14" y="744"/>
      <point x="19" y="747" type="curve"/>
      <point x="94" y="713"/>
      <point x="258" y="574"/>
    </contour>
  </outline>
</glyph>
<glyph name="plus" format="1">
  <advance width="542"/>
  <unicode hex="002B"/>
  <outline>
    <contour>
      <point x="241" y="474" type="line"/>
      <point x="252" y="483"/>
      <point x="279" y="485"/>
      <point x="283" y="485" type="curve" smooth="yes"/>
      <point x="293" y="485"/>
      <point x="299" y="483"/>
      <point x="299" y="476" type="curve" smooth="yes"/>
      <point x="298" y="275" type="line"/>
      <point x="502" y="275" type="line" smooth="yes"/>
      <point x="508" y="275"/>
      <point x="511" y="267"/>
      <point x="511" y="261" type="curve" smooth="yes"/>
      <point x="511" y="240"/>
      <point x="505" y="227"/>
      <point x="497" y="217" type="curve"/>
      <point x="299" y="217" type="line"/>
      <point x="299" y="19" type="line"/>
      <point x="287" y="11"/>
      <point x="262" y="8"/>
      <point x="252" y="8" type="curve" smooth="yes"/>
      <point x="246" y="8"/>
      <point x="241" y="12"/>
      <point x="241" y="16" type="curve" smooth="yes"/>
      <point x="241" y="217" type="line"/>
      <point x="37" y="217" type="line" smooth="yes"/>
      <point x="32" y="217"/>
      <point x="31" y="223"/>
      <point x="31" y="233" type="curve" smooth="yes"/>
      <point x="31" y="237"/>
      <point x="33" y="263"/>
      <point x="41" y="275" type="curve"/>
      <point x="240" y="275" type="line"/>
    </contour>
  </outline>
</glyph>
<glyph name="hyphen" format="1">
  <advance width="375"/>
  <unicode hex="002D"/>
  <outline>
    <contour>
      <point x="71" y="267" type="curve"/>
      <point x="71" y="267"/>
      <point x="279" y="278"/>
      <point x="312" y="279" type="curve" smooth="yes"/>
      <point x="316" y="279"/>
      <point x="319" y="278"/>
      <point x="319" y="270" type="curve" smooth="yes"/>
      <point x="319" y="253"/>
      <point x="312" y="227"/>
      <point x="304" y="210" type="curve"/>
      <point x="257" y="207"/>
      <point x="154" y="203"/>
      <point x="63" y="199" type="curve" smooth="yes"/>
      <point x="58" y="199"/>
      <point x="56" y="201"/>
      <point x="56" y="210" type="curve" smooth="yes"/>
      <point x="56" y="229"/>
      <point x="64" y="252"/>
    </contour>
  </outline>
</glyph>
<glyph name="slash" format="1">
  <advance width="422"/>
  <unicode hex="002F"/>
  <outline>
    <contour>
      <point x="374" y="761" type="curve" smooth="yes"/>
      <point x="388" y="761"/>
      <point x="392" y="757"/>
      <point x="393" y="753" type="curve"/>
      <point x="97" y="-14" type="line" smooth="yes"/>
      <point x="95" y="-21"/>
      <point x="82" y="-35"/>
      <point x="47" y="-35" type="curve" smooth="yes"/>
      <point x="32" y="-35"/>
      <point x="29" y="-28"/>
      <point x="29" y="-28" type="curve"/>
      <point x="325" y="739" type="line"/>
      <point x="329" y="747"/>
      <point x="344" y="761"/>
    </contour>
  </outline>
</glyph>
<glyph name="two" format="1">
  <advance width="492"/>
  <unicode hex="0032"/>
  <outline>
    <contour>
      <point x="462.5" y="192" type="curve"/>
      <point x="451.5" y="145"/>
      <point x="408.5" y="19"/>
      <point x="402.5" y="0" type="curve"/>
      <point x="38.5" y="0" type="line"/>
      <point x="33.5" y="5"/>
      <point x="30.5" y="13"/>
      <point x="29.5" y="18" type="curve"/>
      <point x="106.5" y="103"/>
      <point x="167.5" y="161"/>
      <point x="237.5" y="271" type="curve" smooth="yes"/>
      <point x="283.5" y="344"/>
      <point x="295.5" y="404"/>
      <point x="295.5" y="449" type="curve" smooth="yes"/>
      <point x="295.5" y="515"/>
      <point x="242.5" y="564"/>
      <point x="188.5" y="564" type="curve" smooth="yes"/>
      <point x="118.5" y="564"/>
      <point x="81.5" y="501"/>
      <point x="73.5" y="493" type="curve"/>
      <point x="68.5" y="493"/>
      <point x="52.5" y="502"/>
      <point x="52.5" y="517" type="curve"/>
      <point x="69.5" y="555"/>
      <point x="140.5" y="642"/>
      <point x="252.5" y="642" type="curve" smooth="yes"/>
      <point x="348.5" y="642"/>
      <point x="426.5" y="582"/>
      <point x="426.5" y="474" type="curve" smooth="yes"/>
      <point x="426.5" y="413"/>
      <point x="396.5" y="354"/>
      <point x="350.5" y="300" type="curve" smooth="yes"/>
      <point x="295.5" y="236"/>
      <point x="231.5" y="165"/>
      <point x="162.5" y="102" type="curve"/>
      <point x="334.5" y="102" type="line" smooth="yes"/>
      <point x="394.5" y="102"/>
      <point x="412.5" y="155"/>
      <point x="428.5" y="191" type="curve" smooth="yes"/>
      <point x="430.5" y="196"/>
      <point x="436.5" y="198"/>
      <point x="442.5" y="198" type="curve" smooth="yes"/>
      <point x="449.5" y="198"/>
      <point x="457.5" y="196"/>
    </contour>
  </outline>
</glyph>
<glyph name="three" format="1">
  <advance width="492"/>
  <unicode hex="0033"/>
  <outline>
    <contour>
      <point x="262" y="642" type="curve" smooth="yes"/>
      <point x="310" y="642"/>
      <point x="412" y="614"/>
      <point x="412" y="514" type="curve" smooth="yes"/>
      <point x="412" y="430"/>
      <point x="329" y="382"/>
      <point x="304" y="372" type="curve"/>
      <point x="336" y="370"/>
      <point x="453" y="340"/>
      <point x="453" y="220" type="curve" smooth="yes"/>
      <point x="453" y="79"/>
      <point x="314" y="-6"/>
      <point x="186" y="-6" type="curve" smooth="yes"/>
      <point x="121" y="-6"/>
      <point x="71" y="15"/>
      <point x="51" y="31" type="curve"/>
      <point x="44" y="40"/>
      <point x="39" y="64"/>
      <point x="39" y="74" type="curve" smooth="yes"/>
      <point x="39" y="98"/>
      <point x="57" y="127"/>
      <point x="91" y="127" type="curve" smooth="yes"/>
      <point x="118" y="127"/>
      <point x="139" y="99"/>
      <point x="155" y="80" type="curve" smooth="yes"/>
      <point x="173" y="59"/>
      <point x="200" y="36"/>
      <point x="226" y="36" type="curve" smooth="yes"/>
      <point x="288" y="36"/>
      <point x="320" y="88"/>
      <point x="320" y="178" type="curve" smooth="yes"/>
      <point x="320" y="253"/>
      <point x="278" y="322"/>
      <point x="211" y="322" type="curve" smooth="yes"/>
      <point x="205" y="322"/>
      <point x="182" y="320"/>
      <point x="156" y="313" type="curve"/>
      <point x="152" y="318"/>
      <point x="147" y="329"/>
      <point x="147" y="337" type="curve" smooth="yes"/>
      <point x="147" y="341"/>
      <point x="147" y="343"/>
      <point x="148" y="346" type="curve"/>
      <point x="205" y="356"/>
      <point x="295" y="387"/>
      <point x="295" y="458" type="curve" smooth="yes"/>
      <point x="295" y="519"/>
      <point x="261" y="568"/>
      <point x="201" y="568" type="curve" smooth="yes"/>
      <point x="147" y="568"/>
      <point x="99" y="524"/>
      <point x="92" y="516" type="curve"/>
      <point x="85" y="518"/>
      <point x="80" y="535"/>
      <point x="80" y="544" type="curve"/>
      <point x="117" y="593"/>
      <point x="182" y="642"/>
    </contour>
  </outline>
</glyph>
<glyph name="four" format="1">
  <advance width="492"/>
  <unicode hex="0034"/>
  <outline>
    <contour>
      <point x="385" y="644" type="curve" smooth="yes"/>
      <point x="391" y="644"/>
      <point x="412" y="628"/>
      <point x="412" y="616" type="curve" smooth="yes"/>
      <point x="412" y="242" type="line"/>
      <point x="457" y="242" type="line" smooth="yes"/>
      <point x="464" y="242"/>
      <point x="471" y="224"/>
      <point x="471" y="195" type="curve" smooth="yes"/>
      <point x="471" y="180"/>
      <point x="462" y="174"/>
      <point x="462" y="174" type="curve"/>
      <point x="412" y="174" type="line"/>
      <point x="412" y="4" type="line"/>
      <point x="412" y="4"/>
      <point x="386" y="-5"/>
      <point x="344" y="-5" type="curve" smooth="yes"/>
      <point x="310" y="-5"/>
      <point x="286" y="-1"/>
      <point x="286" y="8" type="curve" smooth="yes"/>
      <point x="286" y="174" type="line"/>
      <point x="32" y="174" type="line"/>
      <point x="24" y="178"/>
      <point x="21" y="186"/>
      <point x="21" y="199" type="curve"/>
      <point x="141" y="348"/>
      <point x="259" y="498"/>
      <point x="365" y="630" type="curve" smooth="yes"/>
      <point x="372" y="638"/>
      <point x="377" y="644"/>
    </contour>
    <contour>
      <point x="286" y="466" type="line"/>
      <point x="251" y="421"/>
      <point x="126" y="262"/>
      <point x="107" y="242" type="curve"/>
      <point x="100" y="242"/>
      <point x="236" y="242"/>
      <point x="286" y="242" type="curve"/>
    </contour>
  </outline>
</glyph>
<glyph name="five" format="1">
  <advance width="492"/>
  <unicode hex="0035"/>
  <outline>
    <contour>
      <point x="250.5" y="423" type="curve" smooth="yes"/>
      <point x="348.5" y="423"/>
      <point x="450.5" y="335"/>
      <point x="450.5" y="230" type="curve" smooth="yes"/>
      <point x="450.5" y="89"/>
      <point x="316.5" y="-6"/>
      <point x="188.5" y="-6" type="curve" smooth="yes"/>
      <point x="123.5" y="-6"/>
      <point x="73.5" y="15"/>
      <point x="53.5" y="31" type="curve"/>
      <point x="46.5" y="40"/>
      <point x="41.5" y="64"/>
      <point x="41.5" y="74" type="curve" smooth="yes"/>
      <point x="41.5" y="98"/>
      <point x="59.5" y="127"/>
      <point x="93.5" y="127" type="curve" smooth="yes"/>
      <point x="120.5" y="127"/>
      <point x="141.5" y="99"/>
      <point x="157.5" y="80" type="curve" smooth="yes"/>
      <point x="175.5" y="59"/>
      <point x="202.5" y="36"/>
      <point x="228.5" y="36" type="curve" smooth="yes"/>
      <point x="290.5" y="36"/>
      <point x="322.5" y="88"/>
      <point x="322.5" y="178" type="curve" smooth="yes"/>
      <point x="322.5" y="269"/>
      <point x="241.5" y="328"/>
      <point x="184.5" y="328" type="curve" smooth="yes"/>
      <point x="121.5" y="328"/>
      <point x="102.5" y="318"/>
      <point x="92.5" y="314" type="curve"/>
      <point x="86.5" y="314"/>
      <point x="82.5" y="328"/>
      <point x="82.5" y="334" type="curve"/>
      <point x="83.5" y="337"/>
      <point x="130.5" y="585"/>
      <point x="138.5" y="635" type="curve"/>
      <point x="181.5" y="635"/>
      <point x="252.5" y="635"/>
      <point x="316.5" y="635" type="curve" smooth="yes"/>
      <point x="358.5" y="635"/>
      <point x="394.5" y="643"/>
      <point x="408.5" y="646" type="curve"/>
      <point x="413.5" y="644"/>
      <point x="421.5" y="643"/>
      <point x="421.5" y="632" type="curve" smooth="yes"/>
      <point x="421.5" y="615"/>
      <point x="391.5" y="549"/>
      <point x="384.5" y="536" type="curve"/>
      <point x="332.5" y="531"/>
      <point x="277.5" y="529"/>
      <point x="234.5" y="528" type="curve" smooth="yes"/>
      <point x="202.5" y="527"/>
      <point x="177.5" y="527"/>
      <point x="167.5" y="527" type="curve"/>
      <point x="165.5" y="517"/>
      <point x="144.5" y="410"/>
      <point x="144.5" y="410" type="curve"/>
      <point x="169.5" y="416"/>
      <point x="213.5" y="423"/>
    </contour>
  </outline>
</glyph>
<glyph name="seven" format="1">
  <advance width="492"/>
  <unicode hex="0037"/>
  <outline>
    <contour>
      <point x="363.5" y="637" type="curve" smooth="yes"/>
      <point x="398.5" y="637"/>
      <point x="447.5" y="641"/>
      <point x="453.5" y="641" type="curve" smooth="yes"/>
      <point x="459.5" y="641"/>
      <point x="460.5" y="631"/>
      <point x="460.5" y="626" type="curve" smooth="yes"/>
      <point x="460.5" y="617"/>
      <point x="449.5" y="598"/>
      <point x="433.5" y="565" type="curve" smooth="yes"/>
      <point x="161.5" y="-8" type="line"/>
      <point x="157.5" y="-11"/>
      <point x="146.5" y="-11"/>
      <point x="144.5" y="-11" type="curve" smooth="yes"/>
      <point x="137.5" y="-11"/>
      <point x="100.5" y="-6"/>
      <point x="100.5" y="13" type="curve"/>
      <point x="142.5" y="73"/>
      <point x="286.5" y="344"/>
      <point x="377.5" y="536" type="curve"/>
      <point x="146.5" y="536" type="line" smooth="yes"/>
      <point x="96.5" y="536"/>
      <point x="80.5" y="490"/>
      <point x="67.5" y="452" type="curve" smooth="yes"/>
      <point x="66.5" y="449"/>
      <point x="65.5" y="447"/>
      <point x="55.5" y="446" type="curve" smooth="yes"/>
      <point x="45.5" y="445"/>
      <point x="35.5" y="450"/>
      <point x="31.5" y="454" type="curve"/>
      <point x="44.5" y="503"/>
      <point x="68.5" y="605"/>
      <point x="75.5" y="636" type="curve"/>
      <point x="91.5" y="636"/>
      <point x="363.5" y="637"/>
    </contour>
  </outline>
</glyph>
<glyph name="nine" format="1">
  <advance width="492"/>
  <unicode hex="0039"/>
  <outline>
    <contour>
      <point x="315.5" y="312" type="curve"/>
      <point x="321.5" y="341"/>
      <point x="322.5" y="386"/>
      <point x="322.5" y="418" type="curve" smooth="yes"/>
      <point x="322.5" y="502"/>
      <point x="302.5" y="603"/>
      <point x="238.5" y="603" type="curve" smooth="yes"/>
      <point x="199.5" y="603"/>
      <point x="169.5" y="547"/>
      <point x="169.5" y="457" type="curve" smooth="yes"/>
      <point x="169.5" y="372"/>
      <point x="194.5" y="293"/>
      <point x="265.5" y="293" type="curve" smooth="yes"/>
      <point x="277.5" y="293"/>
      <point x="301.5" y="298"/>
    </contour>
    <contour>
      <point x="74.5" y="20" type="curve"/>
      <point x="200.5" y="72"/>
      <point x="271.5" y="158"/>
      <point x="303.5" y="259" type="curve"/>
      <point x="277.5" y="244"/>
      <point x="246.5" y="234"/>
      <point x="221.5" y="234" type="curve" smooth="yes"/>
      <point x="124.5" y="234"/>
      <point x="38.5" y="287"/>
      <point x="38.5" y="432" type="curve" smooth="yes"/>
      <point x="38.5" y="549"/>
      <point x="143.5" y="645"/>
      <point x="249.5" y="645" type="curve" smooth="yes"/>
      <point x="361.5" y="645"/>
      <point x="453.5" y="527"/>
      <point x="453.5" y="397" type="curve" smooth="yes"/>
      <point x="453.5" y="286"/>
      <point x="396.5" y="190"/>
      <point x="337.5" y="128" type="curve" smooth="yes"/>
      <point x="251.5" y="37"/>
      <point x="149.5" y="3"/>
      <point x="81.5" y="-6" type="curve"/>
      <point x="73.5" y="0"/>
      <point x="72.5" y="10"/>
    </contour>
  </outline>
</glyph>
<glyph name="colon" format="1">
  <advance width="262"/>
  <unicode hex="003A"/>
  <outline>
    <contour>
      <point x="56" y="358" type="curve" smooth="yes"/>
      <point x="56" y="398"/>
      <point x="90" y="431"/>
      <point x="131" y="431" type="curve" smooth="yes"/>
      <point x="173" y="431"/>
      <point x="206" y="395"/>
      <point x="206" y="355" type="curve" smooth="yes"/>
      <point x="206" y="315"/>
      <point x="173" y="281"/>
      <point x="132" y="281" type="curve" smooth="yes"/>
      <point x="90" y="281"/>
      <point x="56" y="315"/>
    </contour>
    <contour>
      <point x="56" y="66" type="curve" smooth="yes"/>
      <point x="56" y="106"/>
      <point x="90" y="139"/>
      <point x="131" y="139" type="curve" smooth="yes"/>
      <point x="173" y="139"/>
      <point x="206" y="103"/>
      <point x="206" y="63" type="curve" smooth="yes"/>
      <point x="206" y="23"/>
      <point x="173" y="-11"/>
      <point x="132" y="-11" type="curve" smooth="yes"/>
      <point x="90" y="-11"/>
      <point x="56" y="23"/>
    </contour>
  </outline>
</glyph>
<glyph name="semicolon" format="1">
  <advance width="254"/>
  <unicode hex="003B"/>
  <outline>
    <contour>
      <point x="139" y="139" type="curve" smooth="yes"/>
      <point x="156" y="139"/>
      <point x="172" y="131"/>
      <point x="183" y="123" type="curve"/>
      <point x="191" y="108"/>
      <point x="197" y="82"/>
      <point x="197" y="58" type="curve" smooth="yes"/>
      <point x="197" y="-37"/>
      <point x="130" y="-122"/>
      <point x="60" y="-157" type="curve"/>
      <point x="49" y="-154"/>
      <point x="39" y="-139"/>
      <point x="39" y="-133" type="curve"/>
      <point x="58" y="-121"/>
      <point x="110" y="-76"/>
      <point x="110" y="-27" type="curve" smooth="yes"/>
      <point x="110" y="6"/>
      <point x="62" y="3"/>
      <point x="62" y="68" type="curve" smooth="yes"/>
      <point x="62" y="84"/>
      <point x="77" y="139"/>
    </contour>
    <contour>
      <point x="49" y="359" type="curve" smooth="yes"/>
      <point x="49" y="399"/>
      <point x="84" y="432"/>
      <point x="125" y="432" type="curve" smooth="yes"/>
      <point x="165" y="432"/>
      <point x="196" y="399"/>
      <point x="196" y="359" type="curve" smooth="yes"/>
      <point x="196" y="319"/>
      <point x="166" y="281"/>
      <point x="125" y="281" type="curve" smooth="yes"/>
      <point x="83" y="281"/>
      <point x="49" y="319"/>
    </contour>
  </outline>
</glyph>
<glyph name="equal" format="1">
  <advance width="559"/>
  <unicode hex="003D"/>
  <outline>
    <contour>
      <point x="477" y="134" type="curve"/>
      <point x="316" y="134"/>
      <point x="243" y="134"/>
      <point x="71" y="134" type="curve"/>
      <point x="59" y="134"/>
      <point x="73" y="188"/>
      <point x="87" y="193" type="curve"/>
      <point x="490" y="193" type="line"/>
      <point x="504" y="193"/>
      <point x="491" y="141"/>
    </contour>
    <contour>
      <point x="477" y="278" type="curve"/>
      <point x="316" y="278"/>
      <point x="243" y="278"/>
      <point x="71" y="278" type="curve"/>
      <point x="59" y="278"/>
      <point x="73" y="332"/>
      <point x="87" y="337" type="curve"/>
      <point x="490" y="337" type="line"/>
      <point x="504" y="337"/>
      <point x="491" y="285"/>
    </contour>
  </outline>
</glyph>
<glyph name="at" format="1">
  <advance width="767"/>
  <unicode hex="0040"/>
  <outline>
    <contour>
      <point x="446" y="578" type="curve" smooth="yes"/>
      <point x="642" y="578"/>
      <point x="732" y="446"/>
      <point x="732" y="290" type="curve" smooth="yes"/>
      <point x="732" y="137"/>
      <point x="628" y="-7"/>
      <point x="511" y="-7" type="curve" smooth="yes"/>
      <point x="462" y="-7"/>
      <point x="413" y="18"/>
      <point x="413" y="79" type="curve" smooth="yes"/>
      <point x="413" y="87"/>
      <point x="414" y="100"/>
      <point x="417" y="108" type="curve"/>
      <point x="398" y="71"/>
      <point x="336" y="-5"/>
      <point x="275" y="-5" type="curve" smooth="yes"/>
      <point x="224" y="-5"/>
      <point x="178" y="16"/>
      <point x="178" y="120" type="curve" smooth="yes"/>
      <point x="178" y="266"/>
      <point x="343" y="443"/>
      <point x="485" y="443" type="curve" smooth="yes"/>
      <point x="520" y="443"/>
      <point x="575" y="437"/>
      <point x="594" y="430" type="curve"/>
      <point x="538" y="127" type="line" smooth="yes"/>
      <point x="537" y="123"/>
      <point x="535" y="107"/>
      <point x="535" y="102" type="curve" smooth="yes"/>
      <point x="535" y="88"/>
      <point x="531" y="55"/>
      <point x="558" y="55" type="curve" smooth="yes"/>
      <point x="608" y="55"/>
      <point x="688" y="158"/>
      <point x="688" y="283" type="curve" smooth="yes"/>
      <point x="688" y="418"/>
      <point x="620" y="538"/>
      <point x="446" y="538" type="curve" smooth="yes"/>
      <point x="242" y="538"/>
      <point x="94" y="344"/>
      <point x="94" y="170" type="curve" smooth="yes"/>
      <point x="94" y="53"/>
      <point x="157" y="-35"/>
      <point x="229" y="-77" type="curve" smooth="yes"/>
      <point x="265" y="-98"/>
      <point x="287" y="-101"/>
      <point x="306" y="-104" type="curve"/>
      <point x="306" y="-112"/>
      <point x="282" y="-124"/>
      <point x="266" y="-124" type="curve" smooth="yes"/>
      <point x="249" y="-124"/>
      <point x="234" y="-120"/>
      <point x="221" y="-115" type="curve" smooth="yes"/>
      <point x="129" y="-81"/>
      <point x="46" y="24"/>
      <point x="46" y="165" type="curve" smooth="yes"/>
      <point x="46" y="361"/>
      <point x="214" y="578"/>
    </contour>
    <contour>
      <point x="443" y="389" type="curve" smooth="yes"/>
      <point x="360" y="389"/>
      <point x="301" y="263"/>
      <point x="301" y="148" type="curve" smooth="yes"/>
      <point x="301" y="111"/>
      <point x="318" y="94"/>
      <point x="341" y="94" type="curve" smooth="yes"/>
      <point x="383" y="94"/>
      <point x="427" y="164"/>
      <point x="449" y="274" type="curve" smooth="yes"/>
      <point x="469" y="376" type="line"/>
      <point x="460" y="386"/>
      <point x="456" y="389"/>
    </contour>
  </outline>
</glyph>
<glyph name="A" format="1">
  <advance width="675"/>
  <unicode hex="0041"/>
  <outline>
    <contour>
      <point x="94" y="134" type="curve" smooth="yes"/>
      <point x="307" y="624" type="line" smooth="yes"/>
      <point x="313" y="637"/>
      <point x="333" y="662"/>
      <point x="344" y="662" type="curve" smooth="yes"/>
      <point x="353" y="662"/>
      <point x="363" y="658"/>
      <point x="365" y="655" type="curve"/>
      <point x="570" y="148" type="line" smooth="yes"/>
      <point x="583" y="117"/>
      <point x="589" y="97"/>
      <point x="598" y="76" type="curve" smooth="yes"/>
      <point x="615" y="35"/>
      <point x="669" y="33"/>
      <point x="677" y="33" type="curve"/>
      <point x="682" y="24"/>
      <point x="683" y="0"/>
      <point x="679" y="-4" type="curve"/>
      <point x="639" y="-2"/>
      <point x="589" y="4"/>
      <point x="545" y="4" type="curve" smooth="yes"/>
      <point x="499" y="4"/>
      <point x="430" y="-2"/>
      <point x="394" y="-4" type="curve"/>
      <point x="389" y="1"/>
      <point x="389" y="33"/>
      <point x="394" y="33" type="curve"/>
      <point x="411" y="33"/>
      <point x="439" y="39"/>
      <point x="453" y="51" type="curve" smooth="yes"/>
      <point x="459" y="56"/>
      <point x="462" y="61"/>
      <point x="462" y="68" type="curve" smooth="yes"/>
      <point x="462" y="77"/>
      <point x="402" y="220"/>
      <point x="402" y="220" type="curve"/>
      <point x="402" y="220"/>
      <point x="398" y="224"/>
      <point x="395" y="224" type="curve" smooth="yes"/>
      <point x="357" y="226"/>
      <point x="324" y="225"/>
      <point x="299" y="225" type="curve" smooth="yes"/>
      <point x="258" y="225"/>
      <point x="230" y="225"/>
      <point x="195" y="224" type="curve" smooth="yes"/>
      <point x="192" y="224"/>
      <point x="189" y="221"/>
      <point x="188" y="219" type="curve"/>
      <point x="188" y="219"/>
      <point x="163" y="163"/>
      <point x="152" y="135" type="curve" smooth="yes"/>
      <point x="142" y="110"/>
      <point x="130" y="74"/>
      <point x="130" y="67" type="curve" smooth="yes"/>
      <point x="130" y="41"/>
      <point x="199" y="33"/>
      <point x="207" y="33" type="curve"/>
      <point x="213" y="26"/>
      <point x="211" y="0"/>
      <point x="208" y="-4" type="curve"/>
      <point x="173" y="0"/>
      <point x="144" y="4"/>
      <point x="100" y="4" type="curve" smooth="yes"/>
      <point x="54" y="4"/>
      <point x="26" y="0"/>
      <point x="-9" y="-4" type="curve"/>
      <point x="-13" y="0"/>
      <point x="-15" y="21"/>
      <point x="-11" y="32" type="curve"/>
      <point x="1" y="32"/>
      <point x="49" y="48"/>
      <point x="59" y="64" type="curve" smooth="yes"/>
      <point x="76" y="92"/>
      <point x="82" y="106"/>
    </contour>
    <contour>
      <point x="295" y="476" type="line"/>
      <point x="210" y="280" type="line"/>
      <point x="210" y="280"/>
      <point x="210" y="276"/>
      <point x="212" y="276" type="curve" smooth="yes"/>
      <point x="232" y="274"/>
      <point x="272" y="273"/>
      <point x="295" y="273" type="curve" smooth="yes"/>
      <point x="326" y="273"/>
      <point x="344" y="273"/>
      <point x="375" y="275" type="curve" smooth="yes"/>
      <point x="377" y="275"/>
      <point x="378" y="280"/>
      <point x="378" y="280" type="curve"/>
    </contour>
  </outline>
</glyph>
<glyph name="C" format="1">
  <advance width="674"/>
  <unicode hex="0043"/>
  <outline>
    <contour>
      <point x="386" y="667" type="curve" smooth="yes"/>
      <point x="452" y="667"/>
      <point x="535" y="660"/>
      <point x="594" y="648" type="curve"/>
      <point x="596" y="637"/>
      <point x="628" y="509"/>
      <point x="628" y="497" type="curve" smooth="yes"/>
      <point x="628" y="491"/>
      <point x="614" y="482"/>
      <point x="602" y="482" type="curve" smooth="yes"/>
      <point x="597" y="482"/>
      <point x="592" y="482"/>
      <point x="588" y="486" type="curve"/>
      <point x="578" y="525"/>
      <point x="536" y="624"/>
      <point x="395" y="624" type="curve" smooth="yes"/>
      <point x="254" y="624"/>
      <point x="200" y="492"/>
      <point x="200" y="352" type="curve" smooth="yes"/>
      <point x="200" y="196"/>
      <point x="264" y="37"/>
      <point x="415" y="37" type="curve" smooth="yes"/>
      <point x="475" y="37"/>
      <point x="512" y="55"/>
      <point x="539" y="80" type="curve" smooth="yes"/>
      <point x="581" y="118"/>
      <point x="607" y="196"/>
      <point x="609" y="204" type="curve"/>
      <point x="624" y="204"/>
      <point x="636" y="199"/>
      <point x="644" y="192" type="curve"/>
      <point x="644" y="181"/>
      <point x="618" y="46"/>
      <point x="603" y="40" type="curve" smooth="yes"/>
      <point x="540" y="17"/>
      <point x="476" y="-7"/>
      <point x="384" y="-7" type="curve" smooth="yes"/>
      <point x="196" y="-7"/>
      <point x="40" y="133"/>
      <point x="40" y="322" type="curve" smooth="yes"/>
      <point x="40" y="515"/>
      <point x="196" y="667"/>
    </contour>
  </outline>
</glyph>
<glyph name="D" format="1">
  <advance width="761"/>
  <unicode hex="0044"/>
  <outline>
    <contour>
      <point x="250" y="547" type="curve" smooth="yes"/>
      <point x="250" y="141" type="line" smooth="yes"/>
      <point x="250" y="135"/>
      <point x="250" y="82"/>
      <point x="258" y="62" type="curve" smooth="yes"/>
      <point x="264" y="48"/>
      <point x="295" y="39"/>
      <point x="321" y="39" type="curve" smooth="yes"/>
      <point x="484" y="39"/>
      <point x="559" y="130"/>
      <point x="559" y="325" type="curve" smooth="yes"/>
      <point x="559" y="521"/>
      <point x="453" y="620"/>
      <point x="305" y="620" type="curve" smooth="yes"/>
      <point x="282" y="620"/>
      <point x="260" y="619"/>
      <point x="255" y="608" type="curve" smooth="yes"/>
      <point x="250" y="596"/>
      <point x="250" y="576"/>
    </contour>
    <contour>
      <point x="334" y="660" type="curve" smooth="yes"/>
      <point x="565" y="660"/>
      <point x="718" y="541"/>
      <point x="718" y="336" type="curve" smooth="yes"/>
      <point x="718" y="102"/>
      <point x="543" y="-3"/>
      <point x="327" y="-3" type="curve" smooth="yes"/>
      <point x="285" y="-3"/>
      <point x="77" y="-2"/>
      <point x="38" y="-3" type="curve"/>
      <point x="34" y="3"/>
      <point x="33" y="27"/>
      <point x="38" y="34" type="curve"/>
      <point x="51" y="35"/>
      <point x="97" y="38"/>
      <point x="102" y="51" type="curve" smooth="yes"/>
      <point x="110" y="71"/>
      <point x="110" y="102"/>
      <point x="110" y="145" type="curve" smooth="yes"/>
      <point x="110" y="513" type="line" smooth="yes"/>
      <point x="110" y="556"/>
      <point x="110" y="587"/>
      <point x="102" y="607" type="curve" smooth="yes"/>
      <point x="97" y="620"/>
      <point x="51" y="622"/>
      <point x="38" y="623" type="curve"/>
      <point x="33" y="630"/>
      <point x="34" y="654"/>
      <point x="38" y="660" type="curve"/>
      <point x="83" y="657"/>
      <point x="139" y="657"/>
      <point x="181" y="657" type="curve" smooth="yes"/>
      <point x="223" y="657"/>
      <point x="275" y="659"/>
    </contour>
  </outline>
</glyph>
<glyph name="I" format="1">
  <advance width="360"/>
  <unicode hex="0049"/>
  <outline>
    <contour>
      <point x="181" y="655" type="curve" smooth="yes"/>
      <point x="223" y="655"/>
      <point x="283" y="658"/>
      <point x="322" y="662" type="curve"/>
      <point x="326" y="656"/>
      <point x="327" y="632"/>
      <point x="322" y="625" type="curve"/>
      <point x="309" y="624"/>
      <point x="263" y="620"/>
      <point x="258" y="607" type="curve" smooth="yes"/>
      <point x="250" y="587"/>
      <point x="250" y="556"/>
      <point x="250" y="513" type="curve" smooth="yes"/>
      <point x="250" y="145" type="line" smooth="yes"/>
      <point x="250" y="102"/>
      <point x="250" y="71"/>
      <point x="258" y="51" type="curve" smooth="yes"/>
      <point x="263" y="38"/>
      <point x="309" y="34"/>
      <point x="322" y="33" type="curve"/>
      <point x="327" y="26"/>
      <point x="326" y="2"/>
      <point x="322" y="-4" type="curve"/>
      <point x="283" y="0"/>
      <point x="221" y="3"/>
      <point x="179" y="3" type="curve" smooth="yes"/>
      <point x="137" y="3"/>
      <point x="77" y="0"/>
      <point x="38" y="-4" type="curve"/>
      <point x="34" y="2"/>
      <point x="33" y="26"/>
      <point x="38" y="33" type="curve"/>
      <point x="51" y="34"/>
      <point x="97" y="38"/>
      <point x="102" y="51" type="curve" smooth="yes"/>
      <point x="110" y="71"/>
      <point x="110" y="102"/>
      <point x="110" y="145" type="curve" smooth="yes"/>
      <point x="110" y="513" type="line" smooth="yes"/>
      <point x="110" y="556"/>
      <point x="110" y="587"/>
      <point x="102" y="607" type="curve" smooth="yes"/>
      <point x="97" y="620"/>
      <point x="51" y="624"/>
      <point x="38" y="625" type="curve"/>
      <point x="33" y="632"/>
      <point x="34" y="656"/>
      <point x="38" y="662" type="curve"/>
      <point x="77" y="658"/>
      <point x="139" y="655"/>
    </contour>
  </outline>
</glyph>
<glyph name="J" format="1">
  <advance width="345"/>
  <unicode hex="004A"/>
  <outline>
    <contour>
      <point x="175" y="655" type="curve" smooth="yes"/>
      <point x="217" y="655"/>
      <point x="277" y="658"/>
      <point x="316" y="662" type="curve"/>
      <point x="320" y="656"/>
      <point x="321" y="632"/>
      <point x="316" y="625" type="curve"/>
      <point x="303" y="624"/>
      <point x="257" y="620"/>
      <point x="252" y="607" type="curve" smooth="yes"/>
      <point x="244" y="587"/>
      <point x="244" y="556"/>
      <point x="244" y="513" type="curve" smooth="yes"/>
      <point x="244" y="143" type="line" smooth="yes"/>
      <point x="244" y="-85"/>
      <point x="130" y="-218"/>
      <point x="-52" y="-218" type="curve" smooth="yes"/>
      <point x="-71" y="-218"/>
      <point x="-100" y="-207"/>
      <point x="-109" y="-200" type="curve"/>
      <point x="-116" y="-189"/>
      <point x="-125" y="-178"/>
      <point x="-125" y="-157" type="curve" smooth="yes"/>
      <point x="-125" y="-123"/>
      <point x="-97" y="-90"/>
      <point x="-65" y="-90" type="curve" smooth="yes"/>
      <point x="-43" y="-90"/>
      <point x="-24" y="-106"/>
      <point x="-8" y="-123" type="curve" smooth="yes"/>
      <point x="9" y="-140"/>
      <point x="23" y="-157"/>
      <point x="39" y="-157" type="curve" smooth="yes"/>
      <point x="102" y="-157"/>
      <point x="104" y="-31"/>
      <point x="104" y="135" type="curve" smooth="yes"/>
      <point x="104" y="513" type="line" smooth="yes"/>
      <point x="104" y="556"/>
      <point x="104" y="587"/>
      <point x="96" y="607" type="curve" smooth="yes"/>
      <point x="91" y="620"/>
      <point x="45" y="624"/>
      <point x="32" y="625" type="curve"/>
      <point x="27" y="632"/>
      <point x="28" y="656"/>
      <point x="32" y="662" type="curve"/>
      <point x="71" y="658"/>
      <point x="133" y="655"/>
    </contour>
  </outline>
</glyph>
<glyph name="K" format="1">
  <advance width="719"/>
  <unicode hex="004B"/>
  <outline>
    <contour>
      <point x="181" y="655" type="curve" smooth="yes"/>
      <point x="223" y="655"/>
      <point x="283" y="658"/>
      <point x="322" y="662" type="curve"/>
      <point x="326" y="656"/>
      <point x="327" y="632"/>
      <point x="322" y="625" type="curve"/>
      <point x="309" y="624"/>
      <point x="263" y="620"/>
      <point x="258" y="607" type="curve" smooth="yes"/>
      <point x="250" y="587"/>
      <point x="250" y="556"/>
      <point x="250" y="513" type="curve" smooth="yes"/>
      <point x="250" y="337" type="line"/>
      <point x="294" y="372"/>
      <point x="330" y="403"/>
      <point x="354" y="428" type="curve" smooth="yes"/>
      <point x="414" y="489"/>
      <point x="442" y="514"/>
      <point x="484" y="570" type="curve" smooth="yes"/>
      <point x="494" y="583"/>
      <point x="494" y="596"/>
      <point x="494" y="603" type="curve" smooth="yes"/>
      <point x="494" y="624"/>
      <point x="452" y="626"/>
      <point x="438" y="626" type="curve"/>
      <point x="433" y="634"/>
      <point x="433" y="653"/>
      <point x="436" y="662" type="curve"/>
      <point x="473" y="660"/>
      <point x="529" y="655"/>
      <point x="566" y="655" type="curve" smooth="yes"/>
      <point x="610" y="655"/>
      <point x="653" y="658"/>
      <point x="690" y="662" type="curve"/>
      <point x="693" y="655"/>
      <point x="693" y="633"/>
      <point x="688" y="627" type="curve"/>
      <point x="679" y="626"/>
      <point x="611" y="619"/>
      <point x="575" y="583" type="curve" smooth="yes"/>
      <point x="575" y="583"/>
      <point x="462" y="468"/>
      <point x="387" y="389" type="curve" smooth="yes"/>
      <point x="381" y="382"/>
      <point x="381" y="378"/>
      <point x="384" y="373" type="curve" smooth="yes"/>
      <point x="457" y="275"/>
      <point x="564" y="130"/>
      <point x="564" y="130" type="curve"/>
      <point x="638" y="36"/>
      <point x="722" y="33"/>
      <point x="730" y="33" type="curve"/>
      <point x="735" y="26"/>
      <point x="731" y="-2"/>
      <point x="730" y="-4" type="curve"/>
      <point x="701" y="-6"/>
      <point x="640" y="-8"/>
      <point x="599" y="-8" type="curve" smooth="yes"/>
      <point x="522" y="-8"/>
      <point x="471" y="33"/>
      <point x="446" y="67" type="curve" smooth="yes"/>
      <point x="420" y="103"/>
      <point x="314" y="243"/>
      <point x="270" y="302" type="curve" smooth="yes"/>
      <point x="267" y="305"/>
      <point x="262" y="306"/>
      <point x="260" y="306" type="curve" smooth="yes"/>
      <point x="256" y="306"/>
      <point x="252" y="304"/>
      <point x="250" y="300" type="curve"/>
      <point x="250" y="145" type="line" smooth="yes"/>
      <point x="250" y="102"/>
      <point x="250" y="71"/>
      <point x="258" y="51" type="curve" smooth="yes"/>
      <point x="263" y="38"/>
      <point x="309" y="34"/>
      <point x="322" y="33" type="curve"/>
      <point x="327" y="26"/>
      <point x="326" y="2"/>
      <point x="322" y="-4" type="curve"/>
      <point x="283" y="0"/>
      <point x="221" y="3"/>
      <point x="179" y="3" type="curve" smooth="yes"/>
      <point x="137" y="3"/>
      <point x="77" y="0"/>
      <point x="38" y="-4" type="curve"/>
      <point x="34" y="2"/>
      <point x="33" y="26"/>
      <point x="38" y="33" type="curve"/>
      <point x="51" y="34"/>
      <point x="97" y="38"/>
      <point x="102" y="51" type="curve" smooth="yes"/>
      <point x="110" y="71"/>
      <point x="110" y="102"/>
      <point x="110" y="145" type="curve" smooth="yes"/>
      <point x="110" y="513" type="line" smooth="yes"/>
      <point x="110" y="556"/>
      <point x="110" y="587"/>
      <point x="102" y="607" type="curve" smooth="yes"/>
      <point x="97" y="620"/>
      <point x="51" y="624"/>
      <point x="38" y="625" type="curve"/>
      <point x="33" y="632"/>
      <point x="34" y="656"/>
      <point x="38" y="662" type="curve"/>
      <point x="77" y="658"/>
      <point x="139" y="655"/>
    </contour>
  </outline>
</glyph>
<glyph name="L" format="1">
  <advance width="579"/>
  <unicode hex="004C"/>
  <outline>
    <contour>
      <point x="250" y="141" type="line" smooth="yes"/>
      <point x="250" y="135"/>
      <point x="250" y="82"/>
      <point x="258" y="62" type="curve" smooth="yes"/>
      <point x="264" y="48"/>
      <point x="297" y="42"/>
      <point x="323" y="42" type="curve" smooth="yes"/>
      <point x="389" y="42" type="line" smooth="yes"/>
      <point x="427" y="42"/>
      <point x="459" y="52"/>
      <point x="482" y="75" type="curve" smooth="yes"/>
      <point x="503" y="96"/>
      <point x="519" y="125"/>
      <point x="536" y="170" type="curve" smooth="yes"/>
      <point x="537" y="174"/>
      <point x="543" y="176"/>
      <point x="550" y="176" type="curve" smooth="yes"/>
      <point x="560" y="176"/>
      <point x="577" y="173"/>
      <point x="580" y="170" type="curve"/>
      <point x="561" y="116"/>
      <point x="533" y="42"/>
      <point x="526" y="-2" type="curve"/>
      <point x="499" y="-2"/>
      <point x="316" y="-2"/>
      <point x="181" y="-2" type="curve" smooth="yes"/>
      <point x="110" y="-2"/>
      <point x="52" y="-3"/>
      <point x="38" y="-3" type="curve"/>
      <point x="34" y="3"/>
      <point x="33" y="27"/>
      <point x="38" y="34" type="curve"/>
      <point x="51" y="35"/>
      <point x="97" y="38"/>
      <point x="102" y="51" type="curve" smooth="yes"/>
      <point x="110" y="71"/>
      <point x="110" y="102"/>
      <point x="110" y="145" type="curve" smooth="yes"/>
      <point x="110" y="513" type="line" smooth="yes"/>
      <point x="110" y="556"/>
      <point x="110" y="587"/>
      <point x="102" y="607" type="curve" smooth="yes"/>
      <point x="97" y="620"/>
      <point x="51" y="624"/>
      <point x="38" y="625" type="curve"/>
      <point x="33" y="632"/>
      <point x="34" y="656"/>
      <point x="38" y="662" type="curve"/>
      <point x="77" y="658"/>
      <point x="139" y="655"/>
      <point x="181" y="655" type="curve" smooth="yes"/>
      <point x="223" y="655"/>
      <point x="283" y="658"/>
      <point x="322" y="662" type="curve"/>
      <point x="326" y="656"/>
      <point x="327" y="632"/>
      <point x="322" y="625" type="curve"/>
      <point x="309" y="624"/>
      <point x="263" y="620"/>
      <point x="258" y="607" type="curve" smooth="yes"/>
      <point x="250" y="587"/>
      <point x="250" y="556"/>
      <point x="250" y="513" type="curve" smooth="yes"/>
    </contour>
  </outline>
</glyph>
<glyph name="M" format="1">
  <advance width="907"/>
  <unicode hex="004D"/>
  <outline>
    <contour>
      <point x="171" y="656" type="curve" smooth="yes"/>
      <point x="205" y="656"/>
      <point x="236" y="660"/>
      <point x="276" y="662" type="curve"/>
      <point x="305" y="598"/>
      <point x="390" y="408"/>
      <point x="465" y="238" type="curve"/>
      <point x="465" y="238"/>
      <point x="468" y="236"/>
      <point x="469" y="236" type="curve" smooth="yes"/>
      <point x="470" y="236"/>
      <point x="473" y="241"/>
      <point x="473" y="242" type="curve" smooth="yes"/>
      <point x="473" y="242"/>
      <point x="548" y="426"/>
      <point x="591" y="546" type="curve" smooth="yes"/>
      <point x="607" y="589"/>
      <point x="624" y="658"/>
      <point x="624" y="658" type="curve"/>
      <point x="633" y="657"/>
      <point x="713" y="655"/>
      <point x="732" y="655" type="curve" smooth="yes"/>
      <point x="766" y="655"/>
      <point x="809" y="660"/>
      <point x="849" y="662" type="curve"/>
      <point x="853" y="658"/>
      <point x="858" y="632"/>
      <point x="853" y="624" type="curve"/>
      <point x="845" y="624"/>
      <point x="811" y="620"/>
      <point x="801" y="613" type="curve" smooth="yes"/>
      <point x="791" y="606"/>
      <point x="786" y="599"/>
      <point x="787" y="572" type="curve" smooth="yes"/>
      <point x="790" y="502"/>
      <point x="796" y="280"/>
      <point x="802" y="152" type="curve" smooth="yes"/>
      <point x="804" y="113"/>
      <point x="805" y="77"/>
      <point x="815" y="51" type="curve" smooth="yes"/>
      <point x="821" y="37"/>
      <point x="870" y="33"/>
      <point x="878" y="33" type="curve"/>
      <point x="882" y="24"/>
      <point x="883" y="6"/>
      <point x="880" y="-4" type="curve"/>
      <point x="840" y="-2"/>
      <point x="788" y="4"/>
      <point x="744" y="4" type="curve" smooth="yes"/>
      <point x="698" y="4"/>
      <point x="633" y="-2"/>
      <point x="587" y="-4" type="curve"/>
      <point x="583" y="0"/>
      <point x="582" y="25"/>
      <point x="585" y="33" type="curve"/>
      <point x="597" y="33"/>
      <point x="646" y="38"/>
      <point x="655" y="52" type="curve" smooth="yes"/>
      <point x="660" y="60"/>
      <point x="663" y="77"/>
      <point x="663" y="87" type="curve" smooth="yes"/>
      <point x="663" y="97"/>
      <point x="663" y="130"/>
      <point x="662" y="148" type="curve" smooth="yes"/>
      <point x="652" y="497" type="line" smooth="yes"/>
      <point x="652" y="500"/>
      <point x="652" y="523"/>
      <point x="645" y="523" type="curve" smooth="yes"/>
      <point x="643" y="523"/>
      <point x="642" y="521"/>
      <point x="640" y="516" type="curve" smooth="yes"/>
      <point x="464" y="40" type="line" smooth="yes"/>
      <point x="461" y="31"/>
      <point x="439" y="-2"/>
      <point x="421" y="-2" type="curve" smooth="yes"/>
      <point x="418" y="-2"/>
      <point x="415" y="-1"/>
      <point x="412" y="0" type="curve"/>
      <point x="189" y="523" type="line"/>
      <point x="182" y="315"/>
      <point x="182" y="291"/>
      <point x="176" y="134" type="curve" smooth="yes"/>
      <point x="175" y="112"/>
      <point x="178" y="72"/>
      <point x="180" y="65" type="curve" smooth="yes"/>
      <point x="186" y="44"/>
      <point x="259" y="33"/>
      <point x="267" y="33" type="curve"/>
      <point x="270" y="26"/>
      <point x="272" y="6"/>
      <point x="269" y="-4" type="curve"/>
      <point x="229" y="-2"/>
      <point x="189" y="4"/>
      <point x="145" y="4" type="curve" smooth="yes"/>
      <point x="99" y="4"/>
      <point x="66" y="-2"/>
      <point x="20" y="-4" type="curve"/>
      <point x="16" y="3"/>
      <point x="16" y="22"/>
      <point x="19" y="32" type="curve"/>
      <point x="31" y="32"/>
      <point x="93" y="42"/>
      <point x="104" y="68" type="curve" smooth="yes"/>
      <point x="108" y="78"/>
      <point x="115" y="140"/>
      <point x="116" y="156" type="curve" smooth="yes"/>
      <point x="122" y="273"/>
      <point x="131" y="534"/>
      <point x="133" y="581" type="curve" smooth="yes"/>
      <point x="133" y="588"/>
      <point x="133" y="596"/>
      <point x="128" y="603" type="curve" smooth="yes"/>
      <point x="120" y="614"/>
      <point x="80" y="625"/>
      <point x="63" y="625" type="curve"/>
      <point x="57" y="633"/>
      <point x="61" y="660"/>
      <point x="63" y="662" type="curve"/>
      <point x="109" y="660"/>
      <point x="125" y="656"/>
    </contour>
  </outline>
</glyph>
<glyph name="N" format="1">
  <advance width="760"/>
  <unicode hex="004E"/>
  <outline>
    <contour>
      <point x="151" y="655" type="curve" smooth="yes"/>
      <point x="186" y="655"/>
      <point x="228" y="658"/>
      <point x="260" y="662" type="curve"/>
      <point x="298" y="584"/>
      <point x="458" y="401"/>
      <point x="581" y="248" type="curve"/>
      <point x="583" y="255"/>
      <point x="583" y="275"/>
      <point x="583" y="289" type="curve" smooth="yes"/>
      <point x="583" y="476" type="line" smooth="yes"/>
      <point x="583" y="514"/>
      <point x="579" y="589"/>
      <point x="572" y="604" type="curve" smooth="yes"/>
      <point x="564" y="622"/>
      <point x="503" y="626"/>
      <point x="491" y="626" type="curve"/>
      <point x="489" y="626"/>
      <point x="486" y="654"/>
      <point x="491" y="663" type="curve"/>
      <point x="537" y="661"/>
      <point x="567" y="655"/>
      <point x="613" y="655" type="curve" smooth="yes"/>
      <point x="657" y="655"/>
      <point x="699" y="661"/>
      <point x="739" y="663" type="curve"/>
      <point x="741" y="657"/>
      <point x="743" y="635"/>
      <point x="737" y="625" type="curve"/>
      <point x="729" y="625"/>
      <point x="662" y="623"/>
      <point x="654" y="602" type="curve" smooth="yes"/>
      <point x="649" y="588"/>
      <point x="644" y="515"/>
      <point x="644" y="479" type="curve" smooth="yes"/>
      <point x="644" y="139" type="line" smooth="yes"/>
      <point x="644" y="81"/>
      <point x="646" y="51"/>
      <point x="648" y="-1" type="curve"/>
      <point x="645" y="-4"/>
      <point x="626" y="-5"/>
      <point x="623" y="-5" type="curve" smooth="yes"/>
      <point x="614" y="-5"/>
      <point x="602" y="5"/>
      <point x="592" y="18" type="curve" smooth="yes"/>
      <point x="185" y="519" type="line"/>
      <point x="185" y="157" type="line" smooth="yes"/>
      <point x="185" y="121"/>
      <point x="191" y="74"/>
      <point x="196" y="60" type="curve" smooth="yes"/>
      <point x="203" y="41"/>
      <point x="270" y="34"/>
      <point x="278" y="34" type="curve"/>
      <point x="284" y="24"/>
      <point x="282" y="2"/>
      <point x="280" y="-4" type="curve"/>
      <point x="240" y="-2"/>
      <point x="198" y="4"/>
      <point x="154" y="4" type="curve" smooth="yes"/>
      <point x="108" y="4"/>
      <point x="78" y="-2"/>
      <point x="32" y="-4" type="curve"/>
      <point x="27" y="5"/>
      <point x="30" y="33"/>
      <point x="32" y="33" type="curve"/>
      <point x="44" y="33"/>
      <point x="104" y="41"/>
      <point x="112" y="59" type="curve" smooth="yes"/>
      <point x="119" y="74"/>
      <point x="124" y="122"/>
      <point x="124" y="160" type="curve" smooth="yes"/>
      <point x="124" y="291"/>
      <point x="124" y="383"/>
      <point x="124" y="514" type="curve" smooth="yes"/>
      <point x="124" y="542"/>
      <point x="119" y="585"/>
      <point x="106" y="604" type="curve" smooth="yes"/>
      <point x="97" y="617"/>
      <point x="52" y="625"/>
      <point x="40" y="625" type="curve" smooth="yes"/>
      <point x="35" y="625"/>
      <point x="33" y="657"/>
      <point x="38" y="662" type="curve"/>
      <point x="69" y="660"/>
      <point x="105" y="655"/>
    </contour>
  </outline>
</glyph>
<glyph name="U" format="1">
  <advance width="730"/>
  <unicode hex="0055"/>
  <outline>
    <contour>
      <point x="165" y="655" type="curve" smooth="yes"/>
      <point x="207" y="655"/>
      <point x="267" y="658"/>
      <point x="306" y="662" type="curve"/>
      <point x="310" y="656"/>
      <point x="311" y="632"/>
      <point x="306" y="625" type="curve"/>
      <point x="293" y="624"/>
      <point x="247" y="620"/>
      <point x="242" y="607" type="curve" smooth="yes"/>
      <point x="234" y="587"/>
      <point x="234" y="556"/>
      <point x="234" y="513" type="curve" smooth="yes"/>
      <point x="234" y="330" type="line" smooth="yes"/>
      <point x="234" y="262"/>
      <point x="236" y="212"/>
      <point x="259" y="159" type="curve" smooth="yes"/>
      <point x="297" y="71"/>
      <point x="372" y="63"/>
      <point x="411" y="63" type="curve" smooth="yes"/>
      <point x="491" y="63"/>
      <point x="573" y="134"/>
      <point x="573" y="309" type="curve" smooth="yes"/>
      <point x="573" y="479" type="line" smooth="yes"/>
      <point x="573" y="522"/>
      <point x="567" y="581"/>
      <point x="559" y="601" type="curve" smooth="yes"/>
      <point x="551" y="620"/>
      <point x="497" y="624"/>
      <point x="484" y="625" type="curve"/>
      <point x="479" y="632"/>
      <point x="480" y="656"/>
      <point x="484" y="662" type="curve"/>
      <point x="531" y="658"/>
      <point x="563" y="655"/>
      <point x="609" y="655" type="curve" smooth="yes"/>
      <point x="653" y="655"/>
      <point x="685" y="660"/>
      <point x="726" y="662" type="curve"/>
      <point x="730" y="656"/>
      <point x="731" y="632"/>
      <point x="726" y="625" type="curve"/>
      <point x="713" y="624"/>
      <point x="657" y="622"/>
      <point x="649" y="601" type="curve" smooth="yes"/>
      <point x="641" y="581"/>
      <point x="635" y="523"/>
      <point x="635" y="480" type="curve" smooth="yes"/>
      <point x="635" y="286" type="line" smooth="yes"/>
      <point x="635" y="82"/>
      <point x="505" y="-9"/>
      <point x="361" y="-9" type="curve" smooth="yes"/>
      <point x="277" y="-9"/>
      <point x="198" y="19"/>
      <point x="150" y="79" type="curve" smooth="yes"/>
      <point x="111" y="128"/>
      <point x="94" y="197"/>
      <point x="94" y="301" type="curve" smooth="yes"/>
      <point x="94" y="513" type="line" smooth="yes"/>
      <point x="94" y="556"/>
      <point x="94" y="587"/>
      <point x="86" y="607" type="curve" smooth="yes"/>
      <point x="81" y="620"/>
      <point x="35" y="624"/>
      <point x="22" y="625" type="curve"/>
      <point x="17" y="632"/>
      <point x="18" y="656"/>
      <point x="22" y="662" type="curve"/>
      <point x="61" y="658"/>
      <point x="123" y="655"/>
    </contour>
  </outline>
</glyph>
<glyph name="V" format="1">
  <advance width="684"/>
  <unicode hex="0056"/>
  <outline>
    <contour>
      <point x="140" y="655" type="curve" smooth="yes"/>
      <point x="182" y="655"/>
      <point x="242" y="658"/>
      <point x="281" y="662" type="curve"/>
      <point x="285" y="656"/>
      <point x="286" y="632"/>
      <point x="281" y="625" type="curve"/>
      <point x="268" y="624"/>
      <point x="220" y="623"/>
      <point x="220" y="598" type="curve" smooth="yes"/>
      <point x="220" y="582"/>
      <point x="232" y="551"/>
      <point x="244" y="523" type="curve" smooth="yes"/>
      <point x="302" y="390"/>
      <point x="393" y="186"/>
      <point x="393" y="186" type="curve"/>
      <point x="393" y="186"/>
      <point x="515" y="493"/>
      <point x="525" y="521" type="curve" smooth="yes"/>
      <point x="534" y="547"/>
      <point x="547" y="580"/>
      <point x="547" y="601" type="curve" smooth="yes"/>
      <point x="547" y="619"/>
      <point x="480" y="624"/>
      <point x="467" y="625" type="curve"/>
      <point x="462" y="632"/>
      <point x="463" y="656"/>
      <point x="467" y="662" type="curve"/>
      <point x="514" y="658"/>
      <point x="540" y="655"/>
      <point x="586" y="655" type="curve" smooth="yes"/>
      <point x="630" y="655"/>
      <point x="657" y="660"/>
      <point x="698" y="662" type="curve"/>
      <point x="702" y="656"/>
      <point x="703" y="632"/>
      <point x="698" y="625" type="curve"/>
      <point x="685" y="624"/>
      <point x="640" y="623"/>
      <point x="628" y="607" type="curve" smooth="yes"/>
      <point x="613" y="587"/>
      <point x="601" y="557"/>
      <point x="587" y="524" type="curve" smooth="yes"/>
      <point x="505" y="323"/>
      <point x="457" y="215"/>
      <point x="380" y="30" type="curve" smooth="yes"/>
      <point x="372" y="12"/>
      <point x="344" y="-11"/>
      <point x="332" y="-11" type="curve" smooth="yes"/>
      <point x="323" y="-11"/>
      <point x="323" y="-4"/>
      <point x="318" y="3" type="curve"/>
      <point x="100" y="510" type="line" smooth="yes"/>
      <point x="88" y="539"/>
      <point x="74" y="572"/>
      <point x="65" y="592" type="curve" smooth="yes"/>
      <point x="53" y="618"/>
      <point x="10" y="624"/>
      <point x="-3" y="625" type="curve"/>
      <point x="-8" y="632"/>
      <point x="-7" y="656"/>
      <point x="-3" y="662" type="curve"/>
      <point x="36" y="658"/>
      <point x="98" y="655"/>
    </contour>
  </outline>
</glyph>
<glyph name="X" format="1">
  <advance width="710"/>
  <unicode hex="0058"/>
  <outline>
    <contour>
      <point x="176" y="656" type="curve" smooth="yes"/>
      <point x="225" y="656"/>
      <point x="280" y="660"/>
      <point x="320" y="662" type="curve"/>
      <point x="322" y="656"/>
      <point x="323" y="625"/>
      <point x="318" y="625" type="curve"/>
      <point x="304" y="625"/>
      <point x="266" y="619"/>
      <point x="265" y="604" type="curve" smooth="yes"/>
      <point x="265" y="598"/>
      <point x="269" y="588"/>
      <point x="273" y="582" type="curve" smooth="yes"/>
      <point x="384" y="414" type="line"/>
      <point x="428" y="471"/>
      <point x="499" y="551"/>
      <point x="514" y="584" type="curve" smooth="yes"/>
      <point x="516" y="588"/>
      <point x="517" y="591"/>
      <point x="517" y="594" type="curve" smooth="yes"/>
      <point x="517" y="611"/>
      <point x="477" y="625"/>
      <point x="443" y="625" type="curve"/>
      <point x="438" y="625"/>
      <point x="437" y="657"/>
      <point x="442" y="662" type="curve"/>
      <point x="477" y="658"/>
      <point x="538" y="655"/>
      <point x="575" y="655" type="curve" smooth="yes"/>
      <point x="627" y="655"/>
      <point x="666" y="658"/>
      <point x="695" y="662" type="curve"/>
      <point x="698" y="656"/>
      <point x="699" y="625"/>
      <point x="694" y="625" type="curve"/>
      <point x="686" y="625"/>
      <point x="625" y="623"/>
      <point x="582" y="572" type="curve" smooth="yes"/>
      <point x="411" y="369" type="line"/>
      <point x="495" y="242"/>
      <point x="597" y="93"/>
      <point x="612" y="76" type="curve" smooth="yes"/>
      <point x="641" y="41"/>
      <point x="697" y="33"/>
      <point x="711" y="33" type="curve"/>
      <point x="715" y="24"/>
      <point x="716" y="4"/>
      <point x="711" y="-4" type="curve"/>
      <point x="671" y="-2"/>
      <point x="592" y="2"/>
      <point x="551" y="2" type="curve" smooth="yes"/>
      <point x="495" y="2"/>
      <point x="449" y="-2"/>
      <point x="393" y="-4" type="curve"/>
      <point x="388" y="1"/>
      <point x="390" y="33"/>
      <point x="395" y="33" type="curve" smooth="yes"/>
      <point x="406" y="33"/>
      <point x="451" y="43"/>
      <point x="451" y="61" type="curve" smooth="yes"/>
      <point x="451" y="64"/>
      <point x="450" y="69"/>
      <point x="448" y="72" type="curve" smooth="yes"/>
      <point x="315" y="273" type="line"/>
      <point x="300" y="253"/>
      <point x="205" y="130"/>
      <point x="177" y="83" type="curve" smooth="yes"/>
      <point x="172" y="75"/>
      <point x="169" y="69"/>
      <point x="169" y="66" type="curve" smooth="yes"/>
      <point x="169" y="42"/>
      <point x="222" y="33"/>
      <point x="252" y="33" type="curve"/>
      <point x="257" y="26"/>
      <point x="258" y="7"/>
      <point x="255" y="-4" type="curve"/>
      <point x="222" y="-2"/>
      <point x="160" y="2"/>
      <point x="123" y="2" type="curve" smooth="yes"/>
      <point x="71" y="2"/>
      <point x="35" y="-2"/>
      <point x="-5" y="-4" type="curve"/>
      <point x="-10" y="2"/>
      <point x="-10" y="26"/>
      <point x="-5" y="33" type="curve"/>
      <point x="3" y="33"/>
      <point x="72" y="35"/>
      <point x="104" y="79" type="curve" smooth="yes"/>
      <point x="282" y="322" type="line"/>
      <point x="142" y="537" type="line" smooth="yes"/>
      <point x="124" y="564"/>
      <point x="102" y="600"/>
      <point x="88" y="610" type="curve" smooth="yes"/>
      <point x="74" y="620"/>
      <point x="32" y="625"/>
      <point x="20" y="625" type="curve"/>
      <point x="15" y="625"/>
      <point x="15" y="657"/>
      <point x="20" y="662" type="curve"/>
      <point x="69" y="660"/>
      <point x="127" y="656"/>
    </contour>
  </outline>
</glyph>
<glyph name="Y" format="1">
  <advance width="624"/>
  <unicode hex="0059"/>
  <outline>
    <contour>
      <point x="233" y="145" type="curve" smooth="yes"/>
      <point x="233" y="284" type="line" smooth="yes"/>
      <point x="233" y="291"/>
      <point x="232" y="296"/>
      <point x="228" y="304" type="curve" smooth="yes"/>
      <point x="203" y="359"/>
      <point x="102" y="537"/>
      <point x="102" y="537" type="curve" smooth="yes"/>
      <point x="87" y="565"/>
      <point x="83" y="572"/>
      <point x="71" y="592" type="curve" smooth="yes"/>
      <point x="56" y="617"/>
      <point x="16" y="624"/>
      <point x="3" y="625" type="curve"/>
      <point x="-2" y="632"/>
      <point x="-1" y="656"/>
      <point x="3" y="662" type="curve"/>
      <point x="42" y="658"/>
      <point x="104" y="655"/>
      <point x="146" y="655" type="curve" smooth="yes"/>
      <point x="188" y="655"/>
      <point x="248" y="658"/>
      <point x="287" y="662" type="curve"/>
      <point x="291" y="656"/>
      <point x="292" y="632"/>
      <point x="287" y="625" type="curve"/>
      <point x="274" y="624"/>
      <point x="226" y="623"/>
      <point x="226" y="598" type="curve" smooth="yes"/>
      <point x="226" y="594"/>
      <point x="229" y="589"/>
      <point x="233" y="582" type="curve" smooth="yes"/>
      <point x="353" y="361" type="line"/>
      <point x="358" y="356"/>
      <point x="436" y="498"/>
      <point x="479" y="578" type="curve" smooth="yes"/>
      <point x="483" y="586"/>
      <point x="484" y="594"/>
      <point x="484" y="601" type="curve" smooth="yes"/>
      <point x="484" y="619"/>
      <point x="423" y="624"/>
      <point x="410" y="625" type="curve"/>
      <point x="405" y="632"/>
      <point x="406" y="656"/>
      <point x="410" y="662" type="curve"/>
      <point x="457" y="658"/>
      <point x="477" y="655"/>
      <point x="523" y="655" type="curve" smooth="yes"/>
      <point x="567" y="655"/>
      <point x="594" y="660"/>
      <point x="635" y="662" type="curve"/>
      <point x="639" y="656"/>
      <point x="640" y="632"/>
      <point x="635" y="625" type="curve"/>
      <point x="622" y="624"/>
      <point x="576" y="623"/>
      <point x="561" y="600" type="curve" smooth="yes"/>
      <point x="541" y="571"/>
      <point x="408" y="357"/>
      <point x="379" y="298" type="curve" smooth="yes"/>
      <point x="376" y="291"/>
      <point x="373" y="285"/>
      <point x="373" y="279" type="curve" smooth="yes"/>
      <point x="373" y="145" type="line" smooth="yes"/>
      <point x="373" y="102"/>
      <point x="373" y="71"/>
      <point x="381" y="51" type="curve" smooth="yes"/>
      <point x="386" y="38"/>
      <point x="432" y="34"/>
      <point x="445" y="33" type="curve"/>
      <point x="450" y="26"/>
      <point x="449" y="2"/>
      <point x="445" y="-4" type="curve"/>
      <point x="406" y="0"/>
      <point x="344" y="3"/>
      <point x="302" y="3" type="curve" smooth="yes"/>
      <point x="260" y="3"/>
      <point x="200" y="0"/>
      <point x="161" y="-4" type="curve"/>
      <point x="157" y="2"/>
      <point x="156" y="26"/>
      <point x="161" y="33" type="curve"/>
      <point x="174" y="34"/>
      <point x="220" y="38"/>
      <point x="225" y="51" type="curve" smooth="yes"/>
      <point x="233" y="71"/>
      <point x="233" y="102"/>
    </contour>
  </outline>
</glyph>
<glyph name="backslash" format="1">
  <advance width="419"/>
  <unicode hex="005C"/>
  <outline>
    <contour>
      <point x="27" y="755" type="curve"/>
      <point x="31" y="760"/>
      <point x="38" y="761"/>
      <point x="46" y="761" type="curve" smooth="yes"/>
      <point x="70" y="761"/>
      <point x="81" y="753"/>
      <point x="84" y="745" type="curve" smooth="yes"/>
      <point x="84" y="745"/>
      <point x="390" y="-20"/>
      <point x="390" y="-26" type="curve"/>
      <point x="389" y="-30"/>
      <point x="376" y="-36"/>
      <point x="362" y="-36" type="curve" smooth="yes"/>
      <point x="354" y="-36"/>
      <point x="338" y="-32"/>
      <point x="332" y="-18" type="curve" smooth="yes"/>
      <point x="215" y="277"/>
      <point x="118" y="526"/>
    </contour>
  </outline>
</glyph>
<glyph name="bracketright" format="1">
  <advance width="309"/>
  <unicode hex="005D"/>
  <outline>
    <contour>
      <point x="215" y="770" type="curve" smooth="yes"/>
      <point x="228" y="769"/>
      <point x="234" y="758"/>
      <point x="234" y="747" type="curve" smooth="yes"/>
      <point x="234" y="-99" type="line" smooth="yes"/>
      <point x="234" y="-110"/>
      <point x="228" y="-121"/>
      <point x="215" y="-122" type="curve" smooth="yes"/>
      <point x="112" y="-122"/>
      <point x="46" y="-131"/>
      <point x="10" y="-138" type="curve"/>
      <point x="8" y="-138"/>
      <point x="4" y="-135"/>
      <point x="4" y="-129" type="curve" smooth="yes"/>
      <point x="4" y="-116"/>
      <point x="12" y="-104"/>
      <point x="14" y="-103" type="curve" smooth="yes"/>
      <point x="44" y="-88"/>
      <point x="100" y="-82"/>
      <point x="127" y="-76" type="curve"/>
      <point x="127" y="724" type="line"/>
      <point x="100" y="730"/>
      <point x="44" y="736"/>
      <point x="14" y="751" type="curve" smooth="yes"/>
      <point x="12" y="752"/>
      <point x="4" y="764"/>
      <point x="4" y="777" type="curve" smooth="yes"/>
      <point x="4" y="783"/>
      <point x="8" y="786"/>
      <point x="10" y="786" type="curve"/>
      <point x="46" y="779"/>
      <point x="112" y="770"/>
    </contour>
  </outline>
</glyph>
<glyph name="asciicircum" format="1">
  <advance width="391"/>
  <unicode hex="005E"/>
  <outline>
    <contour>
      <point x="186" y="669" type="curve" smooth="yes"/>
      <point x="192" y="669"/>
      <point x="201" y="664"/>
      <point x="206" y="655" type="curve" smooth="yes"/>
      <point x="257" y="566"/>
      <point x="279" y="521"/>
      <point x="333" y="437" type="curve"/>
      <point x="333" y="426"/>
      <point x="322" y="419"/>
      <point x="314" y="419" type="curve"/>
      <point x="256" y="473"/>
      <point x="186" y="556"/>
      <point x="186" y="556" type="curve"/>
      <point x="186" y="556"/>
      <point x="116" y="473"/>
      <point x="58" y="419" type="curve"/>
      <point x="50" y="419"/>
      <point x="38" y="426"/>
      <point x="38" y="437" type="curve"/>
      <point x="92" y="521"/>
      <point x="116" y="566"/>
      <point x="167" y="655" type="curve" smooth="yes"/>
      <point x="172" y="664"/>
      <point x="180" y="669"/>
    </contour>
  </outline>
</glyph>
<glyph name="a" format="1">
  <advance width="472"/>
  <unicode hex="0061"/>
  <outline>
    <contour>
      <point x="227" y="62" type="curve" smooth="yes"/>
      <point x="252" y="62"/>
      <point x="268" y="77"/>
      <point x="268" y="83" type="curve" smooth="yes"/>
      <point x="268" y="223" type="line"/>
      <point x="248" y="213"/>
      <point x="222" y="204"/>
      <point x="202" y="191" type="curve" smooth="yes"/>
      <point x="174" y="173"/>
      <point x="165" y="146"/>
      <point x="166" y="124" type="curve" smooth="yes"/>
      <point x="167" y="81"/>
      <point x="201" y="62"/>
    </contour>
    <contour>
      <point x="248" y="449" type="curve" smooth="yes"/>
      <point x="331" y="449"/>
      <point x="398" y="386"/>
      <point x="398" y="296" type="curve" smooth="yes"/>
      <point x="398" y="109" type="line" smooth="yes"/>
      <point x="398" y="82"/>
      <point x="409" y="68"/>
      <point x="422" y="68" type="curve" smooth="yes"/>
      <point x="436" y="68"/>
      <point x="447" y="76"/>
      <point x="451" y="78" type="curve"/>
      <point x="455" y="76"/>
      <point x="458" y="67"/>
      <point x="458" y="61" type="curve" smooth="yes"/>
      <point x="458" y="54"/>
      <point x="457" y="51"/>
      <point x="454" y="46" type="curve"/>
      <point x="440" y="33"/>
      <point x="393" y="-6"/>
      <point x="351" y="-6" type="curve" smooth="yes"/>
      <point x="318" y="-6"/>
      <point x="284" y="20"/>
      <point x="275" y="44" type="curve"/>
      <point x="266" y="36"/>
      <point x="198" y="-8"/>
      <point x="162" y="-8" type="curve" smooth="yes"/>
      <point x="86" y="-8"/>
      <point x="31" y="55"/>
      <point x="31" y="114" type="curve" smooth="yes"/>
      <point x="31" y="153"/>
      <point x="57" y="186"/>
      <point x="83" y="194" type="curve" smooth="yes"/>
      <point x="121" y="206"/>
      <point x="217" y="245"/>
      <point x="268" y="264" type="curve"/>
      <point x="268" y="271"/>
      <point x="268" y="278"/>
      <point x="268" y="285" type="curve" smooth="yes"/>
      <point x="268" y="311" type="line" smooth="yes"/>
      <point x="268" y="361"/>
      <point x="244" y="411"/>
      <point x="209" y="411" type="curve" smooth="yes"/>
      <point x="171" y="411"/>
      <point x="161" y="372"/>
      <point x="151" y="327" type="curve" smooth="yes"/>
      <point x="146" y="304"/>
      <point x="130" y="283"/>
      <point x="95" y="283" type="curve" smooth="yes"/>
      <point x="68" y="283"/>
      <point x="43" y="303"/>
      <point x="43" y="331" type="curve" smooth="yes"/>
      <point x="43" y="344"/>
      <point x="49" y="358"/>
      <point x="57" y="372" type="curve"/>
      <point x="70" y="385"/>
      <point x="160" y="449"/>
    </contour>
  </outline>
</glyph>
<glyph name="c" format="1">
  <advance width="447"/>
  <unicode hex="0063"/>
  <outline>
    <contour>
      <point x="413" y="382" type="curve" smooth="yes"/>
      <point x="413" y="353"/>
      <point x="391" y="320"/>
      <point x="355" y="320" type="curve" smooth="yes"/>
      <point x="328" y="320"/>
      <point x="311" y="347"/>
      <point x="295" y="365" type="curve" smooth="yes"/>
      <point x="278" y="384"/>
      <point x="252" y="396"/>
      <point x="227" y="396" type="curve" smooth="yes"/>
      <point x="183" y="396"/>
      <point x="157" y="319"/>
      <point x="157" y="258" type="curve" smooth="yes"/>
      <point x="157" y="118"/>
      <point x="237" y="75"/>
      <point x="301" y="75" type="curve" smooth="yes"/>
      <point x="359" y="75"/>
      <point x="392" y="102"/>
      <point x="413" y="125" type="curve"/>
      <point x="420" y="123"/>
      <point x="425" y="113"/>
      <point x="425" y="107" type="curve" smooth="yes"/>
      <point x="425" y="100"/>
      <point x="424" y="91"/>
      <point x="422" y="88" type="curve" smooth="yes"/>
      <point x="404" y="60"/>
      <point x="336" y="-9"/>
      <point x="241" y="-9" type="curve" smooth="yes"/>
      <point x="129" y="-9"/>
      <point x="31" y="69"/>
      <point x="31" y="200" type="curve" smooth="yes"/>
      <point x="31" y="322"/>
      <point x="154" y="448"/>
      <point x="292" y="448" type="curve" smooth="yes"/>
      <point x="347" y="448"/>
      <point x="382" y="437"/>
      <point x="393" y="430" type="curve"/>
      <point x="402" y="420"/>
      <point x="413" y="408"/>
    </contour>
  </outline>
</glyph>
<glyph name="d" format="1">
  <advance width="547"/>
  <unicode hex="0064"/>
  <outline>
    <contour>
      <point x="294" y="446" type="curve" smooth="yes"/>
      <point x="315" y="446"/>
      <point x="326" y="445"/>
      <point x="334" y="444" type="curve"/>
      <point x="338" y="444"/>
      <point x="339" y="459"/>
      <point x="339" y="467" type="curve" smooth="yes"/>
      <point x="339" y="492"/>
      <point x="339" y="525"/>
      <point x="339" y="558" type="curve" smooth="yes"/>
      <point x="339" y="577"/>
      <point x="339" y="589"/>
      <point x="332" y="606" type="curve" smooth="yes"/>
      <point x="327" y="618"/>
      <point x="284" y="624"/>
      <point x="272" y="624" type="curve"/>
      <point x="268" y="624"/>
      <point x="267" y="652"/>
      <point x="272" y="656" type="curve"/>
      <point x="384" y="666"/>
      <point x="462" y="695"/>
      <point x="465" y="695" type="curve"/>
      <point x="471" y="694"/>
      <point x="479" y="683"/>
      <point x="480" y="678" type="curve"/>
      <point x="480" y="678"/>
      <point x="469" y="633"/>
      <point x="469" y="577" type="curve" smooth="yes"/>
      <point x="469" y="108" type="line" smooth="yes"/>
      <point x="469" y="93"/>
      <point x="469" y="80"/>
      <point x="478" y="70" type="curve" smooth="yes"/>
      <point x="487" y="60"/>
      <point x="514" y="60"/>
      <point x="523" y="60" type="curve"/>
      <point x="525" y="58"/>
      <point x="526" y="54"/>
      <point x="526" y="47" type="curve" smooth="yes"/>
      <point x="526" y="41"/>
      <point x="524" y="34"/>
      <point x="520" y="28" type="curve"/>
      <point x="461" y="22"/>
      <point x="361" y="-7"/>
      <point x="348" y="-7" type="curve" smooth="yes"/>
      <point x="344" y="-7"/>
      <point x="339" y="2"/>
      <point x="339" y="17" type="curve" smooth="yes"/>
      <point x="339" y="33" type="line" smooth="yes"/>
      <point x="339" y="35"/>
      <point x="339" y="40"/>
      <point x="336" y="38" type="curve" smooth="yes"/>
      <point x="320" y="27"/>
      <point x="266" y="-8"/>
      <point x="213" y="-8" type="curve" smooth="yes"/>
      <point x="117" y="-8"/>
      <point x="32" y="82"/>
      <point x="32" y="200" type="curve" smooth="yes"/>
      <point x="32" y="370"/>
      <point x="203" y="446"/>
    </contour>
    <contour>
      <point x="261" y="395" type="curve" smooth="yes"/>
      <point x="197" y="395"/>
      <point x="174" y="323"/>
      <point x="174" y="243" type="curve" smooth="yes"/>
      <point x="174" y="133"/>
      <point x="213" y="56"/>
      <point x="275" y="56" type="curve" smooth="yes"/>
      <point x="303" y="56"/>
      <point x="339" y="80"/>
      <point x="339" y="93" type="curve" smooth="yes"/>
      <point x="339" y="350" type="line" smooth="yes"/>
      <point x="339" y="368"/>
      <point x="303" y="395"/>
    </contour>
  </outline>
</glyph>
<glyph name="e" format="1">
  <advance width="460"/>
  <unicode hex="0065"/>
  <outline>
    <contour>
      <point x="163" y="282" type="curve"/>
      <point x="172" y="281"/>
      <point x="268" y="287"/>
      <point x="292" y="290" type="curve" smooth="yes"/>
      <point x="304" y="291"/>
      <point x="305" y="300"/>
      <point x="305" y="306" type="curve" smooth="yes"/>
      <point x="305" y="352"/>
      <point x="289" y="406"/>
      <point x="244" y="406" type="curve" smooth="yes"/>
      <point x="185" y="406"/>
      <point x="163" y="316"/>
    </contour>
    <contour>
      <point x="162" y="242" type="curve"/>
      <point x="162" y="102"/>
      <point x="257" y="75"/>
      <point x="302" y="75" type="curve" smooth="yes"/>
      <point x="360" y="75"/>
      <point x="393" y="102"/>
      <point x="414" y="125" type="curve"/>
      <point x="421" y="123"/>
      <point x="426" y="113"/>
      <point x="426" y="107" type="curve" smooth="yes"/>
      <point x="426" y="100"/>
      <point x="425" y="91"/>
      <point x="423" y="88" type="curve" smooth="yes"/>
      <point x="405" y="60"/>
      <point x="337" y="-9"/>
      <point x="242" y="-9" type="curve" smooth="yes"/>
      <point x="130" y="-9"/>
      <point x="32" y="69"/>
      <point x="32" y="200" type="curve" smooth="yes"/>
      <point x="32" y="326"/>
      <point x="139" y="447"/>
      <point x="254" y="447" type="curve" smooth="yes"/>
      <point x="385" y="447"/>
      <point x="429" y="354"/>
      <point x="429" y="296" type="curve" smooth="yes"/>
      <point x="429" y="274"/>
      <point x="417" y="255"/>
      <point x="402" y="254" type="curve" smooth="yes"/>
      <point x="334" y="248"/>
      <point x="236" y="244"/>
    </contour>
  </outline>
</glyph>
<glyph name="h" format="1">
  <advance width="583"/>
  <unicode hex="0068"/>
  <outline>
    <contour>
      <point x="367" y="446" type="curve" smooth="yes"/>
      <point x="481" y="446"/>
      <point x="503" y="368"/>
      <point x="503" y="210" type="curve" smooth="yes"/>
      <point x="503" y="145" type="line" smooth="yes"/>
      <point x="503" y="102"/>
      <point x="503" y="71"/>
      <point x="511" y="51" type="curve" smooth="yes"/>
      <point x="516" y="38"/>
      <point x="562" y="34"/>
      <point x="575" y="33" type="curve"/>
      <point x="580" y="26"/>
      <point x="579" y="2"/>
      <point x="575" y="-4" type="curve"/>
      <point x="536" y="0"/>
      <point x="480" y="3"/>
      <point x="438" y="3" type="curve" smooth="yes"/>
      <point x="396" y="3"/>
      <point x="352" y="0"/>
      <point x="313" y="-4" type="curve"/>
      <point x="309" y="2"/>
      <point x="308" y="26"/>
      <point x="313" y="33" type="curve"/>
      <point x="326" y="34"/>
      <point x="360" y="38"/>
      <point x="365" y="51" type="curve" smooth="yes"/>
      <point x="373" y="71"/>
      <point x="373" y="102"/>
      <point x="373" y="145" type="curve" smooth="yes"/>
      <point x="373" y="224" type="line" smooth="yes"/>
      <point x="373" y="296"/>
      <point x="359" y="365"/>
      <point x="306" y="365" type="curve" smooth="yes"/>
      <point x="266" y="365"/>
      <point x="218" y="329"/>
      <point x="218" y="309" type="curve" smooth="yes"/>
      <point x="218" y="145" type="line" smooth="yes"/>
      <point x="218" y="108"/>
      <point x="218" y="71"/>
      <point x="226" y="51" type="curve" smooth="yes"/>
      <point x="231" y="38"/>
      <point x="270" y="34"/>
      <point x="283" y="33" type="curve"/>
      <point x="288" y="26"/>
      <point x="287" y="2"/>
      <point x="283" y="-4" type="curve"/>
      <point x="244" y="0"/>
      <point x="195" y="3"/>
      <point x="153" y="3" type="curve" smooth="yes"/>
      <point x="111" y="3"/>
      <point x="55" y="0"/>
      <point x="16" y="-4" type="curve"/>
      <point x="12" y="2"/>
      <point x="11" y="26"/>
      <point x="16" y="33" type="curve"/>
      <point x="29" y="34"/>
      <point x="75" y="38"/>
      <point x="80" y="51" type="curve" smooth="yes"/>
      <point x="88" y="71"/>
      <point x="88" y="102"/>
      <point x="88" y="145" type="curve" smooth="yes"/>
      <point x="88" y="558" type="line" smooth="yes"/>
      <point x="88" y="575"/>
      <point x="88" y="589"/>
      <point x="81" y="606" type="curve" smooth="yes"/>
      <point x="76" y="618"/>
      <point x="33" y="624"/>
      <point x="21" y="624" type="curve"/>
      <point x="17" y="624"/>
      <point x="16" y="652"/>
      <point x="21" y="656" type="curve"/>
      <point x="133" y="666"/>
      <point x="211" y="695"/>
      <point x="214" y="695" type="curve"/>
      <point x="220" y="694"/>
      <point x="228" y="683"/>
      <point x="229" y="678" type="curve"/>
      <point x="229" y="678"/>
      <point x="218" y="616"/>
      <point x="218" y="576" type="curve" smooth="yes"/>
      <point x="218" y="372" type="line" smooth="yes"/>
      <point x="218" y="369"/>
      <point x="218" y="367"/>
      <point x="219" y="366" type="curve"/>
      <point x="221" y="366"/>
      <point x="224" y="369"/>
      <point x="226" y="371" type="curve" smooth="yes"/>
      <point x="254" y="403"/>
      <point x="321" y="446"/>
    </contour>
  </outline>
</glyph>
<glyph name="m" format="1">
  <advance width="883"/>
  <unicode hex="006D"/>
  <outline>
    <contour>
      <point x="380" y="446" type="curve" smooth="yes"/>
      <point x="444" y="446"/>
      <point x="479" y="424"/>
      <point x="503" y="360" type="curve"/>
      <point x="547" y="403"/>
      <point x="621" y="446"/>
      <point x="667" y="446" type="curve" smooth="yes"/>
      <point x="781" y="446"/>
      <point x="803" y="368"/>
      <point x="803" y="210" type="curve" smooth="yes"/>
      <point x="803" y="145" type="line" smooth="yes"/>
      <point x="803" y="102"/>
      <point x="803" y="71"/>
      <point x="811" y="51" type="curve" smooth="yes"/>
      <point x="816" y="38"/>
      <point x="862" y="34"/>
      <point x="875" y="33" type="curve"/>
      <point x="880" y="26"/>
      <point x="879" y="2"/>
      <point x="875" y="-4" type="curve"/>
      <point x="836" y="0"/>
      <point x="780" y="3"/>
      <point x="738" y="3" type="curve" smooth="yes"/>
      <point x="696" y="3"/>
      <point x="652" y="0"/>
      <point x="613" y="-4" type="curve"/>
      <point x="609" y="2"/>
      <point x="608" y="26"/>
      <point x="613" y="33" type="curve"/>
      <point x="626" y="34"/>
      <point x="660" y="38"/>
      <point x="665" y="51" type="curve" smooth="yes"/>
      <point x="673" y="71"/>
      <point x="673" y="102"/>
      <point x="673" y="145" type="curve" smooth="yes"/>
      <point x="673" y="224" type="line" smooth="yes"/>
      <point x="673" y="296"/>
      <point x="659" y="365"/>
      <point x="606" y="365" type="curve" smooth="yes"/>
      <point x="566" y="365"/>
      <point x="512" y="330"/>
      <point x="512" y="310" type="curve" smooth="yes"/>
      <point x="512" y="308"/>
      <point x="512" y="306"/>
      <point x="512" y="304" type="curve" smooth="yes"/>
      <point x="514" y="276"/>
      <point x="516" y="245"/>
      <point x="516" y="210" type="curve" smooth="yes"/>
      <point x="516" y="145" type="line" smooth="yes"/>
      <point x="516" y="102"/>
      <point x="516" y="71"/>
      <point x="524" y="51" type="curve" smooth="yes"/>
      <point x="529" y="38"/>
      <point x="573" y="34"/>
      <point x="586" y="33" type="curve"/>
      <point x="591" y="26"/>
      <point x="590" y="2"/>
      <point x="586" y="-4" type="curve"/>
      <point x="547" y="0"/>
      <point x="493" y="3"/>
      <point x="451" y="3" type="curve" smooth="yes"/>
      <point x="409" y="3"/>
      <point x="363" y="0"/>
      <point x="324" y="-4" type="curve"/>
      <point x="320" y="2"/>
      <point x="319" y="26"/>
      <point x="324" y="33" type="curve"/>
      <point x="337" y="34"/>
      <point x="373" y="38"/>
      <point x="378" y="51" type="curve" smooth="yes"/>
      <point x="386" y="71"/>
      <point x="386" y="102"/>
      <point x="386" y="145" type="curve" smooth="yes"/>
      <point x="386" y="224" type="line" smooth="yes"/>
      <point x="386" y="296"/>
      <point x="372" y="365"/>
      <point x="319" y="365" type="curve" smooth="yes"/>
      <point x="279" y="365"/>
      <point x="231" y="329"/>
      <point x="231" y="309" type="curve" smooth="yes"/>
      <point x="231" y="145" type="line" smooth="yes"/>
      <point x="231" y="108"/>
      <point x="231" y="71"/>
      <point x="239" y="51" type="curve" smooth="yes"/>
      <point x="244" y="38"/>
      <point x="283" y="34"/>
      <point x="296" y="33" type="curve"/>
      <point x="301" y="26"/>
      <point x="300" y="2"/>
      <point x="296" y="-4" type="curve"/>
      <point x="257" y="0"/>
      <point x="208" y="3"/>
      <point x="166" y="3" type="curve" smooth="yes"/>
      <point x="124" y="3"/>
      <point x="68" y="0"/>
      <point x="29" y="-4" type="curve"/>
      <point x="25" y="2"/>
      <point x="24" y="26"/>
      <point x="29" y="33" type="curve"/>
      <point x="42" y="34"/>
      <point x="88" y="38"/>
      <point x="93" y="51" type="curve" smooth="yes"/>
      <point x="101" y="71"/>
      <point x="101" y="102"/>
      <point x="101" y="145" type="curve" smooth="yes"/>
      <point x="101" y="260" type="line" smooth="yes"/>
      <point x="101" y="270"/>
      <point x="100" y="327"/>
      <point x="92" y="342" type="curve" smooth="yes"/>
      <point x="84" y="357"/>
      <point x="36" y="362"/>
      <point x="29" y="362" type="curve"/>
      <point x="26" y="364"/>
      <point x="25" y="393"/>
      <point x="30" y="393" type="curve"/>
      <point x="106" y="399"/>
      <point x="187" y="427"/>
      <point x="225" y="446" type="curve"/>
      <point x="232" y="444"/>
      <point x="242" y="432"/>
      <point x="242" y="429" type="curve"/>
      <point x="239" y="421"/>
      <point x="231" y="373"/>
      <point x="232" y="372" type="curve" smooth="yes"/>
      <point x="232" y="369"/>
      <point x="232" y="367"/>
      <point x="233" y="366" type="curve"/>
      <point x="235" y="366"/>
      <point x="238" y="369"/>
      <point x="240" y="371" type="curve" smooth="yes"/>
      <point x="268" y="403"/>
      <point x="334" y="446"/>
    </contour>
  </outline>
</glyph>
<glyph name="n" format="1">
  <advance width="596"/>
  <unicode hex="006E"/>
  <outline>
    <contour>
      <point x="380" y="446" type="curve" smooth="yes"/>
      <point x="494" y="446"/>
      <point x="516" y="368"/>
      <point x="516" y="210" type="curve" smooth="yes"/>
      <point x="516" y="145" type="line" smooth="yes"/>
      <point x="516" y="102"/>
      <point x="516" y="71"/>
      <point x="524" y="51" type="curve" smooth="yes"/>
      <point x="529" y="38"/>
      <point x="575" y="34"/>
      <point x="588" y="33" type="curve"/>
      <point x="593" y="26"/>
      <point x="592" y="2"/>
      <point x="588" y="-4" type="curve"/>
      <point x="549" y="0"/>
      <point x="493" y="3"/>
      <point x="451" y="3" type="curve" smooth="yes"/>
      <point x="409" y="3"/>
      <point x="365" y="0"/>
      <point x="326" y="-4" type="curve"/>
      <point x="322" y="2"/>
      <point x="321" y="26"/>
      <point x="326" y="33" type="curve"/>
      <point x="339" y="34"/>
      <point x="373" y="38"/>
      <point x="378" y="51" type="curve" smooth="yes"/>
      <point x="386" y="71"/>
      <point x="386" y="102"/>
      <point x="386" y="145" type="curve" smooth="yes"/>
      <point x="386" y="224" type="line" smooth="yes"/>
      <point x="386" y="296"/>
      <point x="372" y="365"/>
      <point x="319" y="365" type="curve" smooth="yes"/>
      <point x="279" y="365"/>
      <point x="231" y="329"/>
      <point x="231" y="309" type="curve" smooth="yes"/>
      <point x="231" y="145" type="line" smooth="yes"/>
      <point x="231" y="108"/>
      <point x="231" y="71"/>
      <point x="239" y="51" type="curve" smooth="yes"/>
      <point x="244" y="38"/>
      <point x="283" y="34"/>
      <point x="296" y="33" type="curve"/>
      <point x="301" y="26"/>
      <point x="300" y="2"/>
      <point x="296" y="-4" type="curve"/>
      <point x="257" y="0"/>
      <point x="208" y="3"/>
      <point x="166" y="3" type="curve" smooth="yes"/>
      <point x="124" y="3"/>
      <point x="68" y="0"/>
      <point x="29" y="-4" type="curve"/>
      <point x="25" y="2"/>
      <point x="24" y="26"/>
      <point x="29" y="33" type="curve"/>
      <point x="42" y="34"/>
      <point x="88" y="38"/>
      <point x="93" y="51" type="curve" smooth="yes"/>
      <point x="101" y="71"/>
      <point x="101" y="102"/>
      <point x="101" y="145" type="curve" smooth="yes"/>
      <point x="101" y="260" type="line" smooth="yes"/>
      <point x="101" y="270"/>
      <point x="100" y="327"/>
      <point x="92" y="342" type="curve" smooth="yes"/>
      <point x="84" y="357"/>
      <point x="36" y="362"/>
      <point x="29" y="362" type="curve"/>
      <point x="26" y="364"/>
      <point x="25" y="393"/>
      <point x="30" y="393" type="curve"/>
      <point x="106" y="399"/>
      <point x="187" y="427"/>
      <point x="225" y="446" type="curve"/>
      <point x="231" y="446"/>
      <point x="242" y="434"/>
      <point x="242" y="429" type="curve"/>
      <point x="240" y="421"/>
      <point x="232" y="373"/>
      <point x="232" y="372" type="curve" smooth="yes"/>
      <point x="232" y="369"/>
      <point x="232" y="367"/>
      <point x="233" y="366" type="curve"/>
      <point x="235" y="366"/>
      <point x="238" y="369"/>
      <point x="240" y="371" type="curve" smooth="yes"/>
      <point x="268" y="403"/>
      <point x="334" y="446"/>
    </contour>
  </outline>
</glyph>
<glyph name="r" format="1">
  <advance width="449"/>
  <unicode hex="0072"/>
  <outline>
    <contour>
      <point x="363" y="447" type="curve" smooth="yes"/>
      <point x="389" y="447"/>
      <point x="413" y="442"/>
      <point x="426" y="430" type="curve"/>
      <point x="430" y="424"/>
      <point x="437" y="402"/>
      <point x="437" y="381" type="curve" smooth="yes"/>
      <point x="437" y="347"/>
      <point x="411" y="302"/>
      <point x="377" y="302" type="curve" smooth="yes"/>
      <point x="359" y="302"/>
      <point x="346" y="317"/>
      <point x="334" y="327" type="curve" smooth="yes"/>
      <point x="323" y="337"/>
      <point x="315" y="348"/>
      <point x="298" y="348" type="curve" smooth="yes"/>
      <point x="257" y="348"/>
      <point x="231" y="288"/>
      <point x="231" y="267" type="curve" smooth="yes"/>
      <point x="231" y="145" type="line" smooth="yes"/>
      <point x="231" y="108"/>
      <point x="231" y="71"/>
      <point x="239" y="51" type="curve" smooth="yes"/>
      <point x="244" y="38"/>
      <point x="300" y="34"/>
      <point x="313" y="33" type="curve"/>
      <point x="318" y="26"/>
      <point x="317" y="2"/>
      <point x="313" y="-4" type="curve"/>
      <point x="274" y="0"/>
      <point x="208" y="3"/>
      <point x="166" y="3" type="curve" smooth="yes"/>
      <point x="124" y="3"/>
      <point x="68" y="0"/>
      <point x="29" y="-4" type="curve"/>
      <point x="25" y="2"/>
      <point x="24" y="26"/>
      <point x="29" y="33" type="curve"/>
      <point x="42" y="34"/>
      <point x="88" y="38"/>
      <point x="93" y="51" type="curve" smooth="yes"/>
      <point x="101" y="71"/>
      <point x="101" y="102"/>
      <point x="101" y="145" type="curve" smooth="yes"/>
      <point x="101" y="260" type="line" smooth="yes"/>
      <point x="101" y="270"/>
      <point x="100" y="327"/>
      <point x="92" y="342" type="curve" smooth="yes"/>
      <point x="84" y="357"/>
      <point x="36" y="362"/>
      <point x="29" y="362" type="curve"/>
      <point x="26" y="364"/>
      <point x="25" y="393"/>
      <point x="30" y="393" type="curve"/>
      <point x="106" y="399"/>
      <point x="187" y="427"/>
      <point x="225" y="446" type="curve"/>
      <point x="232" y="444"/>
      <point x="242" y="432"/>
      <point x="242" y="429" type="curve"/>
      <point x="239" y="421"/>
      <point x="232" y="364"/>
      <point x="232" y="350" type="curve" smooth="yes"/>
      <point x="232" y="345"/>
      <point x="237" y="345"/>
      <point x="238" y="347" type="curve" smooth="yes"/>
      <point x="262" y="390"/>
      <point x="300" y="447"/>
    </contour>
  </outline>
</glyph>
<glyph name="t" format="1">
  <advance width="342"/>
  <unicode hex="0074"/>
  <outline>
    <contour>
      <point x="212" y="428" type="curve"/>
      <point x="219" y="428"/>
      <point x="293" y="428"/>
      <point x="326" y="428" type="curve" smooth="yes"/>
      <point x="330" y="428"/>
      <point x="332" y="420"/>
      <point x="332" y="415" type="curve" smooth="yes"/>
      <point x="332" y="406"/>
      <point x="319" y="388"/>
      <point x="309" y="381" type="curve"/>
      <point x="279" y="381"/>
      <point x="245" y="381"/>
      <point x="212" y="381" type="curve"/>
      <point x="212" y="133" type="line" smooth="yes"/>
      <point x="212" y="80"/>
      <point x="229" y="57"/>
      <point x="266" y="57" type="curve" smooth="yes"/>
      <point x="290" y="57"/>
      <point x="316" y="78"/>
      <point x="319" y="81" type="curve"/>
      <point x="321" y="79"/>
      <point x="326" y="72"/>
      <point x="326" y="67" type="curve" smooth="yes"/>
      <point x="326" y="62"/>
      <point x="320" y="50"/>
      <point x="318" y="48" type="curve" smooth="yes"/>
      <point x="309" y="38"/>
      <point x="264" y="-7"/>
      <point x="212" y="-7" type="curve" smooth="yes"/>
      <point x="150" y="-7"/>
      <point x="82" y="27"/>
      <point x="82" y="139" type="curve" smooth="yes"/>
      <point x="82" y="381" type="line"/>
      <point x="55" y="381"/>
      <point x="37" y="381"/>
      <point x="11" y="381" type="curve"/>
      <point x="6" y="383"/>
      <point x="6" y="390"/>
      <point x="6" y="394" type="curve"/>
      <point x="16" y="408"/>
      <point x="26" y="418"/>
      <point x="38" y="428" type="curve"/>
      <point x="51" y="428"/>
      <point x="72" y="428"/>
      <point x="82" y="428" type="curve"/>
      <point x="82" y="428"/>
      <point x="82" y="461"/>
      <point x="82" y="481" type="curve"/>
      <point x="120" y="513"/>
      <point x="156" y="556"/>
      <point x="187" y="587" type="curve"/>
      <point x="198" y="594"/>
      <point x="211" y="593"/>
      <point x="212" y="587" type="curve"/>
      <point x="212" y="533"/>
      <point x="212" y="481"/>
    </contour>
  </outline>
</glyph>
<glyph name="v" format="1">
  <advance width="533"/>
  <unicode hex="0076"/>
  <outline>
    <contour>
      <point x="135" y="436" type="curve" smooth="yes"/>
      <point x="177" y="436"/>
      <point x="236" y="440"/>
      <point x="261" y="443" type="curve"/>
      <point x="266" y="438"/>
      <point x="266" y="412"/>
      <point x="261" y="406" type="curve"/>
      <point x="249" y="406"/>
      <point x="202" y="396"/>
      <point x="202" y="379" type="curve" smooth="yes"/>
      <point x="202" y="376"/>
      <point x="202" y="369"/>
      <point x="204" y="364" type="curve" smooth="yes"/>
      <point x="240" y="294"/>
      <point x="307" y="167"/>
      <point x="307" y="167" type="curve"/>
      <point x="307" y="167"/>
      <point x="353" y="268"/>
      <point x="386" y="342" type="curve" smooth="yes"/>
      <point x="391" y="352"/>
      <point x="397" y="368"/>
      <point x="397" y="379" type="curve" smooth="yes"/>
      <point x="397" y="404"/>
      <point x="334" y="406"/>
      <point x="326" y="406" type="curve"/>
      <point x="321" y="411"/>
      <point x="321" y="436"/>
      <point x="325" y="443" type="curve"/>
      <point x="355" y="439"/>
      <point x="391" y="436"/>
      <point x="430" y="436" type="curve" smooth="yes"/>
      <point x="472" y="436"/>
      <point x="519" y="441"/>
      <point x="534" y="443" type="curve"/>
      <point x="538" y="438"/>
      <point x="539" y="413"/>
      <point x="534" y="406" type="curve"/>
      <point x="522" y="406"/>
      <point x="467" y="402"/>
      <point x="453" y="373" type="curve" smooth="yes"/>
      <point x="299" y="45" type="line" smooth="yes"/>
      <point x="279" y="6"/>
      <point x="266" y="-11"/>
      <point x="254" y="-11" type="curve" smooth="yes"/>
      <point x="251" y="-11"/>
      <point x="245" y="-6"/>
      <point x="242" y="-3" type="curve"/>
      <point x="184" y="117"/>
      <point x="130" y="230"/>
      <point x="63" y="368" type="curve"/>
      <point x="50" y="398"/>
      <point x="8" y="406"/>
      <point x="-0" y="406" type="curve"/>
      <point x="-6" y="414"/>
      <point x="-4" y="437"/>
      <point x="-0" y="443" type="curve"/>
      <point x="26" y="440"/>
      <point x="96" y="436"/>
    </contour>
  </outline>
</glyph>
<glyph name="braceleft" format="1">
  <advance width="298"/>
  <unicode hex="007B"/>
  <outline>
    <contour>
      <point x="107" y="424" type="curve" smooth="yes"/>
      <point x="107" y="455"/>
      <point x="98" y="478"/>
      <point x="90" y="504" type="curve" smooth="yes"/>
      <point x="85" y="522"/>
      <point x="80" y="542"/>
      <point x="80" y="566" type="curve" smooth="yes"/>
      <point x="80" y="670"/>
      <point x="216" y="756"/>
      <point x="265" y="760" type="curve"/>
      <point x="268" y="760"/>
      <point x="278" y="742"/>
      <point x="272" y="734" type="curve"/>
      <point x="244" y="719"/>
      <point x="194" y="674"/>
      <point x="194" y="609" type="curve" smooth="yes"/>
      <point x="194" y="570"/>
      <point x="203" y="554"/>
      <point x="210" y="534" type="curve" smooth="yes"/>
      <point x="216" y="517"/>
      <point x="222" y="498"/>
      <point x="222" y="459" type="curve" smooth="yes"/>
      <point x="222" y="372"/>
      <point x="134" y="308"/>
      <point x="98" y="308" type="curve"/>
      <point x="134" y="308"/>
      <point x="222" y="244"/>
      <point x="222" y="157" type="curve" smooth="yes"/>
      <point x="222" y="118"/>
      <point x="216" y="99"/>
      <point x="210" y="82" type="curve" smooth="yes"/>
      <point x="203" y="62"/>
      <point x="194" y="46"/>
      <point x="194" y="7" type="curve" smooth="yes"/>
      <point x="194" y="-58"/>
      <point x="244" y="-103"/>
      <point x="272" y="-118" type="curve"/>
      <point x="278" y="-126"/>
      <point x="268" y="-144"/>
      <point x="265" y="-144" type="curve"/>
      <point x="216" y="-140"/>
      <point x="80" y="-54"/>
      <point x="80" y="50" type="curve" smooth="yes"/>
      <point x="80" y="81"/>
      <point x="87" y="104"/>
      <point x="94" y="126" type="curve" smooth="yes"/>
      <point x="100" y="147"/>
      <point x="107" y="167"/>
      <point x="107" y="192" type="curve" smooth="yes"/>
      <point x="107" y="245"/>
      <point x="61" y="284"/>
      <point x="19" y="297" type="curve"/>
      <point x="17" y="299"/>
      <point x="16" y="305"/>
      <point x="16" y="308" type="curve" smooth="yes"/>
      <point x="16" y="312"/>
      <point x="17" y="317"/>
      <point x="19" y="319" type="curve"/>
      <point x="61" y="332"/>
      <point x="107" y="371"/>
    </contour>
  </outline>
</glyph>
<glyph name="bar" format="1">
  <advance width="202"/>
  <unicode hex="007C"/>
  <outline>
    <contour>
      <point x="127" y="-108" type="line" smooth="yes"/>
      <point x="127" y="-116"/>
      <point x="81" y="-123"/>
      <point x="79" y="-123" type="curve" smooth="yes"/>
      <point x="72" y="-123"/>
      <point x="74" y="-119"/>
      <point x="74" y="-115" type="curve" smooth="yes"/>
      <point x="74" y="757" type="line"/>
      <point x="74" y="757"/>
      <point x="73" y="763"/>
      <point x="79" y="765" type="curve" smooth="yes"/>
      <point x="96" y="770"/>
      <point x="115" y="770"/>
      <point x="118" y="770" type="curve" smooth="yes"/>
      <point x="127" y="770"/>
      <point x="126" y="764"/>
      <point x="126" y="764" type="curve"/>
    </contour>
  </outline>
</glyph>
<glyph name="exclamdown" format="1">
  <advance width="247"/>
  <unicode hex="00A1"/>
  <outline>
    <contour>
      <point x="49" y="369" type="curve" smooth="yes"/>
      <point x="49" y="409"/>
      <point x="82" y="443"/>
      <point x="123" y="443" type="curve" smooth="yes"/>
      <point x="165" y="443"/>
      <point x="199" y="409"/>
      <point x="199" y="366" type="curve" smooth="yes"/>
      <point x="199" y="326"/>
      <point x="165" y="293"/>
      <point x="124" y="293" type="curve" smooth="yes"/>
      <point x="82" y="293"/>
      <point x="49" y="329"/>
    </contour>
    <contour>
      <point x="120" y="-210" type="curve" smooth="yes"/>
      <point x="89" y="-210"/>
      <point x="58" y="-185"/>
      <point x="58" y="-142" type="curve" smooth="yes"/>
      <point x="58" y="-114"/>
      <point x="87" y="123"/>
      <point x="100" y="211" type="curve"/>
      <point x="104" y="224"/>
      <point x="108" y="233"/>
      <point x="120" y="237" type="curve"/>
      <point x="125" y="237"/>
      <point x="137" y="230"/>
      <point x="143" y="220" type="curve"/>
      <point x="154" y="153"/>
      <point x="186" y="-92"/>
      <point x="186" y="-143" type="curve" smooth="yes"/>
      <point x="186" y="-185"/>
      <point x="156" y="-210"/>
    </contour>
  </outline>
</glyph>
<glyph name="cent" format="1">
  <advance width="482"/>
  <unicode hex="00A2"/>
  <outline>
    <contour>
      <point x="281" y="481" type="line"/>
      <point x="289" y="481"/>
      <point x="316" y="480"/>
      <point x="316" y="473" type="curve"/>
      <point x="233" y="-38" type="line"/>
      <point x="224" y="-38"/>
      <point x="201" y="-35"/>
      <point x="198" y="-29" type="curve"/>
    </contour>
    <contour>
      <point x="425" y="382" type="curve" smooth="yes"/>
      <point x="425" y="408"/>
      <point x="414" y="420"/>
      <point x="405" y="430" type="curve"/>
      <point x="394" y="437"/>
      <point x="359" y="448"/>
      <point x="304" y="448" type="curve" smooth="yes"/>
      <point x="166" y="448"/>
      <point x="43" y="322"/>
      <point x="43" y="200" type="curve" smooth="yes"/>
      <point x="43" y="69"/>
      <point x="141" y="-9"/>
      <point x="253" y="-9" type="curve" smooth="yes"/>
      <point x="348" y="-9"/>
      <point x="416" y="60"/>
      <point x="434" y="88" type="curve" smooth="yes"/>
      <point x="436" y="91"/>
      <point x="437" y="100"/>
      <point x="437" y="107" type="curve" smooth="yes"/>
      <point x="437" y="113"/>
      <point x="432" y="123"/>
      <point x="425" y="125" type="curve"/>
      <point x="404" y="102"/>
      <point x="371" y="75"/>
      <point x="313" y="75" type="curve" smooth="yes"/>
      <point x="249" y="75"/>
      <point x="169" y="118"/>
      <point x="169" y="258" type="curve" smooth="yes"/>
      <point x="169" y="319"/>
      <point x="195" y="396"/>
      <point x="239" y="396" type="curve" smooth="yes"/>
      <point x="264" y="396"/>
      <point x="290" y="384"/>
      <point x="307" y="365" type="curve" smooth="yes"/>
      <point x="323" y="347"/>
      <point x="340" y="320"/>
      <point x="367" y="320" type="curve" smooth="yes"/>
      <point x="403" y="320"/>
      <point x="425" y="353"/>
    </contour>
  </outline>
</glyph>
<glyph name="sterling" format="1">
  <advance width="478"/>
  <unicode hex="00A3"/>
  <outline>
    <contour>
      <point x="316" y="636" type="curve" smooth="yes"/>
      <point x="351" y="636"/>
      <point x="368" y="626"/>
      <point x="387" y="614" type="curve"/>
      <point x="391" y="610"/>
      <point x="396" y="592"/>
      <point x="396" y="582" type="curve" smooth="yes"/>
      <point x="396" y="546"/>
      <point x="374" y="523"/>
      <point x="347" y="523" type="curve" smooth="yes"/>
      <point x="319" y="523"/>
      <point x="307" y="535"/>
      <point x="296" y="549" type="curve" smooth="yes"/>
      <point x="284" y="564"/>
      <point x="271" y="580"/>
      <point x="253" y="580" type="curve" smooth="yes"/>
      <point x="213" y="580"/>
      <point x="204" y="528"/>
      <point x="204" y="459" type="curve" smooth="yes"/>
      <point x="204" y="385"/>
      <point x="244" y="339"/>
      <point x="244" y="283" type="curve" smooth="yes"/>
      <point x="244" y="208"/>
      <point x="198" y="145"/>
      <point x="173" y="122" type="curve"/>
      <point x="191" y="132"/>
      <point x="215" y="137"/>
      <point x="238" y="137" type="curve" smooth="yes"/>
      <point x="276" y="137"/>
      <point x="309" y="94"/>
      <point x="361" y="94" type="curve" smooth="yes"/>
      <point x="399" y="94"/>
      <point x="414" y="126"/>
      <point x="422" y="141" type="curve"/>
      <point x="426" y="143"/>
      <point x="434" y="139"/>
      <point x="438" y="134" type="curve" smooth="yes"/>
      <point x="443" y="128"/>
      <point x="443" y="121"/>
      <point x="443" y="115" type="curve"/>
      <point x="432" y="83"/>
      <point x="386" y="-8"/>
      <point x="308" y="-8" type="curve" smooth="yes"/>
      <point x="240" y="-8"/>
      <point x="213" y="51"/>
      <point x="139" y="51" type="curve" smooth="yes"/>
      <point x="113" y="51"/>
      <point x="79" y="10"/>
      <point x="62" y="-6" type="curve"/>
      <point x="54" y="-6"/>
      <point x="46" y="7"/>
      <point x="46" y="16" type="curve" smooth="yes"/>
      <point x="46" y="45"/>
      <point x="82" y="78"/>
      <point x="96" y="94" type="curve" smooth="yes"/>
      <point x="121" y="122"/>
      <point x="130" y="183"/>
      <point x="130" y="232" type="curve" smooth="yes"/>
      <point x="130" y="282"/>
      <point x="99" y="356"/>
      <point x="99" y="384" type="curve" smooth="yes"/>
      <point x="99" y="520"/>
      <point x="222" y="636"/>
    </contour>
    <contour>
      <point x="67" y="349" type="curve"/>
      <point x="83" y="349"/>
      <point x="372" y="349"/>
      <point x="383" y="349" type="curve"/>
      <point x="397" y="338"/>
      <point x="379" y="311"/>
      <point x="373" y="307" type="curve"/>
      <point x="47" y="307" type="line"/>
      <point x="41" y="313"/>
      <point x="58" y="349"/>
    </contour>
  </outline>
</glyph>
<glyph name="section" format="1">
  <advance width="467"/>
  <unicode hex="00A7"/>
  <outline>
    <contour>
      <point x="321" y="653" type="curve" smooth="yes"/>
      <point x="209" y="653"/>
      <point x="125" y="566"/>
      <point x="125" y="486" type="curve" smooth="yes"/>
      <point x="125" y="418"/>
      <point x="199" y="364"/>
      <point x="247" y="320" type="curve" smooth="yes"/>
      <point x="301" y="270"/>
      <point x="360" y="213"/>
      <point x="360" y="130" type="curve" smooth="yes"/>
      <point x="360" y="86"/>
      <point x="345" y="66"/>
      <point x="321" y="37" type="curve" smooth="yes"/>
      <point x="321" y="37"/>
      <point x="300" y="15"/>
      <point x="293" y="-3" type="curve" smooth="yes"/>
      <point x="288" y="-14"/>
      <point x="292" y="-22"/>
      <point x="291" y="-34" type="curve"/>
      <point x="329" y="-8"/>
      <point x="431" y="105"/>
      <point x="431" y="184" type="curve" smooth="yes"/>
      <point x="431" y="276"/>
      <point x="375" y="325"/>
      <point x="311" y="384" type="curve" smooth="yes"/>
      <point x="264" y="427"/>
      <point x="183" y="503"/>
      <point x="183" y="549" type="curve" smooth="yes"/>
      <point x="183" y="587"/>
      <point x="228" y="603"/>
      <point x="259" y="603" type="curve" smooth="yes"/>
      <point x="274" y="603"/>
      <point x="289" y="598"/>
      <point x="298" y="590" type="curve" smooth="yes"/>
      <point x="307" y="582"/>
      <point x="320" y="570"/>
      <point x="339" y="570" type="curve" smooth="yes"/>
      <point x="368" y="570"/>
      <point x="378" y="588"/>
      <point x="378" y="610" type="curve" smooth="yes"/>
      <point x="378" y="616"/>
      <point x="376" y="630"/>
      <point x="371" y="640" type="curve"/>
      <point x="357" y="646"/>
      <point x="335" y="653"/>
    </contour>
    <contour>
      <point x="146" y="-92" type="curve" smooth="yes"/>
      <point x="132" y="-92"/>
      <point x="108" y="-84"/>
      <point x="96" y="-78" type="curve"/>
      <point x="92" y="-71"/>
      <point x="89" y="-58"/>
      <point x="89" y="-52" type="curve" smooth="yes"/>
      <point x="89" y="-30"/>
      <point x="100" y="-9"/>
      <point x="129" y="-9" type="curve" smooth="yes"/>
      <point x="148" y="-9"/>
      <point x="163" y="-22"/>
      <point x="172" y="-31" type="curve" smooth="yes"/>
      <point x="180" y="-39"/>
      <point x="193" y="-42"/>
      <point x="208" y="-42" type="curve" smooth="yes"/>
      <point x="239" y="-42"/>
      <point x="284" y="-26"/>
      <point x="284" y="12" type="curve" smooth="yes"/>
      <point x="284" y="58"/>
      <point x="203" y="134"/>
      <point x="156" y="177" type="curve" smooth="yes"/>
      <point x="92" y="236"/>
      <point x="36" y="285"/>
      <point x="36" y="377" type="curve" smooth="yes"/>
      <point x="36" y="456"/>
      <point x="138" y="569"/>
      <point x="176" y="595" type="curve"/>
      <point x="175" y="583"/>
      <point x="179" y="575"/>
      <point x="174" y="564" type="curve" smooth="yes"/>
      <point x="167" y="546"/>
      <point x="146" y="523"/>
      <point x="146" y="523" type="curve" smooth="yes"/>
      <point x="120" y="492"/>
      <point x="107" y="475"/>
      <point x="107" y="431" type="curve" smooth="yes"/>
      <point x="107" y="348"/>
      <point x="166" y="291"/>
      <point x="220" y="241" type="curve" smooth="yes"/>
      <point x="268" y="197"/>
      <point x="342" y="143"/>
      <point x="342" y="75" type="curve" smooth="yes"/>
      <point x="342" y="-5"/>
      <point x="258" y="-92"/>
    </contour>
  </outline>
</glyph>
<glyph name="dieresis" format="1">
  <advance width="407"/>
  <unicode hex="00A8"/>
  <outline>
    <contour>
      <point x="308" y="581" type="curve" smooth="yes"/>
      <point x="346" y="581"/>
      <point x="376" y="552"/>
      <point x="376" y="514" type="curve" smooth="yes"/>
      <point x="376" y="476"/>
      <point x="346" y="446"/>
      <point x="308" y="446" type="curve" smooth="yes"/>
      <point x="270" y="446"/>
      <point x="240" y="476"/>
      <point x="240" y="514" type="curve" smooth="yes"/>
      <point x="240" y="552"/>
      <point x="270" y="581"/>
    </contour>
    <contour>
      <point x="97" y="581" type="curve" smooth="yes"/>
      <point x="135" y="581"/>
      <point x="165" y="552"/>
      <point x="165" y="514" type="curve" smooth="yes"/>
      <point x="165" y="476"/>
      <point x="135" y="446"/>
      <point x="97" y="446" type="curve" smooth="yes"/>
      <point x="59" y="446"/>
      <point x="30" y="476"/>
      <point x="30" y="514" type="curve" smooth="yes"/>
      <point x="30" y="552"/>
      <point x="59" y="581"/>
    </contour>
  </outline>
</glyph>
<glyph name="copyright" format="1">
  <advance width="653"/>
  <unicode hex="00A9"/>
  <outline>
    <contour>
      <point x="441" y="252" type="curve"/>
      <point x="441" y="247"/>
      <point x="430" y="191"/>
      <point x="424" y="189" type="curve" smooth="yes"/>
      <point x="398" y="180"/>
      <point x="367" y="163"/>
      <point x="329" y="163" type="curve" smooth="yes"/>
      <point x="244" y="163"/>
      <point x="184" y="217"/>
      <point x="184" y="305" type="curve" smooth="yes"/>
      <point x="184" y="394"/>
      <point x="255" y="455"/>
      <point x="333" y="455" type="curve" smooth="yes"/>
      <point x="360" y="455"/>
      <point x="396" y="444"/>
      <point x="420" y="439" type="curve"/>
      <point x="421" y="434"/>
      <point x="434" y="382"/>
      <point x="434" y="377" type="curve" smooth="yes"/>
      <point x="434" y="375"/>
      <point x="424" y="371"/>
      <point x="419" y="371" type="curve" smooth="yes"/>
      <point x="417" y="371"/>
      <point x="415" y="370"/>
      <point x="413" y="372" type="curve"/>
      <point x="409" y="388"/>
      <point x="394" y="429"/>
      <point x="336" y="429" type="curve" smooth="yes"/>
      <point x="278" y="429"/>
      <point x="256" y="368"/>
      <point x="256" y="310" type="curve" smooth="yes"/>
      <point x="256" y="246"/>
      <point x="283" y="188"/>
      <point x="341" y="188" type="curve" smooth="yes"/>
      <point x="366" y="188"/>
      <point x="382" y="195"/>
      <point x="393" y="205" type="curve" smooth="yes"/>
      <point x="410" y="221"/>
      <point x="421" y="253"/>
      <point x="422" y="256" type="curve"/>
      <point x="428" y="256"/>
      <point x="438" y="255"/>
    </contour>
    <contour>
      <point x="98" y="310" type="curve" smooth="yes"/>
      <point x="98" y="184"/>
      <point x="200" y="82"/>
      <point x="326" y="82" type="curve" smooth="yes"/>
      <point x="452" y="82"/>
      <point x="554" y="184"/>
      <point x="554" y="310" type="curve" smooth="yes"/>
      <point x="554" y="436"/>
      <point x="452" y="538"/>
      <point x="326" y="538" type="curve" smooth="yes"/>
      <point x="200" y="538"/>
      <point x="98" y="436"/>
    </contour>
    <contour>
      <point x="53" y="311" type="curve" smooth="yes"/>
      <point x="53" y="462"/>
      <point x="175" y="584"/>
      <point x="326" y="584" type="curve" smooth="yes"/>
      <point x="477" y="584"/>
      <point x="600" y="462"/>
      <point x="600" y="311" type="curve" smooth="yes"/>
      <point x="600" y="160"/>
      <point x="477" y="38"/>
      <point x="326" y="38" type="curve" smooth="yes"/>
      <point x="175" y="38"/>
      <point x="53" y="160"/>
    </contour>
  </outline>
</glyph>
<glyph name="ordfeminine" format="1">
  <advance width="387"/>
  <unicode hex="00AA"/>
  <outline>
    <contour>
      <point x="186" y="296" type="curve" smooth="yes"/>
      <point x="201" y="296"/>
      <point x="215" y="307"/>
      <point x="215" y="311" type="curve" smooth="yes"/>
      <point x="215" y="399" type="line"/>
      <point x="201" y="394"/>
      <point x="181" y="388"/>
      <point x="166" y="379" type="curve" smooth="yes"/>
      <point x="146" y="367"/>
      <point x="141" y="352"/>
      <point x="141" y="337" type="curve" smooth="yes"/>
      <point x="142" y="308"/>
      <point x="167" y="296"/>
    </contour>
    <contour>
      <point x="201" y="557" type="curve" smooth="yes"/>
      <point x="261" y="557"/>
      <point x="310" y="513"/>
      <point x="310" y="452" type="curve" smooth="yes"/>
      <point x="310" y="327" type="line" smooth="yes"/>
      <point x="310" y="309"/>
      <point x="319" y="302"/>
      <point x="328" y="302" type="curve" smooth="yes"/>
      <point x="338" y="302"/>
      <point x="348" y="310"/>
      <point x="351" y="311" type="curve"/>
      <point x="354" y="310"/>
      <point x="358" y="301"/>
      <point x="358" y="297" type="curve" smooth="yes"/>
      <point x="358" y="292"/>
      <point x="356" y="288"/>
      <point x="354" y="285" type="curve"/>
      <point x="344" y="276"/>
      <point x="307" y="249"/>
      <point x="276" y="249" type="curve" smooth="yes"/>
      <point x="252" y="249"/>
      <point x="227" y="264"/>
      <point x="220" y="280" type="curve"/>
      <point x="213" y="275"/>
      <point x="165" y="248"/>
      <point x="139" y="248" type="curve" smooth="yes"/>
      <point x="84" y="248"/>
      <point x="43" y="290"/>
      <point x="43" y="330" type="curve" smooth="yes"/>
      <point x="43" y="356"/>
      <point x="63" y="379"/>
      <point x="81" y="386" type="curve" smooth="yes"/>
      <point x="108" y="396"/>
      <point x="178" y="422"/>
      <point x="215" y="435" type="curve"/>
      <point x="215" y="440"/>
      <point x="215" y="440"/>
      <point x="215" y="445" type="curve" smooth="yes"/>
      <point x="215" y="463" type="line" smooth="yes"/>
      <point x="215" y="497"/>
      <point x="198" y="527"/>
      <point x="173" y="527" type="curve" smooth="yes"/>
      <point x="145" y="527"/>
      <point x="138" y="503"/>
      <point x="131" y="473" type="curve" smooth="yes"/>
      <point x="127" y="458"/>
      <point x="115" y="444"/>
      <point x="90" y="444" type="curve" smooth="yes"/>
      <point x="70" y="444"/>
      <point x="52" y="457"/>
      <point x="52" y="476" type="curve" smooth="yes"/>
      <point x="52" y="485"/>
      <point x="56" y="496"/>
      <point x="62" y="505" type="curve"/>
      <point x="71" y="514"/>
      <point x="137" y="557"/>
    </contour>
  </outline>
</glyph>
<glyph name="macron" format="1">
  <advance width="469"/>
  <unicode hex="00AF"/>
  <outline>
    <contour>
      <point x="562" y="556" type="curve" smooth="yes"/>
      <point x="562" y="558"/>
      <point x="563" y="597"/>
      <point x="574" y="597" type="curve" smooth="yes"/>
      <point x="789" y="597" type="line" smooth="yes"/>
      <point x="791" y="597"/>
      <point x="794" y="596"/>
      <point x="794" y="590" type="curve" smooth="yes"/>
      <point x="794" y="585"/>
      <point x="793" y="572"/>
      <point x="788" y="554" type="curve" smooth="yes"/>
      <point x="786" y="548"/>
      <point x="781" y="547"/>
      <point x="781" y="547" type="curve"/>
      <point x="568" y="547" type="line"/>
      <point x="568" y="547"/>
      <point x="562" y="546"/>
    </contour>
  </outline>
</glyph>
<glyph name="plusminus" format="1">
  <advance width="582"/>
  <unicode hex="00B1"/>
  <outline>
    <contour>
      <point x="61" y="67" type="curve"/>
      <point x="522" y="67" type="line" smooth="yes"/>
      <point x="528" y="67"/>
      <point x="531" y="59"/>
      <point x="531" y="53" type="curve" smooth="yes"/>
      <point x="531" y="32"/>
      <point x="524" y="19"/>
      <point x="516" y="9" type="curve"/>
      <point x="56" y="9" type="line" smooth="yes"/>
      <point x="51" y="9"/>
      <point x="50" y="15"/>
      <point x="50" y="25" type="curve" smooth="yes"/>
      <point x="50" y="29"/>
      <point x="53" y="55"/>
    </contour>
    <contour>
      <point x="61" y="364" type="curve"/>
      <point x="260" y="364" type="line"/>
      <point x="260" y="563" type="line"/>
      <point x="271" y="572"/>
      <point x="298" y="574"/>
      <point x="302" y="574" type="curve" smooth="yes"/>
      <point x="312" y="574"/>
      <point x="318" y="572"/>
      <point x="318" y="565" type="curve" smooth="yes"/>
      <point x="318" y="364" type="line"/>
      <point x="522" y="364" type="line" smooth="yes"/>
      <point x="528" y="364"/>
      <point x="531" y="356"/>
      <point x="531" y="350" type="curve" smooth="yes"/>
      <point x="531" y="329"/>
      <point x="524" y="316"/>
      <point x="516" y="306" type="curve"/>
      <point x="318" y="306" type="line"/>
      <point x="318" y="108" type="line"/>
      <point x="306" y="100"/>
      <point x="281" y="97"/>
      <point x="271" y="97" type="curve" smooth="yes"/>
      <point x="265" y="97"/>
      <point x="260" y="101"/>
      <point x="260" y="105" type="curve" smooth="yes"/>
      <point x="260" y="306" type="line"/>
      <point x="56" y="306" type="line" smooth="yes"/>
      <point x="51" y="306"/>
      <point x="50" y="312"/>
      <point x="50" y="322" type="curve" smooth="yes"/>
      <point x="50" y="326"/>
      <point x="53" y="352"/>
    </contour>
  </outline>
</glyph>
<glyph name="uni00B2" format="1">
  <advance width="352"/>
  <unicode hex="00B2"/>
  <outline>
    <contour>
      <point x="310" y="382" type="curve"/>
      <point x="303" y="353"/>
      <point x="276" y="265"/>
      <point x="272" y="254" type="curve"/>
      <point x="45" y="254" type="line"/>
      <point x="42" y="257"/>
      <point x="39" y="265"/>
      <point x="38" y="268" type="curve"/>
      <point x="86" y="321"/>
      <point x="109" y="347"/>
      <point x="157" y="409" type="curve" smooth="yes"/>
      <point x="192" y="454"/>
      <point x="204" y="487"/>
      <point x="204" y="525" type="curve" smooth="yes"/>
      <point x="204" y="565"/>
      <point x="174" y="589"/>
      <point x="140" y="589" type="curve" smooth="yes"/>
      <point x="96" y="589"/>
      <point x="74" y="545"/>
      <point x="69" y="540" type="curve"/>
      <point x="66" y="540"/>
      <point x="53" y="542"/>
      <point x="53" y="554" type="curve"/>
      <point x="64" y="577"/>
      <point x="113" y="642"/>
      <point x="183" y="642" type="curve" smooth="yes"/>
      <point x="253" y="642"/>
      <point x="299" y="607"/>
      <point x="299" y="538" type="curve" smooth="yes"/>
      <point x="299" y="484"/>
      <point x="256" y="438"/>
      <point x="218" y="403" type="curve" smooth="yes"/>
      <point x="188" y="376"/>
      <point x="160" y="352"/>
      <point x="123" y="325" type="curve"/>
      <point x="235" y="325" type="line" smooth="yes"/>
      <point x="265" y="325"/>
      <point x="275" y="358"/>
      <point x="285" y="380" type="curve" smooth="yes"/>
      <point x="286" y="383"/>
      <point x="292" y="385"/>
      <point x="296" y="385" type="curve" smooth="yes"/>
      <point x="300" y="385"/>
      <point x="307" y="384"/>
    </contour>
  </outline>
</glyph>
<glyph name="uni00B3" format="1">
  <advance width="338"/>
  <unicode hex="00B3"/>
  <outline>
    <contour>
      <point x="179" y="642" type="curve" smooth="yes"/>
      <point x="215" y="642"/>
      <point x="275" y="619"/>
      <point x="275" y="558" type="curve" smooth="yes"/>
      <point x="275" y="497"/>
      <point x="224" y="481"/>
      <point x="202" y="477" type="curve"/>
      <point x="222" y="476"/>
      <point x="304" y="452"/>
      <point x="304" y="377" type="curve" smooth="yes"/>
      <point x="304" y="288"/>
      <point x="206" y="245"/>
      <point x="128" y="245" type="curve" smooth="yes"/>
      <point x="88" y="245"/>
      <point x="57" y="256"/>
      <point x="45" y="266" type="curve"/>
      <point x="41" y="272"/>
      <point x="36" y="284"/>
      <point x="36" y="293" type="curve" smooth="yes"/>
      <point x="36" y="308"/>
      <point x="47" y="328"/>
      <point x="68" y="328" type="curve" smooth="yes"/>
      <point x="85" y="328"/>
      <point x="97" y="314"/>
      <point x="108" y="297" type="curve" smooth="yes"/>
      <point x="118" y="281"/>
      <point x="137" y="272"/>
      <point x="153" y="272" type="curve" smooth="yes"/>
      <point x="191" y="272"/>
      <point x="214" y="299"/>
      <point x="214" y="354" type="curve" smooth="yes"/>
      <point x="214" y="400"/>
      <point x="183" y="443"/>
      <point x="142" y="443" type="curve" smooth="yes"/>
      <point x="138" y="443"/>
      <point x="120" y="443"/>
      <point x="110" y="440" type="curve"/>
      <point x="108" y="443"/>
      <point x="104" y="450"/>
      <point x="104" y="455" type="curve" smooth="yes"/>
      <point x="104" y="457"/>
      <point x="105" y="465"/>
      <point x="106" y="467" type="curve"/>
      <point x="137" y="471"/>
      <point x="195" y="488"/>
      <point x="195" y="538" type="curve" smooth="yes"/>
      <point x="195" y="571"/>
      <point x="172" y="596"/>
      <point x="135" y="596" type="curve" smooth="yes"/>
      <point x="102" y="596"/>
      <point x="75" y="568"/>
      <point x="71" y="563" type="curve"/>
      <point x="67" y="564"/>
      <point x="55" y="570"/>
      <point x="57" y="580" type="curve"/>
      <point x="80" y="610"/>
      <point x="131" y="642"/>
    </contour>
  </outline>
</glyph>
<glyph name="periodcentered" format="1">
  <advance width="241"/>
  <unicode hex="00B7"/>
  <outline>
    <contour>
      <point x="47" y="265" type="curve" smooth="yes"/>
      <point x="47" y="305"/>
      <point x="80" y="338"/>
      <point x="121" y="338" type="curve" smooth="yes"/>
      <point x="161" y="338"/>
      <point x="194" y="305"/>
      <point x="194" y="265" type="curve" smooth="yes"/>
      <point x="194" y="225"/>
      <point x="163" y="189"/>
      <point x="123" y="189" type="curve" smooth="yes"/>
      <point x="81" y="189"/>
      <point x="47" y="225"/>
    </contour>
  </outline>
</glyph>
<glyph name="cedilla" format="1">
  <advance width="454"/>
  <unicode hex="00B8"/>
  <outline>
    <contour>
      <point x="233" y="-25" type="curve"/>
      <point x="241" y="-24"/>
      <point x="246" y="-23"/>
      <point x="255" y="-23" type="curve" smooth="yes"/>
      <point x="282" y="-23"/>
      <point x="305" y="-46"/>
      <point x="305" y="-72" type="curve" smooth="yes"/>
      <point x="305" y="-119"/>
      <point x="269" y="-156"/>
      <point x="208" y="-156" type="curve" smooth="yes"/>
      <point x="186" y="-156"/>
      <point x="167" y="-147"/>
      <point x="160" y="-140" type="curve"/>
      <point x="158" y="-137"/>
      <point x="156" y="-124"/>
      <point x="156" y="-120" type="curve" smooth="yes"/>
      <point x="156" y="-114"/>
      <point x="157" y="-113"/>
      <point x="159" y="-113" type="curve"/>
      <point x="163" y="-115"/>
      <point x="186" y="-128"/>
      <point x="207" y="-128" type="curve" smooth="yes"/>
      <point x="241" y="-128"/>
      <point x="251" y="-112"/>
      <point x="251" y="-98" type="curve" smooth="yes"/>
      <point x="251" y="-84"/>
      <point x="246" y="-65"/>
      <point x="225" y="-65" type="curve" smooth="yes"/>
      <point x="219" y="-65"/>
      <point x="209" y="-68"/>
      <point x="199" y="-72" type="curve"/>
      <point x="196" y="-72"/>
      <point x="186" y="-63"/>
      <point x="186" y="-57" type="curve"/>
      <point x="195" y="-42"/>
      <point x="208" y="-17"/>
      <point x="214" y="-2" type="curve"/>
      <point x="246" y="-2" type="line"/>
      <point x="246" y="-2"/>
      <point x="238" y="-16"/>
    </contour>
  </outline>
</glyph>
<glyph name="uni00B9" format="1">
  <advance width="291"/>
  <unicode hex="00B9"/>
  <outline>
    <contour>
      <point x="114" y="511" type="line" smooth="yes"/>
      <point x="114" y="538"/>
      <point x="107" y="558"/>
      <point x="95" y="558" type="curve" smooth="yes"/>
      <point x="86" y="558"/>
      <point x="61" y="547"/>
      <point x="50" y="542" type="curve"/>
      <point x="45" y="543"/>
      <point x="39" y="554"/>
      <point x="39" y="562" type="curve" smooth="yes"/>
      <point x="39" y="563"/>
      <point x="39" y="568"/>
      <point x="40" y="569" type="curve"/>
      <point x="111" y="599"/>
      <point x="194" y="641"/>
      <point x="196" y="641" type="curve" smooth="yes"/>
      <point x="197" y="641" type="line" smooth="yes"/>
      <point x="201" y="641"/>
      <point x="212" y="624"/>
      <point x="213" y="621" type="curve"/>
      <point x="210" y="610"/>
      <point x="201" y="575"/>
      <point x="201" y="536" type="curve" smooth="yes"/>
      <point x="201" y="346" type="line" smooth="yes"/>
      <point x="201" y="328"/>
      <point x="204" y="298"/>
      <point x="211" y="291" type="curve" smooth="yes"/>
      <point x="219" y="282"/>
      <point x="253" y="278"/>
      <point x="258" y="278" type="curve"/>
      <point x="260" y="278"/>
      <point x="259" y="253"/>
      <point x="258" y="252" type="curve"/>
      <point x="234" y="253"/>
      <point x="182" y="256"/>
      <point x="158" y="256" type="curve" smooth="yes"/>
      <point x="134" y="256"/>
      <point x="80" y="253"/>
      <point x="56" y="252" type="curve"/>
      <point x="53" y="255"/>
      <point x="53" y="278"/>
      <point x="56" y="278" type="curve"/>
      <point x="64" y="278"/>
      <point x="97" y="284"/>
      <point x="104" y="292" type="curve" smooth="yes"/>
      <point x="109" y="298"/>
      <point x="114" y="336"/>
      <point x="114" y="347" type="curve" smooth="yes"/>
    </contour>
  </outline>
</glyph>
<glyph name="ordmasculine" format="1">
  <advance width="406"/>
  <unicode hex="00BA"/>
  <outline>
    <contour>
      <point x="194" y="523" type="curve" smooth="yes"/>
      <point x="141" y="523"/>
      <point x="137" y="461"/>
      <point x="137" y="413" type="curve" smooth="yes"/>
      <point x="137" y="355"/>
      <point x="158" y="282"/>
      <point x="211" y="282" type="curve" smooth="yes"/>
      <point x="264" y="282"/>
      <point x="269" y="343"/>
      <point x="269" y="390" type="curve" smooth="yes"/>
      <point x="269" y="448"/>
      <point x="247" y="523"/>
    </contour>
    <contour>
      <point x="202" y="553" type="curve" smooth="yes"/>
      <point x="301" y="553"/>
      <point x="371" y="489"/>
      <point x="371" y="405" type="curve" smooth="yes"/>
      <point x="371" y="321"/>
      <point x="298" y="251"/>
      <point x="203" y="251" type="curve" smooth="yes"/>
      <point x="104" y="251"/>
      <point x="35" y="316"/>
      <point x="35" y="400" type="curve" smooth="yes"/>
      <point x="35" y="484"/>
      <point x="108" y="553"/>
    </contour>
  </outline>
</glyph>
<glyph name="guillemotright" format="1">
  <advance width="502"/>
  <unicode hex="00BB"/>
  <outline>
    <contour>
      <point x="289" y="248" type="curve" smooth="yes"/>
      <point x="289" y="243"/>
      <point x="286" y="237"/>
      <point x="282" y="233" type="curve"/>
      <point x="151" y="154"/>
      <point x="77" y="77"/>
      <point x="72" y="73" type="curve"/>
      <point x="66" y="74"/>
      <point x="49" y="82"/>
      <point x="45" y="92" type="curve"/>
      <point x="49" y="98"/>
      <point x="142" y="212"/>
      <point x="179" y="248" type="curve"/>
      <point x="142" y="284"/>
      <point x="49" y="398"/>
      <point x="45" y="404" type="curve"/>
      <point x="49" y="414"/>
      <point x="66" y="422"/>
      <point x="72" y="423" type="curve"/>
      <point x="77" y="419"/>
      <point x="151" y="342"/>
      <point x="282" y="263" type="curve"/>
      <point x="286" y="259"/>
      <point x="289" y="253"/>
    </contour>
    <contour>
      <point x="476" y="248" type="curve" smooth="yes"/>
      <point x="476" y="243"/>
      <point x="473" y="237"/>
      <point x="469" y="233" type="curve"/>
      <point x="338" y="154"/>
      <point x="264" y="77"/>
      <point x="259" y="73" type="curve"/>
      <point x="253" y="74"/>
      <point x="236" y="82"/>
      <point x="232" y="92" type="curve"/>
      <point x="236" y="98"/>
      <point x="329" y="212"/>
      <point x="366" y="248" type="curve"/>
      <point x="329" y="284"/>
      <point x="236" y="398"/>
      <point x="232" y="404" type="curve"/>
      <point x="236" y="414"/>
      <point x="253" y="422"/>
      <point x="259" y="423" type="curve"/>
      <point x="264" y="419"/>
      <point x="338" y="342"/>
      <point x="469" y="263" type="curve"/>
      <point x="473" y="259"/>
      <point x="476" y="253"/>
    </contour>
  </outline>
</glyph>
<glyph name="threequarters" format="1">
  <advance width="740"/>
  <unicode hex="00BE"/>
  <outline>
    <contour>
      <point x="647" y="386" type="curve" smooth="yes"/>
      <point x="651" y="386"/>
      <point x="667" y="377"/>
      <point x="667" y="367" type="curve" smooth="yes"/>
      <point x="667" y="138" type="line"/>
      <point x="692" y="138" type="line"/>
      <point x="705" y="126"/>
      <point x="708" y="110"/>
      <point x="702" y="92" type="curve"/>
      <point x="667" y="92" type="line"/>
      <point x="667" y="2" type="line"/>
      <point x="667" y="2"/>
      <point x="647" y="-3"/>
      <point x="620" y="-3" type="curve" smooth="yes"/>
      <point x="598" y="-3"/>
      <point x="580" y="0"/>
      <point x="580" y="5" type="curve" smooth="yes"/>
      <point x="580" y="92" type="line"/>
      <point x="427" y="92" type="line"/>
      <point x="422" y="94"/>
      <point x="415" y="101"/>
      <point x="415" y="109" type="curve"/>
      <point x="490" y="199"/>
      <point x="569" y="298"/>
      <point x="634" y="378" type="curve" smooth="yes"/>
      <point x="638" y="383"/>
      <point x="642" y="386"/>
    </contour>
    <contour>
      <point x="580" y="138" type="curve"/>
      <point x="580" y="262" type="line"/>
      <point x="557" y="235"/>
      <point x="490" y="152"/>
      <point x="478" y="138" type="curve"/>
      <point x="473" y="138"/>
      <point x="548" y="138"/>
    </contour>
    <contour>
      <point x="177" y="642" type="curve" smooth="yes"/>
      <point x="213" y="642"/>
      <point x="273" y="619"/>
      <point x="273" y="558" type="curve" smooth="yes"/>
      <point x="273" y="497"/>
      <point x="222" y="481"/>
      <point x="200" y="477" type="curve"/>
      <point x="220" y="476"/>
      <point x="302" y="452"/>
      <point x="302" y="377" type="curve" smooth="yes"/>
      <point x="302" y="288"/>
      <point x="204" y="245"/>
      <point x="126" y="245" type="curve" smooth="yes"/>
      <point x="86" y="245"/>
      <point x="55" y="256"/>
      <point x="43" y="266" type="curve"/>
      <point x="39" y="272"/>
      <point x="34" y="284"/>
      <point x="34" y="293" type="curve" smooth="yes"/>
      <point x="34" y="308"/>
      <point x="45" y="328"/>
      <point x="66" y="328" type="curve" smooth="yes"/>
      <point x="83" y="328"/>
      <point x="95" y="314"/>
      <point x="106" y="297" type="curve" smooth="yes"/>
      <point x="116" y="281"/>
      <point x="135" y="272"/>
      <point x="151" y="272" type="curve" smooth="yes"/>
      <point x="189" y="272"/>
      <point x="212" y="299"/>
      <point x="212" y="354" type="curve" smooth="yes"/>
      <point x="212" y="400"/>
      <point x="181" y="443"/>
      <point x="140" y="443" type="curve" smooth="yes"/>
      <point x="136" y="443"/>
      <point x="118" y="443"/>
      <point x="108" y="440" type="curve"/>
      <point x="106" y="443"/>
      <point x="102" y="450"/>
      <point x="102" y="455" type="curve" smooth="yes"/>
      <point x="102" y="457"/>
      <point x="103" y="465"/>
      <point x="104" y="467" type="curve"/>
      <point x="135" y="471"/>
      <point x="193" y="488"/>
      <point x="193" y="538" type="curve" smooth="yes"/>
      <point x="193" y="571"/>
      <point x="170" y="596"/>
      <point x="133" y="596" type="curve" smooth="yes"/>
      <point x="100" y="596"/>
      <point x="73" y="568"/>
      <point x="69" y="563" type="curve"/>
      <point x="65" y="564"/>
      <point x="53" y="570"/>
      <point x="55" y="580" type="curve"/>
      <point x="78" y="610"/>
      <point x="129" y="642"/>
    </contour>
    <contour>
      <point x="614" y="677" type="curve"/>
      <point x="269" y="-11" type="line" smooth="yes"/>
      <point x="266" y="-18"/>
      <point x="249" y="-30"/>
      <point x="232" y="-34" type="curve" smooth="yes"/>
      <point x="217" y="-37"/>
      <point x="215" y="-25"/>
      <point x="215" y="-25" type="curve"/>
      <point x="560" y="663" type="line"/>
      <point x="566" y="672"/>
      <point x="579" y="680"/>
      <point x="596" y="684" type="curve" smooth="yes"/>
      <point x="605" y="686"/>
      <point x="613" y="682"/>
    </contour>
  </outline>
</glyph>
<glyph name="questiondown" format="1">
  <advance width="388"/>
  <unicode hex="00BF"/>
  <outline>
    <contour>
      <point x="330" y="367" type="curve" smooth="yes"/>
      <point x="330" y="325"/>
      <point x="296" y="294"/>
      <point x="258" y="294" type="curve" smooth="yes"/>
      <point x="216" y="294"/>
      <point x="183" y="326"/>
      <point x="183" y="367" type="curve" smooth="yes"/>
      <point x="183" y="408"/>
      <point x="214" y="444"/>
      <point x="254" y="444" type="curve" smooth="yes"/>
      <point x="291" y="444"/>
      <point x="330" y="412"/>
    </contour>
    <contour>
      <point x="283" y="225" type="curve"/>
      <point x="290" y="209"/>
      <point x="303" y="165"/>
      <point x="303" y="125" type="curve" smooth="yes"/>
      <point x="303" y="67"/>
      <point x="259" y="35"/>
      <point x="223" y="11" type="curve" smooth="yes"/>
      <point x="173" y="-22"/>
      <point x="117" y="-65"/>
      <point x="117" y="-99" type="curve" smooth="yes"/>
      <point x="117" y="-120"/>
      <point x="135" y="-147"/>
      <point x="171" y="-147" type="curve" smooth="yes"/>
      <point x="207" y="-147"/>
      <point x="239" y="-85"/>
      <point x="281" y="-85" type="curve" smooth="yes"/>
      <point x="319" y="-85"/>
      <point x="343" y="-118"/>
      <point x="343" y="-151" type="curve" smooth="yes"/>
      <point x="343" y="-168"/>
      <point x="335" y="-191"/>
      <point x="328" y="-197" type="curve"/>
      <point x="314" y="-205"/>
      <point x="287" y="-214"/>
      <point x="238" y="-214" type="curve" smooth="yes"/>
      <point x="193" y="-214"/>
      <point x="32" y="-177"/>
      <point x="32" y="-38" type="curve" smooth="yes"/>
      <point x="32" y="50"/>
      <point x="105" y="84"/>
      <point x="158" y="117" type="curve" smooth="yes"/>
      <point x="185" y="134"/>
      <point x="223" y="152"/>
      <point x="240" y="177" type="curve" smooth="yes"/>
      <point x="247" y="187"/>
      <point x="245" y="209"/>
      <point x="245" y="219" type="curve"/>
      <point x="247" y="225"/>
      <point x="255" y="237"/>
      <point x="260" y="237" type="curve" smooth="yes"/>
      <point x="268" y="237"/>
      <point x="279" y="229"/>
    </contour>
  </outline>
</glyph>
<glyph name="multiply" format="1">
  <advance width="465"/>
  <unicode hex="00D7"/>
  <outline>
    <contour>
      <point x="196" y="248" type="curve"/>
      <point x="54" y="390" type="line"/>
      <point x="54" y="404"/>
      <point x="73" y="431"/>
      <point x="82" y="431" type="curve" smooth="yes"/>
      <point x="85" y="431"/>
      <point x="87" y="431"/>
      <point x="89" y="429" type="curve" smooth="yes"/>
      <point x="89" y="429"/>
      <point x="234" y="289"/>
      <point x="236" y="287" type="curve"/>
      <point x="379" y="429" type="line" smooth="yes"/>
      <point x="380" y="430"/>
      <point x="382" y="431"/>
      <point x="385" y="431" type="curve" smooth="yes"/>
      <point x="394" y="431"/>
      <point x="411" y="397"/>
      <point x="411" y="387" type="curve"/>
      <point x="411" y="387"/>
      <point x="276" y="253"/>
      <point x="273" y="250" type="curve"/>
      <point x="274" y="249"/>
      <point x="411" y="107"/>
      <point x="411" y="107" type="curve"/>
      <point x="411" y="92"/>
      <point x="396" y="64"/>
      <point x="385" y="64" type="curve" smooth="yes"/>
      <point x="383" y="64"/>
      <point x="380" y="64"/>
      <point x="378" y="66" type="curve" smooth="yes"/>
      <point x="378" y="66"/>
      <point x="234" y="210"/>
      <point x="233" y="211" type="curve"/>
      <point x="86" y="64" type="line" smooth="yes"/>
      <point x="84" y="62"/>
      <point x="82" y="62"/>
      <point x="80" y="62" type="curve" smooth="yes"/>
      <point x="71" y="62"/>
      <point x="54" y="97"/>
      <point x="54" y="107" type="curve"/>
      <point x="54" y="107"/>
      <point x="192" y="244"/>
    </contour>
  </outline>
</glyph>
<glyph name="Oslash" format="1">
  <advance width="759"/>
  <unicode hex="00D8"/>
  <outline>
    <contour>
      <point x="541" y="676" type="line"/>
      <point x="549" y="673"/>
      <point x="581" y="662"/>
      <point x="579" y="655" type="curve"/>
      <point x="202" y="-18" type="line"/>
      <point x="194" y="-15"/>
      <point x="162" y="-3"/>
      <point x="164" y="4" type="curve"/>
    </contour>
    <component base="O"/>
  </outline>
</glyph>
<glyph name="germandbls" format="1">
  <advance width="590"/>
  <unicode hex="00DF"/>
  <outline>
    <contour>
      <point x="328" y="698" type="curve" smooth="yes"/>
      <point x="414" y="698"/>
      <point x="503" y="643"/>
      <point x="503" y="563" type="curve" smooth="yes"/>
      <point x="503" y="515"/>
      <point x="475" y="490"/>
      <point x="452" y="470" type="curve" smooth="yes"/>
      <point x="429" y="450"/>
      <point x="393" y="425"/>
      <point x="393" y="402" type="curve" smooth="yes"/>
      <point x="393" y="365"/>
      <point x="460" y="315"/>
      <point x="490" y="286" type="curve" smooth="yes"/>
      <point x="526" y="251"/>
      <point x="562" y="214"/>
      <point x="562" y="153" type="curve" smooth="yes"/>
      <point x="562" y="52"/>
      <point x="468" y="-10"/>
      <point x="392" y="-10" type="curve" smooth="yes"/>
      <point x="358" y="-10"/>
      <point x="317" y="0"/>
      <point x="301" y="17" type="curve"/>
      <point x="296" y="27"/>
      <point x="292" y="40"/>
      <point x="292" y="54" type="curve" smooth="yes"/>
      <point x="292" y="86"/>
      <point x="311" y="122"/>
      <point x="341" y="122" type="curve" smooth="yes"/>
      <point x="376" y="122"/>
      <point x="389" y="88"/>
      <point x="398" y="70" type="curve" smooth="yes"/>
      <point x="407" y="52"/>
      <point x="419" y="34"/>
      <point x="438" y="34" type="curve" smooth="yes"/>
      <point x="461" y="34"/>
      <point x="470" y="53"/>
      <point x="470" y="82" type="curve" smooth="yes"/>
      <point x="470" y="131"/>
      <point x="426" y="170"/>
      <point x="386" y="210" type="curve" smooth="yes"/>
      <point x="345" y="251"/>
      <point x="290" y="290"/>
      <point x="290" y="348" type="curve" smooth="yes"/>
      <point x="290" y="377"/>
      <point x="318" y="401"/>
      <point x="341" y="427" type="curve" smooth="yes"/>
      <point x="367" y="456"/>
      <point x="384" y="479"/>
      <point x="384" y="525" type="curve" smooth="yes"/>
      <point x="384" y="582"/>
      <point x="361" y="651"/>
      <point x="303" y="651" type="curve" smooth="yes"/>
      <point x="263" y="651"/>
      <point x="224" y="586"/>
      <point x="224" y="486" type="curve" smooth="yes"/>
      <point x="224" y="145" type="line" smooth="yes"/>
      <point x="224" y="102"/>
      <point x="224" y="71"/>
      <point x="232" y="51" type="curve" smooth="yes"/>
      <point x="237" y="38"/>
      <point x="262" y="34"/>
      <point x="275" y="33" type="curve"/>
      <point x="280" y="26"/>
      <point x="279" y="2"/>
      <point x="275" y="-4" type="curve"/>
      <point x="236" y="0"/>
      <point x="201" y="3"/>
      <point x="159" y="3" type="curve" smooth="yes"/>
      <point x="117" y="3"/>
      <point x="61" y="0"/>
      <point x="22" y="-4" type="curve"/>
      <point x="18" y="2"/>
      <point x="17" y="26"/>
      <point x="22" y="33" type="curve"/>
      <point x="35" y="34"/>
      <point x="81" y="38"/>
      <point x="86" y="51" type="curve" smooth="yes"/>
      <point x="94" y="71"/>
      <point x="94" y="102"/>
      <point x="94" y="145" type="curve" smooth="yes"/>
      <point x="94" y="145"/>
      <point x="94" y="292"/>
      <point x="94" y="381" type="curve"/>
      <point x="67" y="381"/>
      <point x="61" y="381"/>
      <point x="35" y="381" type="curve"/>
      <point x="30" y="383"/>
      <point x="30" y="390"/>
      <point x="30" y="394" type="curve"/>
      <point x="40" y="408"/>
      <point x="50" y="418"/>
      <point x="62" y="428" type="curve"/>
      <point x="75" y="428"/>
      <point x="84" y="428"/>
      <point x="94" y="428" type="curve"/>
      <point x="94" y="443" type="line" smooth="yes"/>
      <point x="94" y="580"/>
      <point x="223" y="698"/>
    </contour>
  </outline>
</glyph>
<glyph name="dcroat" format="1">
  <advance width="544"/>
  <unicode hex="0111"/>
  <outline>
    <contour>
      <point x="524" y="527" type="curve"/>
      <point x="495" y="527"/>
      <point x="209" y="527"/>
      <point x="195" y="527" type="curve"/>
      <point x="191" y="527"/>
      <point x="190" y="555"/>
      <point x="196" y="564" type="curve"/>
      <point x="225" y="564"/>
      <point x="510" y="564"/>
      <point x="524" y="564" type="curve"/>
      <point x="528" y="564"/>
      <point x="528" y="536"/>
    </contour>
    <component base="d"/>
  </outline>
</glyph>
<glyph name="hbar" format="1">
  <advance width="583"/>
  <unicode hex="0127"/>
  <outline>
    <contour>
      <point x="36" y="564" type="curve"/>
      <point x="65" y="564"/>
      <point x="350" y="564"/>
      <point x="364" y="564" type="curve"/>
      <point x="365" y="564"/>
      <point x="368" y="561"/>
      <point x="368" y="556" type="curve" smooth="yes"/>
      <point x="368" y="547"/>
      <point x="366" y="533"/>
      <point x="364" y="527" type="curve"/>
      <point x="335" y="527"/>
      <point x="49" y="527"/>
      <point x="35" y="527" type="curve"/>
      <point x="34" y="527"/>
      <point x="31" y="531"/>
      <point x="31" y="536" type="curve" smooth="yes"/>
      <point x="31" y="545"/>
      <point x="32" y="558"/>
    </contour>
    <component base="h"/>
  </outline>
</glyph>
<glyph name="Lslash" format="1">
  <advance width="584"/>
  <unicode hex="0141"/>
  <outline>
    <contour>
      <point x="15" y="187" type="line" smooth="yes"/>
      <point x="10" y="183"/>
      <point x="10" y="237"/>
      <point x="15" y="242" type="curve" smooth="yes"/>
      <point x="148" y="329.544" type="line"/>
      <point x="191" y="346.848" type="line"/>
      <point x="410" y="491" type="line" smooth="yes"/>
      <point x="416" y="495"/>
      <point x="415" y="440"/>
      <point x="410" y="436" type="curve" smooth="yes"/>
      <point x="202" y="296.089" type="line"/>
      <point x="164" y="283.076" type="line"/>
    </contour>
    <component base="L" xOffset="5"/>
  </outline>
</glyph>
<glyph name="lslash" format="1">
  <advance width="312"/>
  <unicode hex="0142"/>
  <outline>
    <contour>
      <point x="36" y="210" type="line"/>
      <point x="30" y="217"/>
      <point x="12" y="237"/>
      <point x="17" y="242" type="curve"/>
      <point x="303" y="443" type="line"/>
      <point x="309" y="437"/>
      <point x="328" y="416"/>
      <point x="323" y="411" type="curve"/>
    </contour>
    <component base="l" xOffset="1"/>
  </outline>
</glyph>
<glyph name="OE" format="1">
  <advance width="1015"/>
  <unicode hex="0152"/>
  <outline>
    <contour>
      <point x="594" y="657" type="curve" smooth="yes"/>
      <point x="636" y="657"/>
      <point x="860" y="663"/>
      <point x="919" y="664" type="curve"/>
      <point x="926" y="614"/>
      <point x="939" y="561"/>
      <point x="948" y="516" type="curve"/>
      <point x="945" y="513"/>
      <point x="932" y="511"/>
      <point x="925" y="511" type="curve" smooth="yes"/>
      <point x="918" y="511"/>
      <point x="911" y="514"/>
      <point x="909" y="519" type="curve" smooth="yes"/>
      <point x="888" y="574"/>
      <point x="862" y="620"/>
      <point x="801" y="620" type="curve" smooth="yes"/>
      <point x="718" y="620" type="line" smooth="yes"/>
      <point x="695" y="620"/>
      <point x="673" y="619"/>
      <point x="668" y="608" type="curve" smooth="yes"/>
      <point x="663" y="596"/>
      <point x="663" y="576"/>
      <point x="663" y="547" type="curve" smooth="yes"/>
      <point x="663" y="368" type="line" smooth="yes"/>
      <point x="663" y="362"/>
      <point x="684" y="357"/>
      <point x="706" y="357" type="curve" smooth="yes"/>
      <point x="759" y="357" type="line" smooth="yes"/>
      <point x="818" y="357"/>
      <point x="831" y="369"/>
      <point x="847" y="427" type="curve" smooth="yes"/>
      <point x="848" y="432"/>
      <point x="852" y="435"/>
      <point x="859" y="435" type="curve" smooth="yes"/>
      <point x="866" y="435"/>
      <point x="875" y="433"/>
      <point x="878" y="430" type="curve"/>
      <point x="878" y="238" type="line"/>
      <point x="876" y="236"/>
      <point x="867" y="234"/>
      <point x="860" y="234" type="curve" smooth="yes"/>
      <point x="853" y="234"/>
      <point x="847" y="237"/>
      <point x="846" y="242" type="curve" smooth="yes"/>
      <point x="834" y="290"/>
      <point x="820" y="299"/>
      <point x="811" y="303" type="curve" smooth="yes"/>
      <point x="799" y="308"/>
      <point x="773" y="310"/>
      <point x="735" y="310" type="curve" smooth="yes"/>
      <point x="707" y="310"/>
      <point x="663" y="308"/>
      <point x="663" y="296" type="curve" smooth="yes"/>
      <point x="663" y="141" type="line" smooth="yes"/>
      <point x="663" y="135"/>
      <point x="663" y="82"/>
      <point x="671" y="62" type="curve" smooth="yes"/>
      <point x="677" y="48"/>
      <point x="710" y="42"/>
      <point x="736" y="42" type="curve" smooth="yes"/>
      <point x="802" y="42" type="line" smooth="yes"/>
      <point x="840" y="42"/>
      <point x="872" y="52"/>
      <point x="895" y="75" type="curve" smooth="yes"/>
      <point x="916" y="96"/>
      <point x="932" y="125"/>
      <point x="949" y="170" type="curve" smooth="yes"/>
      <point x="950" y="174"/>
      <point x="956" y="176"/>
      <point x="963" y="176" type="curve" smooth="yes"/>
      <point x="973" y="176"/>
      <point x="990" y="173"/>
      <point x="993" y="170" type="curve"/>
      <point x="974" y="116"/>
      <point x="946" y="42"/>
      <point x="939" y="-2" type="curve"/>
      <point x="911" y="-2"/>
      <point x="723" y="-3"/>
      <point x="588" y="-3" type="curve" smooth="yes"/>
      <point x="519" y="-3"/>
      <point x="464" y="-3"/>
      <point x="451" y="-3" type="curve"/>
      <point x="429" y="-3"/>
      <point x="555" y="-3"/>
      <point x="379" y="-3" type="curve" smooth="yes"/>
      <point x="203" y="-3"/>
      <point x="40" y="141"/>
      <point x="40" y="328" type="curve" smooth="yes"/>
      <point x="40" y="515"/>
      <point x="201" y="663"/>
      <point x="377" y="663" type="curve" smooth="yes"/>
      <point x="476" y="663"/>
      <point x="552" y="657"/>
    </contour>
    <contour>
      <point x="353" y="622" type="curve" smooth="yes"/>
      <point x="235" y="622"/>
      <point x="191" y="484"/>
      <point x="191" y="363" type="curve" smooth="yes"/>
      <point x="191" y="210"/>
      <point x="249" y="37"/>
      <point x="398" y="37" type="curve"/>
      <point x="431" y="37"/>
      <point x="483" y="46"/>
      <point x="502" y="69" type="curve" smooth="yes"/>
      <point x="516" y="86"/>
      <point x="523" y="106"/>
      <point x="523" y="149" type="curve" smooth="yes"/>
      <point x="523" y="481" type="line" smooth="yes"/>
      <point x="523" y="524"/>
      <point x="510" y="561"/>
      <point x="490" y="582" type="curve" smooth="yes"/>
      <point x="472" y="601"/>
      <point x="431" y="622"/>
    </contour>
  </outline>
</glyph>
<glyph name="Tbar" format="1">
  <advance width="634"/>
  <unicode hex="0166"/>
  <outline>
    <contour>
      <point x="513" y="308" type="curve"/>
      <point x="484" y="308"/>
      <point x="177" y="308"/>
      <point x="163" y="308" type="curve"/>
      <point x="159" y="308"/>
      <point x="158" y="339"/>
      <point x="164" y="348" type="curve"/>
      <point x="193" y="348"/>
      <point x="499" y="348"/>
      <point x="513" y="348" type="curve"/>
      <point x="517" y="348"/>
      <point x="517" y="317"/>
    </contour>
    <component base="T"/>
  </outline>
</glyph>
<glyph name="ohorn" format="1">
  <advance width="562"/>
  <unicode hex="01A1"/>
  <outline>
    <contour>
      <point x="266" y="447" type="curve" smooth="yes"/>
      <point x="301" y="447"/>
      <point x="328" y="444"/>
      <point x="364" y="427" type="curve" smooth="yes"/>
      <point x="400" y="410"/>
      <point x="438" y="399"/>
      <point x="464" y="399" type="curve" smooth="yes"/>
      <point x="487" y="399"/>
      <point x="500" y="406"/>
      <point x="500" y="418" type="curve" smooth="yes"/>
      <point x="500" y="432"/>
      <point x="478" y="446"/>
      <point x="478" y="470" type="curve" smooth="yes"/>
      <point x="478" y="510"/>
      <point x="540" y="516"/>
      <point x="572" y="516" type="curve"/>
      <point x="581" y="507"/>
      <point x="591" y="475"/>
      <point x="591" y="448" type="curve" smooth="yes"/>
      <point x="591" y="391"/>
      <point x="523" y="352"/>
      <point x="470" y="352" type="curve" smooth="yes"/>
      <point x="465" y="352"/>
      <point x="461" y="352"/>
      <point x="457" y="353" type="curve"/>
      <point x="485" y="316"/>
      <point x="501" y="270"/>
      <point x="501" y="220" type="curve" smooth="yes"/>
      <point x="501" y="94"/>
      <point x="398" y="-7"/>
      <point x="266" y="-7" type="curve" smooth="yes"/>
      <point x="135" y="-7"/>
      <point x="31" y="94"/>
      <point x="31" y="220" type="curve" smooth="yes"/>
      <point x="31" y="346"/>
      <point x="135" y="447"/>
    </contour>
    <contour>
      <point x="252" y="392" type="curve" smooth="yes"/>
      <point x="189" y="392"/>
      <point x="173" y="314"/>
      <point x="173" y="251" type="curve" smooth="yes"/>
      <point x="173" y="162"/>
      <point x="187" y="48"/>
      <point x="276" y="48" type="curve" smooth="yes"/>
      <point x="338" y="48"/>
      <point x="357" y="123"/>
      <point x="357" y="185" type="curve" smooth="yes"/>
      <point x="357" y="276"/>
      <point x="343" y="392"/>
    </contour>
  </outline>
</glyph>
<glyph name="Uhorn" format="1">
  <advance width="757"/>
  <unicode hex="01AF"/>
  <outline>
    <contour>
      <point x="732" y="692" type="curve" smooth="yes"/>
      <point x="732" y="706"/>
      <point x="710" y="720"/>
      <point x="710" y="744" type="curve" smooth="yes"/>
      <point x="710" y="784"/>
      <point x="772" y="790"/>
      <point x="804" y="790" type="curve"/>
      <point x="813" y="781"/>
      <point x="823" y="749"/>
      <point x="823" y="722" type="curve" smooth="yes"/>
      <point x="823" y="665"/>
      <point x="734" y="632"/>
      <point x="688" y="621" type="curve" smooth="yes"/>
      <point x="670" y="617"/>
      <point x="648" y="608"/>
      <point x="635" y="592" type="curve" smooth="yes"/>
      <point x="625" y="580"/>
      <point x="621" y="555"/>
      <point x="621" y="519" type="curve" smooth="yes"/>
      <point x="621" y="291" type="line" smooth="yes"/>
      <point x="621" y="88"/>
      <point x="508" y="-5"/>
      <point x="364" y="-5" type="curve" smooth="yes"/>
      <point x="213" y="-5"/>
      <point x="94" y="80"/>
      <point x="94" y="311" type="curve" smooth="yes"/>
      <point x="94" y="522" type="line" smooth="yes"/>
      <point x="94" y="540"/>
      <point x="93" y="588"/>
      <point x="86" y="600" type="curve" smooth="yes"/>
      <point x="79" y="612"/>
      <point x="36" y="625"/>
      <point x="24" y="625" type="curve" smooth="yes"/>
      <point x="22" y="625"/>
      <point x="20" y="636"/>
      <point x="20" y="642" type="curve" smooth="yes"/>
      <point x="20" y="648"/>
      <point x="20" y="660"/>
      <point x="22" y="662" type="curve"/>
      <point x="68" y="660"/>
      <point x="121" y="656"/>
      <point x="167" y="656" type="curve" smooth="yes"/>
      <point x="211" y="656"/>
      <point x="267" y="660"/>
      <point x="307" y="662" type="curve"/>
      <point x="308" y="659"/>
      <point x="310" y="649"/>
      <point x="310" y="644" type="curve" smooth="yes"/>
      <point x="310" y="638"/>
      <point x="309" y="625"/>
      <point x="306" y="625" type="curve" smooth="yes"/>
      <point x="298" y="625"/>
      <point x="244" y="612"/>
      <point x="241" y="601" type="curve" smooth="yes"/>
      <point x="234" y="574"/>
      <point x="234" y="549"/>
      <point x="234" y="516" type="curve" smooth="yes"/>
      <point x="234" y="279" type="line" smooth="yes"/>
      <point x="234" y="158"/>
      <point x="292" y="75"/>
      <point x="388" y="75" type="curve" smooth="yes"/>
      <point x="474" y="75"/>
      <point x="557" y="122"/>
      <point x="557" y="286" type="curve" smooth="yes"/>
      <point x="557" y="524" type="line" smooth="yes"/>
      <point x="557" y="541"/>
      <point x="559" y="579"/>
      <point x="544" y="596" type="curve" smooth="yes"/>
      <point x="530" y="612"/>
      <point x="478" y="625"/>
      <point x="466" y="625" type="curve" smooth="yes"/>
      <point x="461" y="625"/>
      <point x="459" y="657"/>
      <point x="463" y="662" type="curve"/>
      <point x="509" y="658"/>
      <point x="549" y="654"/>
      <point x="595" y="654" type="curve" smooth="yes"/>
      <point x="706" y="654"/>
      <point x="732" y="680"/>
    </contour>
  </outline>
</glyph>
<glyph name="uni01EB" format="1">
  <advance width="522"/>
  <unicode hex="01EB"/>
  <outline>
    <contour>
      <point x="260" y="449" type="curve" smooth="yes"/>
      <point x="391" y="449"/>
      <point x="495" y="347"/>
      <point x="495" y="221" type="curve" smooth="yes"/>
      <point x="495" y="169"/>
      <point x="478" y="121"/>
      <point x="448" y="83" type="curve" smooth="yes"/>
      <point x="389" y="8"/>
      <point x="331" y="-57"/>
      <point x="331" y="-110" type="curve" smooth="yes"/>
      <point x="331" y="-131"/>
      <point x="351" y="-142"/>
      <point x="372" y="-142" type="curve" smooth="yes"/>
      <point x="400" y="-142"/>
      <point x="439" y="-120"/>
      <point x="452" y="-109" type="curve" smooth="yes"/>
      <point x="453" y="-109"/>
      <point x="457" y="-119"/>
      <point x="457" y="-127" type="curve" smooth="yes"/>
      <point x="457" y="-132"/>
      <point x="454" y="-145"/>
      <point x="451" y="-149" type="curve" smooth="yes"/>
      <point x="436" y="-168"/>
      <point x="384" y="-218"/>
      <point x="328" y="-218" type="curve" smooth="yes"/>
      <point x="295" y="-218"/>
      <point x="247" y="-193"/>
      <point x="247" y="-140" type="curve" smooth="yes"/>
      <point x="247" y="-98"/>
      <point x="287" y="-32"/>
      <point x="331" y="3" type="curve"/>
      <point x="309" y="-4"/>
      <point x="285" y="-7"/>
      <point x="260" y="-7" type="curve" smooth="yes"/>
      <point x="129" y="-7"/>
      <point x="25" y="95"/>
      <point x="25" y="221" type="curve" smooth="yes"/>
      <point x="25" y="347"/>
      <point x="129" y="449"/>
    </contour>
    <contour>
      <point x="246" y="394" type="curve" smooth="yes"/>
      <point x="183" y="394"/>
      <point x="167" y="315"/>
      <point x="167" y="252" type="curve" smooth="yes"/>
      <point x="167" y="163"/>
      <point x="181" y="48"/>
      <point x="270" y="48" type="curve" smooth="yes"/>
      <point x="332" y="48"/>
      <point x="351" y="124"/>
      <point x="351" y="186" type="curve" smooth="yes"/>
      <point x="351" y="277"/>
      <point x="337" y="394"/>
    </contour>
  </outline>
</glyph>
<glyph name="uni02BE" format="1">
  <advance width="187"/>
  <unicode hex="02BE"/>
  <outline>
    <contour>
      <point x="30" y="701" type="curve"/>
      <point x="113" y="701"/>
      <point x="157" y="628"/>
      <point x="157" y="574" type="curve" smooth="yes"/>
      <point x="157" y="514"/>
      <point x="111" y="446"/>
      <point x="30" y="446" type="curve"/>
      <point x="27" y="456"/>
      <point x="27" y="475"/>
      <point x="30" y="485" type="curve"/>
      <point x="74" y="485"/>
      <point x="100" y="530"/>
      <point x="100" y="574" type="curve" smooth="yes"/>
      <point x="100" y="619"/>
      <point x="74" y="663"/>
      <point x="30" y="663" type="curve"/>
      <point x="27" y="673"/>
      <point x="26" y="689"/>
    </contour>
  </outline>
</glyph>
<glyph name="uni02BF" format="1">
  <advance width="187"/>
  <unicode hex="02BF"/>
  <outline>
    <contour>
      <point x="157" y="701" type="curve"/>
      <point x="161" y="689"/>
      <point x="160" y="673"/>
      <point x="157" y="663" type="curve"/>
      <point x="113" y="663"/>
      <point x="87" y="619"/>
      <point x="87" y="574" type="curve" smooth="yes"/>
      <point x="87" y="530"/>
      <point x="113" y="485"/>
      <point x="157" y="485" type="curve"/>
      <point x="160" y="475"/>
      <point x="160" y="456"/>
      <point x="157" y="446" type="curve"/>
      <point x="76" y="446"/>
      <point x="30" y="514"/>
      <point x="30" y="574" type="curve" smooth="yes"/>
      <point x="30" y="628"/>
      <point x="74" y="701"/>
    </contour>
  </outline>
</glyph>
<glyph name="breve" format="1">
  <advance width="464"/>
  <unicode hex="02D8"/>
  <outline>
    <contour>
      <point x="312" y="631" type="curve"/>
      <point x="319" y="631"/>
      <point x="333" y="616"/>
      <point x="333" y="609" type="curve" smooth="yes"/>
      <point x="333" y="607"/>
      <point x="333" y="604"/>
      <point x="332" y="602" type="curve" smooth="yes"/>
      <point x="317" y="549"/>
      <point x="278" y="510"/>
      <point x="224" y="510" type="curve" smooth="yes"/>
      <point x="170" y="510"/>
      <point x="123" y="549"/>
      <point x="108" y="602" type="curve" smooth="yes"/>
      <point x="107" y="604"/>
      <point x="107" y="607"/>
      <point x="107" y="609" type="curve" smooth="yes"/>
      <point x="107" y="616"/>
      <point x="119" y="631"/>
      <point x="126" y="631" type="curve"/>
      <point x="134" y="610"/>
      <point x="177" y="565"/>
      <point x="224" y="565" type="curve" smooth="yes"/>
      <point x="274" y="565"/>
      <point x="303" y="610"/>
    </contour>
  </outline>
</glyph>
<glyph name="tildecomb" format="1">
  <advance width="693"/>
  <unicode hex="0303"/>
  <outline>
    <contour>
      <point x="156" y="646" type="curve" smooth="yes"/>
      <point x="186" y="646"/>
      <point x="207" y="630"/>
      <point x="229" y="615" type="curve" smooth="yes"/>
      <point x="252" y="598"/>
      <point x="283" y="582"/>
      <point x="300" y="582" type="curve" smooth="yes"/>
      <point x="344" y="582"/>
      <point x="359" y="630"/>
      <point x="367" y="635" type="curve"/>
      <point x="374" y="635"/>
      <point x="375" y="628"/>
      <point x="375" y="623" type="curve" smooth="yes"/>
      <point x="375" y="605"/>
      <point x="365" y="583"/>
      <point x="358" y="570" type="curve" smooth="yes"/>
      <point x="338" y="538"/>
      <point x="312" y="519"/>
      <point x="283" y="519" type="curve" smooth="yes"/>
      <point x="253" y="519"/>
      <point x="232" y="535"/>
      <point x="210" y="550" type="curve" smooth="yes"/>
      <point x="187" y="567"/>
      <point x="161" y="584"/>
      <point x="139" y="584" type="curve" smooth="yes"/>
      <point x="95" y="584"/>
      <point x="84" y="535"/>
      <point x="76" y="530" type="curve"/>
      <point x="69" y="530"/>
      <point x="66" y="540"/>
      <point x="66" y="545" type="curve" smooth="yes"/>
      <point x="66" y="563"/>
      <point x="74" y="583"/>
      <point x="81" y="596" type="curve" smooth="yes"/>
      <point x="101" y="628"/>
      <point x="127" y="646"/>
    </contour>
  </outline>
</glyph>
<glyph name="uni0306" format="1">
  <advance width="253"/>
  <unicode hex="0306"/>
  <outline>
    <contour>
      <point x="217" y="642" type="curve"/>
      <point x="224" y="642"/>
      <point x="238" y="627"/>
      <point x="238" y="620" type="curve" smooth="yes"/>
      <point x="238" y="618"/>
      <point x="238" y="615"/>
      <point x="237" y="613" type="curve" smooth="yes"/>
      <point x="222" y="560"/>
      <point x="183" y="521"/>
      <point x="129" y="521" type="curve" smooth="yes"/>
      <point x="75" y="521"/>
      <point x="28" y="560"/>
      <point x="13" y="613" type="curve" smooth="yes"/>
      <point x="12" y="615"/>
      <point x="12" y="618"/>
      <point x="12" y="620" type="curve" smooth="yes"/>
      <point x="12" y="627"/>
      <point x="24" y="642"/>
      <point x="31" y="642" type="curve"/>
      <point x="39" y="621"/>
      <point x="82" y="576"/>
      <point x="129" y="576" type="curve" smooth="yes"/>
      <point x="179" y="576"/>
      <point x="208" y="621"/>
    </contour>
  </outline>
</glyph>
<glyph name="uni030A" format="1">
  <advance width="474"/>
  <unicode hex="030A"/>
  <outline>
    <contour>
      <point x="167" y="609" type="curve" smooth="yes"/>
      <point x="167" y="579"/>
      <point x="191" y="555"/>
      <point x="221" y="555" type="curve" smooth="yes"/>
      <point x="251" y="555"/>
      <point x="273" y="579"/>
      <point x="273" y="609" type="curve" smooth="yes"/>
      <point x="273" y="639"/>
      <point x="251" y="663"/>
      <point x="221" y="663" type="curve" smooth="yes"/>
      <point x="191" y="663"/>
      <point x="167" y="639"/>
    </contour>
    <contour>
      <point x="121" y="609" type="curve" smooth="yes"/>
      <point x="121" y="663"/>
      <point x="167" y="707"/>
      <point x="221" y="707" type="curve" smooth="yes"/>
      <point x="275" y="707"/>
      <point x="318" y="663"/>
      <point x="318" y="609" type="curve" smooth="yes"/>
      <point x="318" y="555"/>
      <point x="275" y="510"/>
      <point x="221" y="510" type="curve" smooth="yes"/>
      <point x="167" y="510"/>
      <point x="121" y="555"/>
    </contour>
  </outline>
</glyph>
<glyph name="uni030B" format="1">
  <advance width="380"/>
  <unicode hex="030B"/>
  <outline>
    <contour>
      <point x="294" y="687" type="curve" smooth="yes"/>
      <point x="329" y="687"/>
      <point x="340" y="666"/>
      <point x="340" y="658" type="curve" smooth="yes"/>
      <point x="340" y="619"/>
      <point x="194" y="522"/>
      <point x="184" y="522" type="curve" smooth="yes"/>
      <point x="177" y="522"/>
      <point x="167" y="534"/>
      <point x="167" y="540" type="curve" smooth="yes"/>
      <point x="167" y="545"/>
      <point x="223" y="635"/>
      <point x="260" y="678" type="curve" smooth="yes"/>
      <point x="265" y="683"/>
      <point x="280" y="687"/>
    </contour>
    <contour>
      <point x="155" y="687" type="curve" smooth="yes"/>
      <point x="190" y="687"/>
      <point x="201" y="666"/>
      <point x="201" y="658" type="curve" smooth="yes"/>
      <point x="201" y="619"/>
      <point x="55" y="522"/>
      <point x="45" y="522" type="curve" smooth="yes"/>
      <point x="38" y="522"/>
      <point x="28" y="534"/>
      <point x="28" y="540" type="curve" smooth="yes"/>
      <point x="28" y="545"/>
      <point x="84" y="635"/>
      <point x="121" y="678" type="curve" smooth="yes"/>
      <point x="126" y="683"/>
      <point x="141" y="687"/>
    </contour>
  </outline>
</glyph>
<glyph name="uni0312" format="1">
  <advance width="222"/>
  <unicode hex="0312"/>
  <outline>
    <contour>
      <point x="54" y="472" type="curve" smooth="yes"/>
      <point x="39" y="472"/>
      <point x="24" y="476"/>
      <point x="14" y="481" type="curve"/>
      <point x="7" y="490"/>
      <point x="1" y="506"/>
      <point x="1" y="520" type="curve" smooth="yes"/>
      <point x="1" y="576"/>
      <point x="62" y="626"/>
      <point x="126" y="647" type="curve"/>
      <point x="136" y="645"/>
      <point x="145" y="637"/>
      <point x="145" y="633" type="curve"/>
      <point x="128" y="626"/>
      <point x="80" y="599"/>
      <point x="80" y="570" type="curve" smooth="yes"/>
      <point x="80" y="550"/>
      <point x="124" y="553"/>
      <point x="124" y="514" type="curve" smooth="yes"/>
      <point x="124" y="505"/>
      <point x="110" y="472"/>
    </contour>
  </outline>
</glyph>
<glyph name="uni0315" format="1">
  <advance width="184"/>
  <unicode hex="0315"/>
  <outline>
    <contour>
      <point x="124" y="660" type="curve" smooth="yes"/>
      <point x="134" y="660"/>
      <point x="146" y="656"/>
      <point x="154" y="653" type="curve"/>
      <point x="162" y="642"/>
      <point x="173" y="627"/>
      <point x="173" y="590" type="curve" smooth="yes"/>
      <point x="173" y="534"/>
      <point x="131" y="469"/>
      <point x="77" y="419" type="curve"/>
      <point x="69" y="419"/>
      <point x="52" y="426"/>
      <point x="52" y="432" type="curve"/>
      <point x="76" y="458"/>
      <point x="94" y="489"/>
      <point x="94" y="523" type="curve" smooth="yes"/>
      <point x="94" y="576"/>
      <point x="56" y="574"/>
      <point x="56" y="612" type="curve" smooth="yes"/>
      <point x="56" y="632"/>
      <point x="82" y="660"/>
    </contour>
  </outline>
</glyph>
<glyph name="tonos" format="1">
  <advance width="200"/>
  <unicode hex="0384"/>
  <outline>
    <contour>
      <point x="129" y="704" type="curve" smooth="yes"/>
      <point x="150" y="704"/>
      <point x="164" y="692"/>
      <point x="164" y="681" type="curve" smooth="yes"/>
      <point x="164" y="631"/>
      <point x="73" y="503"/>
      <point x="63" y="493" type="curve" smooth="yes"/>
      <point x="62" y="492"/>
      <point x="61" y="491"/>
      <point x="58" y="491" type="curve" smooth="yes"/>
      <point x="54" y="491"/>
      <point x="44" y="498"/>
      <point x="44" y="503" type="curve" smooth="yes"/>
      <point x="44" y="512"/>
      <point x="63" y="622"/>
      <point x="83" y="679" type="curve" smooth="yes"/>
      <point x="87" y="689"/>
      <point x="111" y="704"/>
    </contour>
  </outline>
</glyph>
<glyph name="Alpha" format="1">
  <advance width="599"/>
  <unicode hex="0391"/>
  <outline>
    <contour>
      <point x="-11" y="23" type="curve"/>
      <point x="78" y="116"/>
      <point x="173" y="451"/>
      <point x="218" y="599" type="curve"/>
      <point x="206" y="609"/>
      <point x="179" y="607"/>
      <point x="155" y="594" type="curve"/>
      <point x="153" y="598"/>
      <point x="152" y="604"/>
      <point x="152" y="610" type="curve"/>
      <point x="158" y="633"/>
      <point x="220" y="662"/>
      <point x="248" y="662" type="curve" smooth="yes"/>
      <point x="275" y="662"/>
      <point x="319" y="652"/>
      <point x="342" y="623" type="curve" smooth="yes"/>
      <point x="398" y="554"/>
      <point x="422" y="451"/>
      <point x="460" y="339" type="curve" smooth="yes"/>
      <point x="507" y="200"/>
      <point x="558" y="60"/>
      <point x="604" y="4" type="curve"/>
      <point x="602" y="-5"/>
      <point x="590" y="-12"/>
      <point x="590" y="-12" type="curve"/>
      <point x="590" y="-12"/>
      <point x="487" y="-5"/>
      <point x="465" y="17" type="curve"/>
      <point x="420" y="101"/>
      <point x="397" y="173"/>
      <point x="363" y="282" type="curve"/>
      <point x="179" y="249" type="line"/>
      <point x="117" y="0" type="line" smooth="yes"/>
      <point x="116" y="-5"/>
      <point x="98" y="-10"/>
      <point x="92" y="-10" type="curve"/>
      <point x="61" y="-4"/>
      <point x="2" y="5"/>
    </contour>
    <contour>
      <point x="189" y="304" type="line"/>
      <point x="354" y="314" type="line"/>
      <point x="323" y="413"/>
      <point x="303" y="497"/>
      <point x="257" y="570" type="curve"/>
    </contour>
  </outline>
</glyph>
<glyph name="Beta" format="1">
  <advance width="580"/>
  <unicode hex="0392"/>
  <outline>
    <contour>
      <point x="83" y="600" type="curve"/>
      <point x="75" y="617"/>
      <point x="55" y="633"/>
      <point x="41" y="639" type="curve"/>
      <point x="41" y="646"/>
      <point x="48" y="658"/>
      <point x="54" y="661" type="curve"/>
      <point x="104" y="658"/>
      <point x="166" y="658"/>
      <point x="209" y="658" type="curve" smooth="yes"/>
      <point x="383" y="658"/>
      <point x="491" y="627"/>
      <point x="491" y="502" type="curve" smooth="yes"/>
      <point x="491" y="407"/>
      <point x="396" y="357"/>
      <point x="365" y="355" type="curve"/>
      <point x="406" y="344"/>
      <point x="536" y="317"/>
      <point x="536" y="188" type="curve" smooth="yes"/>
      <point x="536" y="89"/>
      <point x="477" y="0"/>
      <point x="263" y="-3" type="curve" smooth="yes"/>
      <point x="230" y="-3"/>
      <point x="267" y="-5"/>
      <point x="147" y="-5" type="curve" smooth="yes"/>
      <point x="129" y="-5"/>
      <point x="78" y="-8"/>
      <point x="60" y="21" type="curve"/>
      <point x="73" y="39"/>
      <point x="91" y="114"/>
      <point x="91" y="169" type="curve" smooth="yes"/>
      <point x="91" y="341"/>
      <point x="83" y="600"/>
    </contour>
    <contour>
      <point x="267" y="327" type="curve" smooth="yes"/>
      <point x="240" y="327"/>
      <point x="257" y="329"/>
      <point x="200" y="326" type="curve"/>
      <point x="200" y="294"/>
      <point x="201" y="246"/>
      <point x="201" y="232" type="curve" smooth="yes"/>
      <point x="202" y="162"/>
      <point x="203" y="67"/>
      <point x="211" y="46" type="curve"/>
      <point x="229" y="39"/>
      <point x="251" y="36"/>
      <point x="267" y="36" type="curve" smooth="yes"/>
      <point x="342" y="36"/>
      <point x="392" y="64"/>
      <point x="392" y="175" type="curve" smooth="yes"/>
      <point x="392" y="238"/>
      <point x="368" y="327"/>
    </contour>
    <contour>
      <point x="256" y="618" type="curve" smooth="yes"/>
      <point x="237" y="619"/>
      <point x="225" y="617"/>
      <point x="208" y="609" type="curve"/>
      <point x="202" y="569"/>
      <point x="201" y="468"/>
      <point x="202" y="367" type="curve"/>
      <point x="207" y="367"/>
      <point x="226" y="364"/>
      <point x="236" y="364" type="curve" smooth="yes"/>
      <point x="325" y="364"/>
      <point x="363" y="409"/>
      <point x="363" y="498" type="curve" smooth="yes"/>
      <point x="363" y="547"/>
      <point x="349" y="618"/>
    </contour>
  </outline>
</glyph>
<glyph name="Gamma" format="1">
  <advance width="549"/>
  <unicode hex="0393"/>
  <outline>
    <contour>
      <point x="219" y="601" type="curve"/>
      <point x="219" y="555"/>
      <point x="222" y="289"/>
      <point x="223" y="230" type="curve" smooth="yes"/>
      <point x="224" y="160"/>
      <point x="229" y="22"/>
      <point x="237" y="1" type="curve"/>
      <point x="230" y="-9"/>
      <point x="222" y="-16"/>
      <point x="212" y="-16" type="curve" smooth="yes"/>
      <point x="206" y="-16"/>
      <point x="111" y="5"/>
      <point x="111" y="20" type="curve" smooth="yes"/>
      <point x="109" y="603" type="line"/>
      <point x="98" y="624"/>
      <point x="63" y="639"/>
      <point x="41" y="644" type="curve"/>
      <point x="41" y="651"/>
      <point x="45" y="660"/>
      <point x="51" y="663" type="curve"/>
      <point x="101" y="660"/>
      <point x="157" y="658"/>
      <point x="225" y="658" type="curve" smooth="yes"/>
      <point x="326" y="658"/>
      <point x="374" y="662"/>
      <point x="485" y="664" type="curve"/>
      <point x="485" y="664"/>
      <point x="528" y="554"/>
      <point x="542" y="503" type="curve"/>
      <point x="537" y="493"/>
      <point x="526" y="492"/>
      <point x="517" y="490" type="curve"/>
      <point x="460" y="569"/>
      <point x="421" y="618"/>
      <point x="340" y="618" type="curve" smooth="yes"/>
      <point x="289" y="618"/>
      <point x="255" y="610"/>
    </contour>
  </outline>
</glyph>
<glyph name="Theta" format="1">
  <advance width="738"/>
  <unicode hex="0398"/>
  <outline>
    <contour>
      <point x="341" y="371" type="curve" smooth="yes"/>
      <point x="407" y="371"/>
      <point x="444" y="378"/>
      <point x="473" y="410" type="curve" smooth="yes"/>
      <point x="475" y="413"/>
      <point x="479" y="410"/>
      <point x="482" y="408" type="curve"/>
      <point x="492" y="393"/>
      <point x="518" y="299"/>
      <point x="526" y="275" type="curve"/>
      <point x="527" y="268"/>
      <point x="517" y="260"/>
      <point x="511" y="258" type="curve"/>
      <point x="468" y="286"/>
      <point x="461" y="295"/>
      <point x="398" y="295" type="curve" smooth="yes"/>
      <point x="332" y="295"/>
      <point x="295" y="288"/>
      <point x="266" y="256" type="curve" smooth="yes"/>
      <point x="264" y="253"/>
      <point x="260" y="256"/>
      <point x="257" y="258" type="curve"/>
      <point x="247" y="273"/>
      <point x="221" y="367"/>
      <point x="213" y="391" type="curve"/>
      <point x="212" y="398"/>
      <point x="222" y="406"/>
      <point x="228" y="408" type="curve"/>
      <point x="271" y="380"/>
      <point x="278" y="371"/>
    </contour>
    <contour>
      <point x="372" y="622" type="curve" smooth="yes"/>
      <point x="227" y="622"/>
      <point x="172" y="454"/>
      <point x="172" y="309" type="curve" smooth="yes"/>
      <point x="172" y="180"/>
      <point x="221" y="34"/>
      <point x="358" y="34" type="curve" smooth="yes"/>
      <point x="500" y="34"/>
      <point x="566" y="195"/>
      <point x="566" y="339" type="curve" smooth="yes"/>
      <point x="566" y="473"/>
      <point x="513" y="622"/>
    </contour>
    <contour>
      <point x="367" y="667" type="curve" smooth="yes"/>
      <point x="535" y="667"/>
      <point x="690" y="530"/>
      <point x="690" y="319" type="curve" smooth="yes"/>
      <point x="690" y="132"/>
      <point x="535" y="-10"/>
      <point x="367" y="-10" type="curve" smooth="yes"/>
      <point x="199" y="-10"/>
      <point x="48" y="120"/>
      <point x="48" y="337" type="curve" smooth="yes"/>
      <point x="48" y="524"/>
      <point x="199" y="667"/>
    </contour>
  </outline>
</glyph>
<glyph name="Lambda" format="1">
  <advance width="592"/>
  <unicode hex="039B"/>
  <outline>
    <contour>
      <point x="349" y="610" type="curve" smooth="yes"/>
      <point x="404" y="526"/>
      <point x="418" y="454"/>
      <point x="456" y="342" type="curve" smooth="yes"/>
      <point x="503" y="203"/>
      <point x="555" y="60"/>
      <point x="601" y="4" type="curve"/>
      <point x="599" y="-5"/>
      <point x="587" y="-12"/>
      <point x="587" y="-12" type="curve"/>
      <point x="587" y="-12"/>
      <point x="484" y="-5"/>
      <point x="462" y="17" type="curve"/>
      <point x="415" y="104"/>
      <point x="391" y="182"/>
      <point x="356" y="298" type="curve" smooth="yes"/>
      <point x="327" y="394"/>
      <point x="302" y="493"/>
      <point x="254" y="569" type="curve"/>
      <point x="204" y="371"/>
      <point x="170" y="221"/>
      <point x="114" y="1" type="curve"/>
      <point x="113" y="-4"/>
      <point x="95" y="-10"/>
      <point x="89" y="-10" type="curve"/>
      <point x="56" y="-4"/>
      <point x="-1" y="5"/>
      <point x="-14" y="23" type="curve"/>
      <point x="75" y="116"/>
      <point x="170" y="450"/>
      <point x="215" y="598" type="curve"/>
      <point x="205" y="610"/>
      <point x="175" y="607"/>
      <point x="152" y="594" type="curve"/>
      <point x="150" y="598"/>
      <point x="149" y="604"/>
      <point x="149" y="610" type="curve"/>
      <point x="155" y="633"/>
      <point x="216" y="662"/>
      <point x="244" y="662" type="curve" smooth="yes"/>
      <point x="282" y="662"/>
      <point x="325" y="647"/>
    </contour>
  </outline>
</glyph>
<glyph name="Xi" format="1">
  <advance width="537"/>
  <unicode hex="039E"/>
  <outline>
    <contour>
      <point x="162" y="661" type="curve" smooth="yes"/>
      <point x="279" y="661"/>
      <point x="283" y="661"/>
      <point x="395" y="662" type="curve"/>
      <point x="423" y="633"/>
      <point x="462" y="539"/>
      <point x="476" y="505" type="curve"/>
      <point x="474" y="495"/>
      <point x="453" y="488"/>
      <point x="444" y="490" type="curve"/>
      <point x="418" y="529"/>
      <point x="363" y="586"/>
      <point x="266" y="586" type="curve" smooth="yes"/>
      <point x="210" y="586"/>
      <point x="266" y="586"/>
      <point x="205" y="586" type="curve" smooth="yes"/>
      <point x="160" y="586"/>
      <point x="92" y="560"/>
      <point x="92" y="494" type="curve"/>
      <point x="90" y="490"/>
      <point x="69" y="479"/>
      <point x="62" y="484" type="curve"/>
      <point x="52" y="509"/>
      <point x="38" y="615"/>
      <point x="34" y="632" type="curve"/>
      <point x="58" y="650"/>
      <point x="118" y="661"/>
    </contour>
    <contour>
      <point x="228" y="371" type="curve" smooth="yes"/>
      <point x="294" y="371"/>
      <point x="331" y="378"/>
      <point x="360" y="410" type="curve" smooth="yes"/>
      <point x="362" y="413"/>
      <point x="366" y="410"/>
      <point x="369" y="408" type="curve"/>
      <point x="379" y="393"/>
      <point x="405" y="299"/>
      <point x="413" y="275" type="curve"/>
      <point x="414" y="268"/>
      <point x="404" y="260"/>
      <point x="398" y="258" type="curve"/>
      <point x="355" y="286"/>
      <point x="348" y="295"/>
      <point x="285" y="295" type="curve" smooth="yes"/>
      <point x="219" y="295"/>
      <point x="182" y="288"/>
      <point x="153" y="256" type="curve" smooth="yes"/>
      <point x="151" y="253"/>
      <point x="147" y="256"/>
      <point x="144" y="258" type="curve"/>
      <point x="134" y="273"/>
      <point x="108" y="367"/>
      <point x="100" y="391" type="curve"/>
      <point x="99" y="398"/>
      <point x="109" y="406"/>
      <point x="115" y="408" type="curve"/>
      <point x="158" y="380"/>
      <point x="165" y="371"/>
    </contour>
    <contour>
      <point x="288" y="90" type="curve" smooth="yes"/>
      <point x="424" y="90"/>
      <point x="488" y="163"/>
      <point x="493" y="174" type="curve"/>
      <point x="501" y="171"/>
      <point x="506" y="156"/>
      <point x="506" y="151" type="curve" smooth="yes"/>
      <point x="506" y="143"/>
      <point x="461" y="0"/>
      <point x="411" y="0" type="curve" smooth="yes"/>
      <point x="369" y="0"/>
      <point x="320" y="0"/>
      <point x="200" y="0" type="curve" smooth="yes"/>
      <point x="159" y="0"/>
      <point x="104" y="3"/>
      <point x="64" y="18" type="curve"/>
      <point x="55" y="36"/>
      <point x="27" y="140"/>
      <point x="30" y="174" type="curve"/>
      <point x="34" y="178"/>
      <point x="60" y="168"/>
      <point x="62" y="163" type="curve"/>
      <point x="104" y="82"/>
      <point x="161" y="90"/>
    </contour>
  </outline>
</glyph>
<glyph name="Pi" format="1">
  <advance width="649"/>
  <unicode hex="03A0"/>
  <outline>
    <contour>
      <point x="215" y="602" type="curve"/>
      <point x="215" y="556"/>
      <point x="219" y="289"/>
      <point x="220" y="230" type="curve" smooth="yes"/>
      <point x="221" y="160"/>
      <point x="228" y="22"/>
      <point x="236" y="1" type="curve"/>
      <point x="229" y="-9"/>
      <point x="221" y="-16"/>
      <point x="211" y="-16" type="curve" smooth="yes"/>
      <point x="205" y="-16"/>
      <point x="110" y="5"/>
      <point x="110" y="20" type="curve" smooth="yes"/>
      <point x="108" y="603" type="line"/>
      <point x="97" y="624"/>
      <point x="63" y="639"/>
      <point x="41" y="644" type="curve"/>
      <point x="41" y="651"/>
      <point x="45" y="660"/>
      <point x="51" y="663" type="curve"/>
      <point x="101" y="660"/>
      <point x="167" y="657"/>
      <point x="224" y="658" type="curve" smooth="yes"/>
      <point x="318" y="659"/>
      <point x="340" y="667"/>
      <point x="451" y="669" type="curve"/>
      <point x="451" y="669"/>
      <point x="585" y="652"/>
      <point x="607" y="634" type="curve"/>
      <point x="612" y="627"/>
      <point x="608" y="607"/>
      <point x="605" y="606" type="curve"/>
      <point x="584" y="604"/>
      <point x="558" y="603"/>
      <point x="536" y="600" type="curve"/>
      <point x="534" y="573"/>
      <point x="531" y="521"/>
      <point x="531" y="469" type="curve" smooth="yes"/>
      <point x="531" y="359"/>
      <point x="536" y="283"/>
      <point x="537" y="223" type="curve" smooth="yes"/>
      <point x="538" y="153"/>
      <point x="546" y="22"/>
      <point x="554" y="1" type="curve"/>
      <point x="547" y="-9"/>
      <point x="539" y="-16"/>
      <point x="529" y="-16" type="curve" smooth="yes"/>
      <point x="523" y="-16"/>
      <point x="429" y="5"/>
      <point x="428" y="20" type="curve" smooth="yes"/>
      <point x="428" y="20"/>
      <point x="428" y="202"/>
      <point x="428" y="349" type="curve" smooth="yes"/>
      <point x="428" y="368"/>
      <point x="425" y="541"/>
      <point x="424" y="617" type="curve"/>
      <point x="415" y="617"/>
      <point x="402" y="617"/>
      <point x="392" y="617" type="curve" smooth="yes"/>
      <point x="341" y="617"/>
      <point x="253" y="613"/>
    </contour>
  </outline>
</glyph>
<glyph name="Rho" format="1">
  <advance width="572"/>
  <unicode hex="03A1"/>
  <outline>
    <contour>
      <point x="286" y="616" type="curve" smooth="yes"/>
      <point x="253" y="616"/>
      <point x="233" y="614"/>
      <point x="219" y="606" type="curve"/>
      <point x="219" y="560"/>
      <point x="221" y="288"/>
      <point x="222" y="229" type="curve" smooth="yes"/>
      <point x="223" y="159"/>
      <point x="228" y="21"/>
      <point x="236" y="0" type="curve"/>
      <point x="229" y="-10"/>
      <point x="221" y="-17"/>
      <point x="211" y="-17" type="curve" smooth="yes"/>
      <point x="205" y="-17"/>
      <point x="111" y="5"/>
      <point x="111" y="20" type="curve" smooth="yes"/>
      <point x="109" y="603" type="line"/>
      <point x="98" y="624"/>
      <point x="63" y="639"/>
      <point x="41" y="644" type="curve"/>
      <point x="41" y="651"/>
      <point x="45" y="660"/>
      <point x="51" y="663" type="curve"/>
      <point x="101" y="660"/>
      <point x="169" y="658"/>
      <point x="226" y="658" type="curve" smooth="yes"/>
      <point x="265" y="658"/>
      <point x="291" y="662"/>
      <point x="343" y="656" type="curve" smooth="yes"/>
      <point x="471" y="642"/>
      <point x="536" y="572"/>
      <point x="536" y="468" type="curve" smooth="yes"/>
      <point x="536" y="344"/>
      <point x="437" y="278"/>
      <point x="330" y="278" type="curve" smooth="yes"/>
      <point x="310" y="278"/>
      <point x="288" y="284"/>
      <point x="278" y="293" type="curve"/>
      <point x="274" y="297"/>
      <point x="266" y="316"/>
      <point x="269" y="321" type="curve"/>
      <point x="281" y="316"/>
      <point x="295" y="315"/>
      <point x="305" y="315" type="curve" smooth="yes"/>
      <point x="354" y="315"/>
      <point x="406" y="387"/>
      <point x="406" y="466" type="curve" smooth="yes"/>
      <point x="406" y="549"/>
      <point x="346" y="616"/>
    </contour>
  </outline>
</glyph>
<glyph name="Sigma" format="1">
  <advance width="587"/>
  <unicode hex="03A3"/>
  <outline>
    <contour>
      <point x="26" y="29" type="curve"/>
      <point x="51" y="48"/>
      <point x="82" y="77"/>
      <point x="90" y="86" type="curve"/>
      <point x="181" y="169"/>
      <point x="258" y="241"/>
      <point x="310" y="289" type="curve"/>
      <point x="248" y="398"/>
      <point x="67" y="610"/>
      <point x="32" y="642" type="curve"/>
      <point x="32" y="649"/>
      <point x="36" y="658"/>
      <point x="42" y="661" type="curve"/>
      <point x="92" y="658"/>
      <point x="108" y="658"/>
      <point x="151" y="658" type="curve" smooth="yes"/>
      <point x="252" y="659"/>
      <point x="329" y="662"/>
      <point x="440" y="664" type="curve"/>
      <point x="440" y="664"/>
      <point x="492" y="592"/>
      <point x="508" y="549" type="curve"/>
      <point x="503" y="539"/>
      <point x="489" y="531"/>
      <point x="480" y="527" type="curve"/>
      <point x="424" y="570"/>
      <point x="379" y="616"/>
      <point x="298" y="616" type="curve" smooth="yes"/>
      <point x="247" y="616"/>
      <point x="234" y="614"/>
      <point x="192" y="609" type="curve"/>
      <point x="266" y="532"/>
      <point x="344" y="438"/>
      <point x="405" y="362" type="curve" smooth="yes"/>
      <point x="407" y="359"/>
      <point x="426" y="335"/>
      <point x="424" y="315" type="curve"/>
      <point x="348" y="244"/>
      <point x="172" y="97"/>
      <point x="152" y="82" type="curve"/>
      <point x="195" y="67"/>
      <point x="237" y="73"/>
      <point x="288" y="73" type="curve" smooth="yes"/>
      <point x="350" y="73"/>
      <point x="389" y="70"/>
      <point x="432" y="88" type="curve" smooth="yes"/>
      <point x="465" y="102"/>
      <point x="521" y="155"/>
      <point x="526" y="166" type="curve"/>
      <point x="534" y="163"/>
      <point x="548" y="139"/>
      <point x="548" y="134" type="curve" smooth="yes"/>
      <point x="548" y="126"/>
      <point x="480" y="-2"/>
      <point x="439" y="-2" type="curve" smooth="yes"/>
      <point x="397" y="-2"/>
      <point x="228" y="-2"/>
      <point x="108" y="-2" type="curve" smooth="yes"/>
      <point x="90" y="-2"/>
      <point x="44" y="0"/>
    </contour>
  </outline>
</glyph>
<glyph name="Upsilon" format="1">
  <advance width="558"/>
  <unicode hex="03A5"/>
  <outline>
    <contour>
      <point x="562" y="604" type="curve"/>
      <point x="425" y="522"/>
      <point x="308" y="196"/>
      <point x="308" y="124" type="curve" smooth="yes"/>
      <point x="308" y="54"/>
      <point x="312" y="22"/>
      <point x="320" y="1" type="curve"/>
      <point x="313" y="-9"/>
      <point x="305" y="-16"/>
      <point x="295" y="-16" type="curve" smooth="yes"/>
      <point x="289" y="-16"/>
      <point x="206" y="5"/>
      <point x="206" y="20" type="curve" smooth="yes"/>
      <point x="206" y="86"/>
      <point x="210" y="154"/>
      <point x="214" y="191" type="curve" smooth="yes"/>
      <point x="215" y="198"/>
      <point x="216" y="204"/>
      <point x="217" y="211" type="curve"/>
      <point x="170" y="427"/>
      <point x="128" y="566"/>
      <point x="68" y="566" type="curve" smooth="yes"/>
      <point x="38" y="566"/>
      <point x="10" y="551"/>
      <point x="3" y="542" type="curve"/>
      <point x="0" y="542"/>
      <point x="-5" y="549"/>
      <point x="-8" y="554" type="curve" smooth="yes"/>
      <point x="-10" y="558"/>
      <point x="-15" y="567"/>
      <point x="-14" y="570" type="curve" smooth="yes"/>
      <point x="-2" y="624"/>
      <point x="50" y="668"/>
      <point x="94" y="668" type="curve" smooth="yes"/>
      <point x="180" y="668"/>
      <point x="225" y="478"/>
      <point x="252" y="312" type="curve"/>
      <point x="295" y="467"/>
      <point x="365" y="588"/>
      <point x="447" y="658" type="curve"/>
      <point x="454" y="662"/>
      <point x="554" y="627"/>
      <point x="556" y="625" type="curve" smooth="yes"/>
      <point x="562" y="619"/>
      <point x="565" y="612"/>
    </contour>
  </outline>
</glyph>
<glyph name="Phi" format="1">
  <advance width="639"/>
  <unicode hex="03A6"/>
  <outline>
    <contour>
      <point x="42" y="319" type="curve" smooth="yes"/>
      <point x="38" y="434"/>
      <point x="117" y="524"/>
      <point x="255" y="550" type="curve"/>
      <point x="253" y="584"/>
      <point x="250" y="618"/>
      <point x="247" y="647" type="curve"/>
      <point x="249" y="653"/>
      <point x="263" y="664"/>
      <point x="269" y="664" type="curve" smooth="yes"/>
      <point x="294" y="664"/>
      <point x="380" y="643"/>
      <point x="380" y="627" type="curve" smooth="yes"/>
      <point x="380" y="623"/>
      <point x="377" y="591"/>
      <point x="374" y="552" type="curve"/>
      <point x="516" y="535"/>
      <point x="594" y="451"/>
      <point x="598" y="339" type="curve" smooth="yes"/>
      <point x="602" y="223"/>
      <point x="520" y="136"/>
      <point x="376" y="107" type="curve"/>
      <point x="380" y="57"/>
      <point x="385" y="13"/>
      <point x="389" y="1" type="curve"/>
      <point x="382" y="-9"/>
      <point x="374" y="-16"/>
      <point x="364" y="-16" type="curve" smooth="yes"/>
      <point x="358" y="-16"/>
      <point x="257" y="5"/>
      <point x="257" y="20" type="curve" smooth="yes"/>
      <point x="257" y="20"/>
      <point x="259" y="55"/>
      <point x="260" y="106" type="curve"/>
      <point x="130" y="124"/>
      <point x="46" y="206"/>
    </contour>
    <contour>
      <point x="370" y="468" type="curve" smooth="yes"/>
      <point x="370" y="358"/>
      <point x="370" y="278"/>
      <point x="371" y="218" type="curve" smooth="yes"/>
      <point x="371" y="196"/>
      <point x="372" y="174"/>
      <point x="374" y="146" type="curve"/>
      <point x="448" y="160"/>
      <point x="494" y="237"/>
      <point x="494" y="329" type="curve" smooth="yes"/>
      <point x="494" y="422"/>
      <point x="446" y="495"/>
      <point x="371" y="512" type="curve"/>
      <point x="370" y="495"/>
      <point x="370" y="483"/>
    </contour>
    <contour>
      <point x="257" y="511" type="curve"/>
      <point x="192" y="494"/>
      <point x="146" y="420"/>
      <point x="146" y="329" type="curve" smooth="yes"/>
      <point x="146" y="236"/>
      <point x="188" y="160"/>
      <point x="261" y="146" type="curve"/>
      <point x="263" y="210"/>
      <point x="264" y="284"/>
      <point x="264" y="354" type="curve" smooth="yes"/>
      <point x="264" y="367"/>
      <point x="262" y="434"/>
    </contour>
  </outline>
</glyph>
<glyph name="Psi" format="1">
  <advance width="715"/>
  <unicode hex="03A8"/>
  <outline>
    <contour>
      <point x="95" y="462" type="curve" smooth="yes"/>
      <point x="72" y="527"/>
      <point x="57" y="597"/>
      <point x="27" y="597" type="curve" smooth="yes"/>
      <point x="9" y="597"/>
      <point x="3" y="597"/>
      <point x="-6" y="593" type="curve"/>
      <point x="-8" y="597"/>
      <point x="-14" y="606"/>
      <point x="-14" y="612" type="curve"/>
      <point x="-8" y="635"/>
      <point x="33" y="666"/>
      <point x="61" y="666" type="curve" smooth="yes"/>
      <point x="115" y="666"/>
      <point x="151" y="616"/>
      <point x="188" y="496" type="curve" smooth="yes"/>
      <point x="213" y="414"/>
      <point x="256" y="352"/>
      <point x="308" y="337" type="curve"/>
      <point x="308" y="341"/>
      <point x="308" y="350"/>
      <point x="308" y="354" type="curve" smooth="yes"/>
      <point x="308" y="375"/>
      <point x="301" y="542"/>
      <point x="291" y="647" type="curve"/>
      <point x="293" y="653"/>
      <point x="307" y="664"/>
      <point x="313" y="664" type="curve" smooth="yes"/>
      <point x="338" y="664"/>
      <point x="426" y="643"/>
      <point x="426" y="627" type="curve" smooth="yes"/>
      <point x="426" y="620"/>
      <point x="416" y="532"/>
      <point x="416" y="468" type="curve" smooth="yes"/>
      <point x="416" y="423"/>
      <point x="416" y="375"/>
      <point x="416" y="339" type="curve"/>
      <point x="465" y="354"/>
      <point x="496" y="426"/>
      <point x="529" y="510" type="curve" smooth="yes"/>
      <point x="563" y="596"/>
      <point x="601" y="665"/>
      <point x="661" y="665" type="curve" smooth="yes"/>
      <point x="685" y="665"/>
      <point x="723" y="638"/>
      <point x="729" y="627" type="curve"/>
      <point x="729" y="624"/>
      <point x="729" y="604"/>
      <point x="724" y="603" type="curve"/>
      <point x="717" y="605"/>
      <point x="716" y="602"/>
      <point x="707" y="602" type="curve" smooth="yes"/>
      <point x="670" y="602"/>
      <point x="651" y="540"/>
      <point x="629" y="489" type="curve" smooth="yes"/>
      <point x="581" y="376"/>
      <point x="525" y="303"/>
      <point x="416" y="289" type="curve"/>
      <point x="416" y="259"/>
      <point x="417" y="241"/>
      <point x="417" y="218" type="curve" smooth="yes"/>
      <point x="418" y="148"/>
      <point x="427" y="22"/>
      <point x="435" y="1" type="curve"/>
      <point x="428" y="-9"/>
      <point x="420" y="-16"/>
      <point x="410" y="-16" type="curve" smooth="yes"/>
      <point x="404" y="-16"/>
      <point x="301" y="5"/>
      <point x="301" y="20" type="curve" smooth="yes"/>
      <point x="301" y="20"/>
      <point x="307" y="156"/>
      <point x="308" y="290" type="curve"/>
      <point x="238" y="290"/>
      <point x="141" y="334"/>
    </contour>
  </outline>
</glyph>
